STARTFONT 2.3
FONT -FontForge-STIX Two Math-Book-R-Normal--28-280-72-72-P-192-ISO10646-1
SIZE 28 72 72  4
FONTBOUNDINGBOX 114 121 -28 -47
COMMENT "Generated by fontforge, http://fontforge.sourceforge.net"
COMMENT "Copyright 2001-2021 The STIX Fonts Project Authors (https://github.com/stipub/stixfonts)"
STARTPROPERTIES 41
FOUNDRY "FontForge"
FAMILY_NAME "STIX Two Math"
WEIGHT_NAME "Book"
SLANT "R"
SETWIDTH_NAME "Normal"
ADD_STYLE_NAME ""
PIXEL_SIZE 28
POINT_SIZE 280
RESOLUTION_X 72
RESOLUTION_Y 72
SPACING "P"
AVERAGE_WIDTH 192
CHARSET_REGISTRY "ISO10646"
CHARSET_ENCODING "1"
FONTNAME_REGISTRY ""
CHARSET_COLLECTIONS "ASCII ISOLatin1Encoding ISO8859-2 ISO8859-5 ISO8859-7 ISO8859-9 ISO8859-4 ISO10646-1"
BITS_PER_PIXEL 4
FONT_NAME "STIXTwoMath-Regular"
FACE_NAME "STIX Two Math Regular"
COPYRIGHT "Copyright 2001-2021 The STIX Fonts Project Authors (https://github.com/stipub/stixfonts)"
FONT_VERSION "2.12 b168a"
FONT_ASCENT 21
FONT_DESCENT 7
UNDERLINE_POSITION -3
UNDERLINE_THICKNESS 2
X_HEIGHT 13
CAP_HEIGHT 18
RAW_ASCENT 762
RAW_DESCENT 238
NORM_SPACE 7
RELATIVE_WEIGHT 40
RELATIVE_SETWIDTH 50
SUPERSCRIPT_X 0
SUPERSCRIPT_Y 14
SUPERSCRIPT_SIZE 14
SUBSCRIPT_X 0
SUBSCRIPT_Y 7
SUBSCRIPT_SIZE 14
FIGURE_WIDTH 14
AVG_LOWERCASE_WIDTH 138
AVG_UPPERCASE_WIDTH 190
ENDPROPERTIES
CHARS 6611
STARTCHAR space
ENCODING 32
SWIDTH 235 0
DWIDTH 7 0
BBX 1 1 0 0
BITMAP
00
ENDCHAR
STARTCHAR exclam
ENCODING 33
SWIDTH 283 0
DWIDTH 8 0
BBX 4 19 2 0
BITMAP
2DD1
7FF6
8FF6
7FF5
6FF4
4FF3
3FF2
2FF0
1FE0
0ED0
0DB0
0CA0
0B90
0970
0320
0000
4ED3
AFF9
5ED3
ENDCHAR
STARTCHAR quotedbl
ENCODING 34
SWIDTH 334 0
DWIDTH 9 0
BBX 7 6 1 14
BITMAP
8FE07FF0
8FA07FC0
8F707F80
8F306F40
8E006F10
8A006C00
ENDCHAR
STARTCHAR numbersign
ENCODING 35
SWIDTH 702 0
DWIDTH 20 0
BBX 18 20 1 -1
BITMAP
000000EB00005F4000
000002F800007F2000
000004F600009F0000
000006F30000CC0000
000009F10000EA0000
01222CE22223F92220
0AFFFFFFFFFFFFFFF2
03445FA44449F74440
00003F600008F10000
00005F40000AE00000
00007F20000CC00000
00009E00000EA00000
6EEEFFEEEEEFFEEE60
1222FA22226F722210
0002F700006F300000
0004F500008F100000
0006F30000AE000000
0008F10000DC000000
000BD00000FA000000
000660000174000000
ENDCHAR
STARTCHAR dollar
ENCODING 36
SWIDTH 495 0
DWIDTH 14 0
BBX 12 23 1 -3
BITMAP
00000B700000
00001B800000
017DFFFFC810
1CF61B72AFE1
8F800B700BF1
CF500B7002F1
DF900B7000C1
AFF60B700000
2EFFAC700000
04EFFFC30000
001AFFFF9100
00004EFFFD30
00000BACFFE2
00000B708FF9
80000B700CFC
F1000B7008FD
F7000B7009FB
FE200B701DF5
DFE72B96DF80
06ADEFFC8200
00000B700000
00000B700000
000005300000
ENDCHAR
STARTCHAR percent
ENCODING 37
SWIDTH 692 0
DWIDTH 19 0
BBX 18 19 1 0
BITMAP
0029DC70000007E200
04EB108C4003BF8000
1DE1002DBCB8AD1000
6F80001E0003F50000
9F40002D000CB00000
BF30006B006F200000
9F4001D501E8000000
5FA02BA008D1000000
08FFE8002F50000000
00010000BB018CC800
00000005F21DD30680
0000000D80AF4000D0
0000007D12FC0000D1
000002E506F80000E1
00000AB008F60001E0
00004F3008F60006A0
0000C80006F8001D30
0006E10001ED33C800
001E5000003CEC6000
ENDCHAR
STARTCHAR ampersand
ENCODING 38
SWIDTH 736 0
DWIDTH 21 0
BBX 20 19 0 0
BITMAP
0000007DFEA200000000
00000BF724CE20000000
00004FB0003F70000000
00007F90001F80000000
00007FB0003F60000000
00004FF200AE10000000
00000EF819E400000000
000007FEEA203EEEEED0
000005FF900013CFE620
0001AEAFF300008F5000
002DC10DFC0000BB0000
02EF2004FF7003F20000
0AFA00009FF30B700000
0FF700001DFD6C000000
2FF8000003FFF2000000
1FFB0000009FFA000003
0CFF910029EAFFC3006A
04FFFFEEFD308FFFEFD2
003AEFEC700005CED910
ENDCHAR
STARTCHAR quotesingle
ENCODING 39
SWIDTH 187 0
DWIDTH 5 0
BBX 3 6 1 14
BITMAP
8FD0
8FA0
8F60
8F30
8E00
8A00
ENDCHAR
STARTCHAR parenleft
ENCODING 40
SWIDTH 357 0
DWIDTH 10 0
BBX 8 27 1 -6
BITMAP
00000006
000003D9
00005E70
0004F800
002EB000
00BF3000
04FB0000
0AF50000
1FF10000
5FD00000
7FB00000
9FA00000
AF900000
BF900000
AF900000
9FA00000
7FC00000
4FE00000
1EF20000
0AF60000
03FB0000
00AF4000
001DC000
0003E900
00003E90
000002BB
00000004
ENDCHAR
STARTCHAR parenright
ENCODING 41
SWIDTH 357 0
DWIDTH 10 0
BBX 8 27 1 -6
BITMAP
60000000
9D300000
07E40000
007F4000
000BE100
0003FA00
0000BF30
00006FA0
00002FF1
00000DF4
00000BF7
00000AF9
000009FA
000009FB
000009FA
00000AF9
00000CF7
00000EF4
00002FE0
00006FA0
0000BF30
0004F900
000CD100
009E3000
09E30000
BB200000
40000000
ENDCHAR
STARTCHAR asterisk
ENCODING 42
SWIDTH 410 0
DWIDTH 11 0
BBX 10 11 1 9
BITMAP
0002D80000
0003FB0000
AC21F807E3
DFD1C47FF5
28CCC9EA50
0006FC1000
17CCC9EA40
DFC1C46FF5
AC11F707E3
0003FB0000
0002D80000
ENDCHAR
STARTCHAR plus
ENCODING 43
SWIDTH 720 0
DWIDTH 20 0
BBX 18 18 1 -2
BITMAP
000000007810000000
00000000EF10000000
00000000EF10000000
00000000EF10000000
00000000EF10000000
00000000EF10000000
00000000EF10000000
00000000EF10000000
4FFFFFFFFFFFFFFFF6
4FFFFFFFFFFFFFFFF6
00000000EF10000000
00000000EF10000000
00000000EF10000000
00000000EF10000000
00000000EF10000000
00000000EF10000000
00000000EF10000000
000000007710000000
ENDCHAR
STARTCHAR comma
ENCODING 44
SWIDTH 245 0
DWIDTH 7 0
BBX 5 7 1 -4
BITMAP
1CE900
6FFF40
2DEF60
002F50
006E10
03D400
3B2000
ENDCHAR
STARTCHAR hyphen
ENCODING 45
SWIDTH 315 0
DWIDTH 9 0
BBX 7 2 1 6
BITMAP
9DDDDD70
BFFFFF80
ENDCHAR
STARTCHAR period
ENCODING 46
SWIDTH 245 0
DWIDTH 7 0
BBX 5 3 1 0
BITMAP
0BE900
3FFF10
1BEA00
ENDCHAR
STARTCHAR slash
ENCODING 47
SWIDTH 386 0
DWIDTH 11 0
BBX 9 23 1 -3
BITMAP
0000000DA0
0000003F50
0000008F10
000000CB00
000002F600
000007F100
00000CC000
00002F7000
00006F2000
0000BC0000
0001F80000
0006F30000
000AD00000
001E800000
005F400000
00AE000000
00E9000000
04F4000000
09E0000000
0EA0000000
3F50000000
8F10000000
DB00000000
ENDCHAR
STARTCHAR zero
ENCODING 48
SWIDTH 495 0
DWIDTH 14 0
BBX 14 19 0 0
BITMAP
00006CEEB50000
000AF923BF7000
008FB0000DF500
01FF300006FD00
08FE000001FF50
0CFB000000EF90
0FF9000000CFD0
2FF8000000AFF0
3FF7000000AFF1
4FF70000009FF1
3FF7000000AFF1
2FF7000000AFF0
0FF9000000BFC0
0CFB000000DF90
08FE000001FF50
02FF300006FD00
009FB0001DF500
001BF923BF8000
00006CEEB50000
ENDCHAR
STARTCHAR one
ENCODING 49
SWIDTH 495 0
DWIDTH 14 0
BBX 10 19 2 0
BITMAP
0000372000
26AEFF5000
DA8BFF5000
0003FF5000
0002FF5000
0002FF5000
0002FF5000
0002FF5000
0002FF5000
0002FF5000
0002FF5000
0002FF5000
0002FF5000
0002FF5000
0002FF5000
0002FF5000
0004FF7000
125DFFE631
CFFFFFFFFE
ENDCHAR
STARTCHAR two
ENCODING 50
SWIDTH 495 0
DWIDTH 14 0
BBX 12 19 1 0
BITMAP
0018DFEB5000
02DFEEFFF900
0CA2003CFF60
5A000002EFC0
72000000AFF0
000000008FF1
000000009FE0
00000000CF90
00000001FF30
00000008F800
0000003FB000
000001DD1000
00000BE20000
0000AE300000
0009E3000008
008E3000004C
07F6222225D9
6FFFFFFFFFF6
EFFFFFFFFFF3
ENDCHAR
STARTCHAR three
ENCODING 51
SWIDTH 495 0
DWIDTH 14 0
BBX 12 19 1 0
BITMAP
0005CEEB4000
009FEEFFF600
06D4003DFE10
1D200005FF40
03000002FF40
00000002FF20
00000006F900
0000002EA000
000005DA0000
0007FFFFC400
000135AFFF50
00000004EFE1
000000006FF5
000000000FF6
000000000DF4
000000001FE1
064000007F40
4FFC5238D400
19EFEDA60000
ENDCHAR
STARTCHAR four
ENCODING 52
SWIDTH 495 0
DWIDTH 14 0
BBX 14 19 0 0
BITMAP
000000007F9000
00000003FF9000
0000000CFF9000
0000008CEF9000
000004E2DF9000
00001D60DF9000
0000AB00DF9000
0005E200DF9000
002E5000DF9000
00BA0000DF9000
07D10000DF9000
3F400000DF9000
9FFFFFFFFFFFF7
AFFFFFFFFFFFF7
00000000DF9000
00000000DF9000
00000000DF9000
00000000DF9000
00000000DF9000
ENDCHAR
STARTCHAR five
ENCODING 53
SWIDTH 495 0
DWIDTH 14 0
BBX 12 19 1 0
BITMAP
000122222220
000BFFFFFFF0
000EFFFFFFC0
003E00000000
007B00000000
00B700000000
00EFFEC71000
03FFFFFFE500
002336AFFF50
00000002DFD0
000000003FF3
000000000DF5
000000000BF5
000000000AF4
000000000BF1
000000001FA0
1CA20000AD10
4FFF978DC200
08DFEDA50000
ENDCHAR
STARTCHAR six
ENCODING 54
SWIDTH 495 0
DWIDTH 14 0
BBX 12 19 1 0
BITMAP
00000038CE90
00002BFE7200
0004EF900000
004FF6000000
01EF80000000
08FD00000000
0EF600000000
4FF37CEDA300
7FFD7338FF40
AFF500008FE1
BFE000001FF6
BFC000000CFA
AFC000000AFB
8FE000000AFB
4FF100000BFA
0DF600000EF6
06FD10005FE1
008FC425EE40
0005BEFD9200
ENDCHAR
STARTCHAR seven
ENCODING 55
SWIDTH 495 0
DWIDTH 14 0
BBX 12 19 1 0
BITMAP
022222222222
0DFFFFFFFFFF
2FFFFFFFFFFA
6D20000005F5
A60000000CE0
410000003F80
000000009F20
00000001EC00
00000006F600
0000000DF100
0000004FA000
000000AF4000
000001FD0000
000007F80000
00000DF20000
00005FB00000
0000BF600000
0002FE100000
0008F9000000
ENDCHAR
STARTCHAR eight
ENCODING 56
SWIDTH 495 0
DWIDTH 14 0
BBX 12 19 1 0
BITMAP
0018DEEC6000
03ED6238FB10
0DF300009F70
3FE000004FC0
5FE000004FC0
3FF500006F90
0DFE3000CE20
03EFF61AC200
004EFFF90000
0003FFFF7000
003D76EFFA00
05F7002CFFA0
3FC00001CFF3
9F8000003FF7
AF8000000DF8
9FA000000DF6
4FF200003FE1
08FD6326EE50
004ADFFD8200
ENDCHAR
STARTCHAR nine
ENCODING 57
SWIDTH 495 0
DWIDTH 14 0
BBX 12 19 1 0
BITMAP
0029DFEB5000
04EE524CF700
1EF40001EF40
7FD000008FC0
BFA000003FF2
DF8000001FF5
DF8000000FF7
CFA000000EF8
9FD000000FF8
3FF400005FF8
08FE4016EFF6
006DFFEA5FF3
000012006FE0
00000000CF80
00000005FE20
0000003EF600
000005EF7000
0015BFD40000
08EC95000000
ENDCHAR
STARTCHAR colon
ENCODING 58
SWIDTH 245 0
DWIDTH 7 0
BBX 5 13 1 0
BITMAP
0BE900
3FFF10
1BEA00
000000
000000
000000
000000
000000
000000
000000
0BE900
3FFF10
1BEA00
ENDCHAR
STARTCHAR semicolon
ENCODING 59
SWIDTH 245 0
DWIDTH 7 0
BBX 5 17 1 -4
BITMAP
0BE900
3FFF10
1BEA00
000000
000000
000000
000000
000000
000000
000000
1CE900
6FFF40
2DEF60
002F50
006E10
03D400
3B2000
ENDCHAR
STARTCHAR less
ENCODING 60
SWIDTH 720 0
DWIDTH 20 0
BBX 17 17 2 -1
BITMAP
000000000000000110
000000000000017E30
0000000000018EFE20
00000000018EFE7100
000000028EFD710000
0000029FFD60000000
00029FFD6000000000
02AFFD600000000000
AFFF60000000000000
29FFE7100000000000
0028EFE71000000000
000018EFE710000000
00000017EFE7100000
0000000017EFE81000
000000000016DFE810
00000000000006DF30
000000000000000520
ENDCHAR
STARTCHAR equal
ENCODING 61
SWIDTH 720 0
DWIDTH 20 0
BBX 18 8 1 4
BITMAP
4EEEEEEEEEEEEEEEE6
4FFFFFFFFFFFFFFFF6
000000000000000000
000000000000000000
000000000000000000
000000000000000000
4EEEEEEEEEEEEEEEE6
4FFFFFFFFFFFFFFFF6
ENDCHAR
STARTCHAR greater
ENCODING 62
SWIDTH 720 0
DWIDTH 20 0
BBX 17 17 2 -1
BITMAP
100000000000000000
F92000000000000000
DFF920000000000000
05DFF9200000000000
0005DFFA3000000000
000005CFFA30000000
00000005CFFB300000
0000000005CFFB4000
000000000005EFFB10
00000000005DFFA300
000000006DFFA30000
0000006DFF92000000
00006DFF9200000000
006DFE810000000000
6DFE81000000000000
FE7100000000000000
710000000000000000
ENDCHAR
STARTCHAR question
ENCODING 63
SWIDTH 411 0
DWIDTH 12 0
BBX 11 19 0 0
BITMAP
002ADFEB6000
04F9325DFA00
0DF00003FF60
2FF30000DFA0
1FF80000BFB0
09D30000CF90
00000001FF50
00000007FC00
0000001DF300
0000008F7000
000001EB0000
000008E20000
00000B800000
00000D400000
000002100000
000000000000
00006EC10000
0000DFF40000
00007EC10000
ENDCHAR
STARTCHAR at
ENCODING 64
SWIDTH 905 0
DWIDTH 25 0
BBX 23 24 1 -6
BITMAP
000000026ACEEDB830000000
0000029FC743247BFC300000
00004EC3000000003DF60000
0005FA000000000001BF6000
003EB00000000000001EF200
00CF200018CEC40D8005FA00
04F90002DE635DAF8000DF10
0AF4000CF50003FF80008F50
0EF0005FC00000CF80005F80
2FD000AF700000AF80004F90
3FB000EF500000BF70003FA0
4FB001FF400000BF70003F90
4FB001FF400000BF70005F70
3FC000FF500000BF70007F40
1FF000DF700000DF7000BE00
0CF3008FD00006FF7002F600
07F9001DFA337B6FB24DA000
01FE1002AEEC700AEEC60000
007FA0000000000000000000
000BF8000000000000000000
0001BFA10000000000300000
000007EF952000137CD20000
00000016AEFFEFEC84000000
000000000012210000000000
ENDCHAR
STARTCHAR A
ENCODING 65
SWIDTH 718 0
DWIDTH 20 0
BBX 20 19 0 0
BITMAP
000000000DA000000000
000000004FF200000000
00000000BFF800000000
00000002FEFE10000000
00000008E6FF60000000
0000001E81EFD0000000
0000006F30AFF4000000
000000CC004FFB000000
000003F6000DFF200000
00000AF10008FF900000
00001FA00002FFE10000
00007F400000CFF60000
0000DFEEEEEEFFFD0000
0005F82222223EFF4000
000BE100000008FFB000
003F8000000001FFF300
00AF3000000000AFFA00
28FF6200000013CFFF82
EFFFFF0000008FFFFFFF
ENDCHAR
STARTCHAR B
ENCODING 66
SWIDTH 618 0
DWIDTH 17 0
BBX 16 19 1 0
BITMAP
DFFFFFFFEDB71000
00BFF73248EFE300
005FF400003EFD10
004FF4000009FF40
004FF4000006FF60
004FF4000006FF50
004FF4000008FE10
004FF400001DD400
004FF40014A71000
004FFFEFFFEB5000
004FF62247CFFB10
004FF4000009FFA0
004FF4000001EFF2
004FF4000000AFF4
004FF4000000AFF4
004FF4000000CFF1
006FF4000005FF90
01BFF622259FFA00
EFFFFFFFFED94000
ENDCHAR
STARTCHAR C
ENCODING 67
SWIDTH 670 0
DWIDTH 19 0
BBX 17 19 1 0
BITMAP
0000038CEFED944F10
0001AFD73237DFFF10
002DFA1000001CFF10
00CFC000000001EF10
07FF30000000008F10
0EFD00000000003F10
3FF900000000000F10
7FF600000000000000
8FF500000000000000
9FF500000000000000
8FF600000000000000
6FF800000000000000
3FFB00000000000000
0DFF10000000000000
08FFA0000000000120
01DFF8000000003D60
003EFFB5000039F800
0002CFFFFEDFFE5000
000005ADFFEB710000
ENDCHAR
STARTCHAR D
ENCODING 68
SWIDTH 730 0
DWIDTH 20 0
BBX 18 19 1 0
BITMAP
DFFFFFFFEDB8400000
01BFF73357CFFD4000
005FF4000003DFF700
004FF40000001CFF50
004FF400000002FFE1
004FF400000000AFF6
004FF4000000005FFB
004FF4000000001FFD
004FF4000000000FFF
004FF4000000000EFF
004FF4000000000EFF
004FF4000000000FFD
004FF4000000002FFA
004FF4000000006FF6
004FF400000000CFE1
004FF400000007FF50
005FF40000007FF700
00AFF622359DFD4000
DFFFFFFFFEC9400000
ENDCHAR
STARTCHAR E
ENCODING 69
SWIDTH 626 0
DWIDTH 18 0
BBX 16 19 1 0
BITMAP
DFFFFFFFFFFFFFB0
01BFF7444456AFB0
005FF400000009C0
004FF400000003D0
004FF40000000020
004FF40000059000
004FF40000069000
004FF40000099000
004FF400005E9000
004FFFEEEFFF9000
004FF622234C9000
004FF40000059000
004FF40000000000
004FF40000000038
004FF40000000089
004FF400000000E7
005FF400000008F4
00AFF7444457BFF2
DFFFFFFFFFFFFFF0
ENDCHAR
STARTCHAR F
ENCODING 70
SWIDTH 588 0
DWIDTH 16 0
BBX 16 19 1 0
BITMAP
DFFFFFFFFFFFFFE0
01BFF74444569FF0
005FF400000006F0
004FF400000000E1
004FF40000000020
004FF40000078000
004FF40000088000
004FF400000B8000
004FF400016F8000
004FFFEEEFFF8000
004FF622235D8000
004FF40000078000
004FF40000000000
004FF40000000000
004FF40000000000
004FF40000000000
006FF60000000000
24CFFD5200000000
FFFFFFFF30000000
ENDCHAR
STARTCHAR G
ENCODING 71
SWIDTH 720 0
DWIDTH 20 0
BBX 19 19 1 0
BITMAP
0000038CEFED944E1000
0001AFD73236DFFF1000
002DFA1000001BFF1000
00CFC000000001EF1000
07FF40000000008F1000
0EFD00000000003F1000
3FF900000000000E1000
6FF60000000000000000
8FF50000000000000000
9FF50000000000000000
8FF60000000BEEEEEE30
7FF7000000024CFFB300
4FFA0000000005FF5000
1FFD0000000004FF4000
09FF4000000004FF4000
02EFD100000004FF4000
005FFB10000007FF4000
0004DFE73225CFFA1000
000006ADEFEDA6100000
ENDCHAR
STARTCHAR H
ENCODING 72
SWIDTH 777 0
DWIDTH 22 0
BBX 21 19 1 0
BITMAP
9FFFFFFF7000DFFFFFFF30
139FFF72100013BFFD5200
000FFC000000004FF80000
000EFB000000002FF70000
000DFA000000002FF60000
000DFA000000002FF60000
000DFA000000002FF60000
000DFA000000002FF60000
000DFA000000002FF60000
000DFFEEEEEEEEEFF60000
000DFB222222224FF60000
000DFA000000002FF60000
000DFA000000002FF60000
000DFA000000002FF60000
000DFA000000002FF60000
000EFA000000002FF70000
000FFC000000003FF80000
128FFF62100013AFFD4200
9FFFFFFF7000DFFFFFFF30
ENDCHAR
STARTCHAR I
ENCODING 73
SWIDTH 357 0
DWIDTH 10 0
BBX 9 19 0 0
BITMAP
1FFFFFFFF0
024DFFC420
0006FF5000
0004FF4000
0004FF4000
0004FF4000
0004FF4000
0004FF4000
0004FF4000
0004FF4000
0004FF4000
0004FF4000
0004FF4000
0004FF4000
0004FF4000
0004FF4000
0006FF6000
024CFFC420
1FFFFFFFF0
ENDCHAR
STARTCHAR J
ENCODING 74
SWIDTH 396 0
DWIDTH 11 0
BBX 11 19 0 0
BITMAP
006FFFFFFF80
00126FFF9310
00000BFF1000
00000AFE0000
00000AFE0000
00000AFE0000
00000AFE0000
00000AFE0000
00000AFE0000
00000AFE0000
00000AFE0000
00000AFE0000
00000AFE0000
00000AFE0000
00000AFE0000
69100AFC0000
EFA00BF90000
CFF64FE20000
2AEFEA300000
ENDCHAR
STARTCHAR K
ENCODING 75
SWIDTH 702 0
DWIDTH 20 0
BBX 20 19 0 0
BITMAP
1FFFFFFFF009FFFFFF40
024DFFC420015FFF8300
0006FF5000003FE40000
0004FF400000CE300000
0004FF40000BD2000000
0004FF4000BD20000000
0004FF401BD100000000
0004FF41BC1000000000
0004FF5CC10000000000
0004FFEFF50000000000
0004FF6DFF5000000000
0004FF42DFF500000000
0004FF402DFF50000000
0004FF4002DFF5000000
0004FF40002DFF500000
0004FF400002EFF60000
0006FF6000004FFF6000
023CFFC420013FFFF931
1FFFFFFFF009FFFFFFF7
ENDCHAR
STARTCHAR L
ENCODING 76
SWIDTH 585 0
DWIDTH 16 0
BBX 15 19 1 0
BITMAP
CFFFFFFF10000000
14DFFD5200000000
006FF70000000000
004FF50000000000
004FF40000000000
004FF40000000000
004FF40000000000
004FF40000000000
004FF40000000000
004FF40000000000
004FF40000000000
004FF40000000000
004FF40000000000
004FF40000000060
004FF400000005B0
004FF40000000B90
005FF50000004F70
009FFA311238FF40
ADFFFFFFFFFFFF20
ENDCHAR
STARTCHAR M
ENCODING 77
SWIDTH 895 0
DWIDTH 25 0
BBX 24 19 0 0
BITMAP
2FFFFFB00000000000BFFFFC
025FFFF20000000002FFFD41
000AFFF90000000009FFF700
0009DEFE100000001EDFF500
0008C9FF600000006F6FF500
0008C3FFC0000000CD2FF500
0008C0BFF3000003F62FF500
0008C05FF9000009E12FF500
0008C00DFE10001E902FF500
0008C007FF60006F302FF500
0008C001FFD000CB002FF500
0008C000AFF403F5002FF500
0008C0003FFA0AD0002FF500
0008C0000CFF2F70002FF500
0008C00006FFDF10002FF500
0009D00000EFFA00002FF500
000BE000008FF400004FF700
026FF821002FC00013BFFD41
3FFFFFF5000A6000AFFFFFFC
ENDCHAR
STARTCHAR N
ENCODING 78
SWIDTH 742 0
DWIDTH 21 0
BBX 20 19 0 0
BITMAP
3FFFFD10000009FFFFFF
039FFFA00000013CFF72
000BFFF700000002FB00
0008FFFF30000000F800
0008CAFFD1000000E700
0008C1DFFA000000E700
0008C03EFF600000E700
0008C005FFF30000E700
0008C0009FFD1000E700
0008C0000CFFA000E700
0008C00002EFF600E700
0008C000004FFF30E700
0008C0000007FFD1E700
0008C0000000BFFAE700
0009C00000001DFFF700
0009D000000003FFF700
000BE0000000006FF700
026FF93100000009F700
3FFFFFF500000000C700
ENDCHAR
STARTCHAR O
ENCODING 79
SWIDTH 738 0
DWIDTH 21 0
BBX 19 19 1 0
BITMAP
0000049CEFEC82000000
0001BFD63249FF800000
002DFA0000003EFB1000
00CFC000000004FF9000
07FF4000000000AFF300
0EFD00000000004FFA00
3FFA00000000000EFE00
6FF700000000000CFF20
8FF600000000000BFF30
9FF600000000000AFF40
8FF600000000000BFF30
6FF800000000000CFF10
3FFA00000000000EFD00
0EFE00000000003FF800
08FF50000000008FE200
00DFC000000001EF6000
003EFA0000001CF90000
0002CFC63237DF700000
0000049DEFEC82000000
ENDCHAR
STARTCHAR P
ENCODING 80
SWIDTH 569 0
DWIDTH 16 0
BBX 15 19 1 0
BITMAP
9FFFFFFFDC940000
00AFF7235AFFB100
005FF400007FF900
004FF400000DFF10
004FF400000AFF30
004FF4000008FF30
004FF4000009FF10
004FF400000CFB00
004FF400004FF400
004FF50028EF5000
004FFFFFFD920000
004FF52210000000
004FF40000000000
004FF40000000000
004FF40000000000
004FF50000000000
006FF60000000000
13CFFD4200000000
CFFFFFFF20000000
ENDCHAR
STARTCHAR Q
ENCODING 81
SWIDTH 737 0
DWIDTH 21 0
BBX 19 25 1 -6
BITMAP
0000049DEFEC82000000
0001BFC63249FF800000
002DFA0000003EFB0000
00CFC000000004FF8000
07FF4000000000BFF300
0DFD00000000005FF900
3FF900000000001FFE00
6FF700000000000DFF10
8FF600000000000CFF30
9FF500000000000BFF30
8FF600000000000BFF20
7FF700000000000DFF10
4FFA00000000000FFC00
1FFE00000000003FF800
09FF40000000008FE100
02EFC000000002EF7000
005FF90000001CFA0000
0005EFC63237EF800000
000017BEFFFF82000000
000000002FFF50000000
0000000009FFE3000000
0000000001DFFE400000
00000000002CFFFA4100
0000000000005BEFFFF0
00000000000000011220
ENDCHAR
STARTCHAR R
ENCODING 82
SWIDTH 659 0
DWIDTH 18 0
BBX 18 19 1 0
BITMAP
BFFFFFFFECA5000000
00AFF72248FFC20000
005FF400004FFB0000
004FF400000BFF2000
004FF4000008FF4000
004FF4000009FF3000
004FF400000CFE1000
004FF400005FF60000
004FF4014AFE600000
004FFFFFFD61000000
004FF639FF60000000
004FF400CFF4000000
004FF4003FFD100000
004FF40008FFA00000
004FF40000DFF60000
005FF500004FFE2000
006FF6000009FFB000
13CFFC420001EFFA31
CFFFFFFF10005FFFF9
ENDCHAR
STARTCHAR S
ENCODING 83
SWIDTH 504 0
DWIDTH 14 0
BBX 13 19 1 0
BITMAP
0039DFEC73D200
06FD5226DFF300
2FF200001DF300
7FD0000006F400
9FE0000000E400
8FF7000000A400
3FFF7000000000
09FFFC40000000
009FFFFA200000
0004DFFFE60000
000018FFFFA000
0000002BFFF700
000000008FFE00
E10000000CFF20
E500000008FF20
EB00000009FE00
DF6000000DF800
CFF94225BFB000
C86ADFFEB50000
ENDCHAR
STARTCHAR T
ENCODING 84
SWIDTH 603 0
DWIDTH 17 0
BBX 17 19 0 0
BITMAP
4FFFFFFFFFFFFFFF40
5FC5211DFC1125DF40
6E10000DFB00002F50
7A00000DFB00000C60
8600000DFB00000860
0000000DFB00000000
0000000DFB00000000
0000000DFB00000000
0000000DFB00000000
0000000DFB00000000
0000000DFB00000000
0000000DFB00000000
0000000DFB00000000
0000000DFB00000000
0000000DFB00000000
0000000DFC00000000
0000000FFD00000000
0000128FFF72100000
00009FFFFFFF800000
ENDCHAR
STARTCHAR U
ENCODING 85
SWIDTH 752 0
DWIDTH 21 0
BBX 21 19 0 0
BITMAP
7FFFFFFF900005FFFFFF80
127FFF9310000028FFA310
000DFE0000000000DF1000
000BFD0000000000BE0000
000BFD0000000000AE0000
000BFD0000000000AE0000
000BFD0000000000AE0000
000BFD0000000000AE0000
000BFD0000000000AE0000
000BFD0000000000AE0000
000BFD0000000000AE0000
000BFD0000000000AE0000
000AFE0000000000BD0000
0009FF1000000000DB0000
0006FF5000000002F80000
0001FFD10000000AF20000
00009FFC400003AF900000
00000AFFFFDDEFF9000000
00000049DEFEC930000000
ENDCHAR
STARTCHAR V
ENCODING 86
SWIDTH 680 0
DWIDTH 19 0
BBX 21 19 -1 0
BITMAP
4FFFFFFF300000AFFFFF40
03BFFFA300000014EFB300
001DFF6000000000CE1000
0007FFA000000002F80000
0001EFF100000007F10000
00009FF70000000DA00000
00002FFD0000004F400000
00000BFF400000AD000000
000005FFA00001F7000000
000000DFF10007F1000000
0000007FF7000CA0000000
0000001FFD003F30000000
0000000AFF309C00000000
00000003FF90E600000000
00000000CFE5E100000000
000000006FFE9000000000
000000001EFF3000000000
0000000008FC0000000000
0000000002F60000000000
ENDCHAR
STARTCHAR W
ENCODING 87
SWIDTH 944 0
DWIDTH 26 0
BBX 28 19 -1 0
BITMAP
4FFFFFFE00CFFFFFF70005FFFFF6
04CFFF720015EFFB3100013CFD41
001EFF3000007FF700000008F400
0007FF7000001EFB0000000AD000
0001FFD000000AFF2000000E8000
0000AFF3000005FF8000004F3000
00004FF9000004FFD000009D0000
00000DFE100009FFF40000E80000
000008FF60001E7FFA0004F30000
000002FFC0006E0BFF1009D00000
000000BFF300C806FF600E700000
0000005FF903F301EFC04F200000
0000000EFE08C0009FF29C000000
00000008FF5E60003FF7E7000000
00000002FFEF10000DFEF2000000
00000000BFFA000007FFC0000000
000000005FF4000002FF70000000
000000000ED0000000BF20000000
0000000009800000005C00000000
ENDCHAR
STARTCHAR X
ENCODING 88
SWIDTH 664 0
DWIDTH 19 0
BBX 19 19 0 0
BITMAP
8FFFFFFF4003FFFFFF40
139FFFB200002BFE7200
000AFFA000000CF40000
0001EFF300005F700000
00005FFC0001EA000000
00000AFF600AD1000000
000001EFE15F30000000
0000005FFAE600000000
0000000AFFA000000000
00000002FFE100000000
0000000ADFFA00000000
0000007E2AFF50000000
000003F602EFE2000000
00001DA0006FFB000000
0000BE10000BFF600000
0007F4000003FFE20000
004FA0000000BFFC0000
26EFA2000002BFFFB310
EFFFFF40005FFFFFFF70
ENDCHAR
STARTCHAR Y
ENCODING 89
SWIDTH 647 0
DWIDTH 18 0
BBX 20 19 -1 0
BITMAP
2FFFFFFF60000DFFFFF4
039FFFB21000015FF830
0009FFB00000003F7000
0000CFF4000000BC0000
00003FFD000004F30000
000008FF80000D900000
000001DFF2007E100000
0000005FFB01E6000000
0000000BFF49C0000000
00000002EFDF40000000
000000007FFA00000000
000000002FF600000000
000000002FF600000000
000000002FF600000000
000000002FF600000000
000000003FF700000000
000000004FF800000000
00000023BFFE52000000
000000EFFFFFFF500000
ENDCHAR
STARTCHAR Z
ENCODING 90
SWIDTH 594 0
DWIDTH 17 0
BBX 16 19 0 0
BITMAP
01FFFFFFFFFFFFFA
02FF84211113FFE2
03F60000000BFF70
03E00000006FFC00
0490000002EFF200
000000000BFF7000
000000006FFC0000
00000002EFF30000
0000000BFF800000
0000006FFC000000
000001EFF3000000
00000AFF80000000
00005FFD10000000
0001EFF400000003
000AFF900000003B
005FFD1000000099
01EFF400000003F7
0AFFA11111237EF4
3FFFFFFFFFFFFFF2
ENDCHAR
STARTCHAR bracketleft
ENCODING 91
SWIDTH 349 0
DWIDTH 10 0
BBX 7 28 2 -7
BITMAP
7EEEEE50
7FC22210
7FB00000
7FB00000
7FB00000
7FB00000
7FB00000
7FB00000
7FB00000
7FB00000
7FB00000
7FB00000
7FB00000
7FB00000
7FB00000
7FB00000
7FB00000
7FB00000
7FB00000
7FB00000
7FB00000
7FB00000
7FB00000
7FB00000
7FB00000
7FB00000
7FFEEE50
12222210
ENDCHAR
STARTCHAR backslash
ENCODING 92
SWIDTH 385 0
DWIDTH 11 0
BBX 9 23 1 -3
BITMAP
DA00000000
8E00000000
3F50000000
0E90000000
09E0000000
04F4000000
00E9000000
00AD000000
005F300000
001F800000
000AD00000
0006F20000
0001F70000
0000BC0000
00006F2000
00002F6000
00000CB000
000007F100
000002F600
000000DA00
0000008E10
0000003F50
0000000DA0
ENDCHAR
STARTCHAR bracketright
ENCODING 93
SWIDTH 349 0
DWIDTH 10 0
BBX 7 28 1 -7
BITMAP
8EEEEE40
1222EF40
0000EF40
0000EF40
0000EF40
0000EF40
0000EF40
0000EF40
0000EF40
0000EF40
0000EF40
0000EF40
0000EF40
0000EF40
0000EF40
0000EF40
0000EF40
0000EF40
0000EF40
0000EF40
0000EF40
0000EF40
0000EF40
0000EF40
0000EF40
0000EF40
8EEEFF40
12222210
ENDCHAR
STARTCHAR asciicircum
ENCODING 94
SWIDTH 480 0
DWIDTH 13 0
BBX 12 11 1 9
BITMAP
000018500000
00008FE10000
0001EAF70000
0008F1AE1000
001E903F7000
007F200BD000
01EA0004F600
06F30000CD00
0DB000004F60
6F4000000CD0
DC00000005F5
ENDCHAR
STARTCHAR underscore
ENCODING 95
SWIDTH 512 0
DWIDTH 14 0
BBX 15 2 0 -4
BITMAP
EEEEEEEEEEEEEE50
2222222222222210
ENDCHAR
STARTCHAR grave
ENCODING 96
SWIDTH 222 0
DWIDTH 6 0
BBX 6 5 0 15
BITMAP
188400
0BFD00
01DF40
002EB0
0003E2
ENDCHAR
STARTCHAR a
ENCODING 97
SWIDTH 480 0
DWIDTH 13 0
BBX 13 14 1 0
BITMAP
004AEFEB300000
08F923AFE20000
3FF2000DF80000
5FF0000AFA0000
08600009FB0000
0000001AFB0000
00017BDDFB0000
019FA309FB0000
2DF50009FB0000
AFB00009FB0000
DF900009FB0000
CFB0001DFD0310
7FF725B7FFED10
07DFD810CEB200
ENDCHAR
STARTCHAR b
ENCODING 98
SWIDTH 522 0
DWIDTH 15 0
BBX 14 20 0 0
BITMAP
26AE8000000000
8BFF8000000000
00CF8000000000
00CF8000000000
00CF8000000000
00CF8000000000
00CF803BEEA200
00CF85FFFFFE20
00CFCC4018FFB0
00CFC10000AFF3
00CF8000004FF7
00CF8000001FF9
00CF8000000EF9
00CF8000000EF8
00CF8000000FF6
00CF8000002FF2
00CF8000007FB0
00CFA00001DE20
00BFF9324CE400
0017BEFEC71000
ENDCHAR
STARTCHAR c
ENCODING 99
SWIDTH 446 0
DWIDTH 12 0
BBX 12 14 0 0
BITMAP
00006CEED810
001CD524EFD1
00BE10006FF6
05F800001DF6
0AF400000130
0EF200000000
0FF200000000
1FF400000000
0FF700000000
0CFC00000003
07FF60000079
01EFF9324AE1
004EFFFFFF40
00029DFEA300
ENDCHAR
STARTCHAR d
ENCODING 100
SWIDTH 539 0
DWIDTH 15 0
BBX 15 20 0 0
BITMAP
0000000026AE6000
000000009CFF6000
0000000000FF6000
0000000000EF6000
0000000000EF6000
0000000000EF6000
00004ADFD8EF6000
0009F9325EFF6000
008F700005FF6000
03FD000000EF6000
08F8000000EF6000
0DF6000000EF6000
0FF6000000EF6000
1FF6000000EF6000
0FF8000000EF6000
0DFB000000EF6000
0AFF300000EF6000
03FFD5003AFF7000
008FFFFFF7DFD720
0006CEEA30DDB820
ENDCHAR
STARTCHAR e
ENCODING 101
SWIDTH 464 0
DWIDTH 13 0
BBX 11 14 1 0
BITMAP
0017CEEB4000
02DC425EF600
0CE10004FF20
6F800000CF90
BF4000009FD0
EFEEEEEEFFF0
FF5222222220
FF5000000000
EF8000000000
BFE100000020
6FFA000003C0
0CFFB5238F40
02DFFFFFF800
0017CEEC5000
ENDCHAR
STARTCHAR f
ENCODING 102
SWIDTH 307 0
DWIDTH 9 0
BBX 11 21 0 0
BITMAP
000018DED700
0000CB39FF70
0006F500BF70
000CF3001400
000FF3000000
001FF3000000
002FF3000000
4FFFFFFF9000
013FF4111000
002FF3000000
002FF3000000
002FF3000000
002FF3000000
002FF3000000
002FF3000000
002FF3000000
002FF3000000
002FF3000000
004FF5000000
13AFFC420000
8FFFFFFF0000
ENDCHAR
STARTCHAR g
ENCODING 103
SWIDTH 484 0
DWIDTH 14 0
BBX 14 20 0 -6
BITMAP
0003AEFFFFFFF3
006FD427FFC110
02FF40007FF300
07FF00001FF700
08FE00000EF900
07FF00000EF700
03FF50002FF300
007FD402BF8000
000ACFFFD60000
008C0021000000
05F80000000000
0AFD5322200000
07FFFFFFFFD810
008FFFFFFFFF90
01C50000026EE0
0BE000000008E0
4FC000000008B0
5FF20000002D30
1DFD732248C400
018DEFDC950000
ENDCHAR
STARTCHAR h
ENCODING 104
SWIDTH 577 0
DWIDTH 16 0
BBX 16 20 0 0
BITMAP
148CF20000000000
4AEFF20000000000
004FF20000000000
003FF20000000000
003FF20000000000
003FF20000000000
003FF205CEE91000
003FF2AFDFFFA000
003FFD9101AFF100
003FF600002FF500
003FF200000EF700
003FF200000DF700
003FF200000CF800
003FF200000CF800
003FF200000CF800
003FF200000CF800
003FF200000CF800
004FF200000DF800
02AFF820025FFD41
2FFFFFF30DFFFFF8
ENDCHAR
STARTCHAR i
ENCODING 105
SWIDTH 285 0
DWIDTH 8 0
BBX 8 19 0 0
BITMAP
002DE400
007FF900
002DE400
00000000
00000000
058CF300
19CFF300
003FF300
002FF300
002FF300
002FF300
002FF300
002FF300
002FF300
002FF300
002FF300
003FF300
029FF920
2FFFFFF3
ENDCHAR
STARTCHAR j
ENCODING 106
SWIDTH 263 0
DWIDTH 7 0
BBX 9 25 -3 -6
BITMAP
000005ED20
00000AFF70
000004ED20
0000000000
0000000000
000169CF20
00028CFF20
000004FF20
000003FF20
000003FF20
000003FF20
000003FF20
000003FF20
000003FF20
000003FF20
000003FF20
000003FF20
000003FF20
000003FF20
000003FF10
000003FE00
030004FC00
8FB006F600
8FFA5DC000
19EFD81000
ENDCHAR
STARTCHAR k
ENCODING 107
SWIDTH 542 0
DWIDTH 15 0
BBX 16 20 0 0
BITMAP
048CF20000000000
28CFF20000000000
004FF20000000000
003FF20000000000
003FF20000000000
003FF20000000000
003FF200FFFFFF10
003FF2002BFD6200
003FF2002EB10000
003FF202EA000000
003FF22D80000000
003FF4D700000000
003FFEFD10000000
003FF5EFC1000000
003FF24FFB000000
003FF206FF900000
003FF2008FF70000
004FF2000AFF5000
02AFF92003FFF720
2FFFFFF31FFFFFF1
ENDCHAR
STARTCHAR l
ENCODING 108
SWIDTH 283 0
DWIDTH 8 0
BBX 8 20 0 0
BITMAP
037BF200
3ADFF200
004FF200
003FF200
003FF200
003FF200
003FF200
003FF200
003FF200
003FF200
003FF200
003FF200
003FF200
003FF200
003FF200
003FF200
003FF200
003FF200
029FF820
2FFFFFF4
ENDCHAR
STARTCHAR m
ENCODING 109
SWIDTH 852 0
DWIDTH 24 0
BBX 24 14 0 0
BITMAP
08ADF117CEEA1029DFD70000
027FF7C624DFC7D525EF8000
002FFC10005FFC20007FE000
002FF300002FF400003FF200
002FF300001FF400002FF300
002FF300001FF400002FF300
002FF300001FF400002FF300
002FF300001FF400002FF300
002FF300001FF400002FF300
002FF300001FF400002FF300
002FF300001FF400002FF300
003FF400002FF500003FF400
029FFA30029FFB3102AFFA20
2FFFFFF44FFFFFF62FFFFFF3
ENDCHAR
STARTCHAR n
ENCODING 110
SWIDTH 576 0
DWIDTH 16 0
BBX 16 14 0 0
BITMAP
048BF205CEE91000
1DFFF29FDFFFA000
004FFC9101BFF200
002FF700003FF500
002FF300000EF700
002FF300000DF700
002FF300000DF700
002FF300000DF700
002FF300000DF700
002FF300000DF700
002FF300000DF700
003FF300000DF800
028FF920025FFC31
2FFFFFF50EFFFFF8
ENDCHAR
STARTCHAR o
ENCODING 111
SWIDTH 514 0
DWIDTH 14 0
BBX 13 14 1 0
BITMAP
0006BEFD930000
01CF9326EF6000
0BF800004FF400
5FF100000CFC00
AFB0000006FF20
EF90000004FF50
FF90000003FF60
FF90000003FF60
EFA0000003FF40
BFD0000005FF10
6FF2000009FB00
0CFA00001EF200
02DFA324CE5000
0017CEED920000
ENDCHAR
STARTCHAR p
ENCODING 112
SWIDTH 537 0
DWIDTH 15 0
BBX 15 20 0 -6
BITMAP
159CE018DEC50000
3AEFE2DFFFFF7000
006FEC7104DFF200
005FF400003FF900
005FF000000CFD00
005FF0000009FF00
005FF0000008FF10
005FF0000008FE00
005FF0000008FD00
005FF000000BF800
005FF000001EF300
005FF600008F8000
005FFF9328F90000
005FF6CEEB500000
005FF00000000000
005FF00000000000
005FF00000000000
006FF10000000000
13CFF93100000000
6FFFFFFB00000000
ENDCHAR
STARTCHAR q
ENCODING 113
SWIDTH 521 0
DWIDTH 15 0
BBX 15 20 0 -6
BITMAP
00004BDED83E5000
0009F8326EFF5000
008F600005FF5000
03FC000000FF5000
08F8000000FF5000
0DF6000000FF5000
0FF5000000FF5000
1FF6000000FF5000
0FF8000000FF5000
0DFC000000FF5000
0AFF400000FF5000
03FFE6214CFF5000
008FFFFFE5FF5000
0006CFE920FF5000
0000000000FF5000
0000000000FF5000
0000000000FF5000
0000000001FF6000
0000000139FFB300
00000009FFFFFF30
ENDCHAR
STARTCHAR r
ENCODING 114
SWIDTH 380 0
DWIDTH 11 0
BBX 11 14 0 0
BITMAP
037BF209ED20
0BDFF2AFFF60
003FF9A3BE20
002FFC000000
002FF4000000
002FF3000000
002FF3000000
002FF3000000
002FF3000000
002FF3000000
002FF3000000
003FF4000000
028FFB310000
3FFFFFFC0000
ENDCHAR
STARTCHAR s
ENCODING 115
SWIDTH 395 0
DWIDTH 11 0
BBX 10 14 1 0
BITMAP
02ADFD8860
4FC425DF60
BF30002F70
DF40000A70
BFD3000670
5FFF810000
07FFFE6000
003BFFFB10
00004CFFB0
C00000AFF3
D400003FF4
DB00002FF2
DFB424BF90
C6AEFEB600
ENDCHAR
STARTCHAR t
ENCODING 116
SWIDTH 315 0
DWIDTH 9 0
BBX 8 18 1 0
BITMAP
001D0000
008E0000
02EE0000
1CFE0000
CFFFFFF1
17FE1110
06FE0000
06FE0000
06FE0000
06FE0000
06FE0000
06FE0000
06FE0000
06FE0000
06FE0000
05FF0002
02FF7295
005DFC40
ENDCHAR
STARTCHAR u
ENCODING 117
SWIDTH 570 0
DWIDTH 16 0
BBX 16 14 0 0
BITMAP
3ACED0004ABDF200
26DFD00026CFF200
008FD000003FF200
007FD000002FF200
007FD000002FF200
007FD000002FF200
007FD000002FF200
007FD000002FF200
007FD000002FF200
006FE000002FF200
005FF000002FF200
002FF400009FF300
000AFE524C9FF700
00019EFD921FDC91
ENDCHAR
STARTCHAR v
ENCODING 118
SWIDTH 481 0
DWIDTH 13 0
BBX 15 14 -1 0
BITMAP
5FFFFF8000EFFFE0
14EFF5100029FB20
006FF3000007F100
001EF900000CA000
0009FE00003F3000
0003FF50008C0000
0000CFA000E60000
00006FF104E10000
00001FF60A900000
00000AFC1F300000
000004FF7C000000
000000DFF6000000
0000008FE1000000
0000002F90000000
ENDCHAR
STARTCHAR w
ENCODING 119
SWIDTH 749 0
DWIDTH 21 0
BBX 23 14 -1 0
BITMAP
7FFFFF808FFFFF5008FFFF50
14EFF51015EFF300014FE410
006FF300008FF100001F7000
001EF900002FF500005F1000
0009FE00001FFB0000AA0000
0003FF50006EFF1001E50000
0000CFB000C6EF7005E00000
00006FF203E19FC00A800000
00001FF709903FF21F300000
00000AFD0E300DF86C000000
000004FF7C0008FCB6000000
000000DFF60002FFF1000000
0000007FE10000CFA0000000
0000002F9000006F40000000
ENDCHAR
STARTCHAR x
ENCODING 120
SWIDTH 479 0
DWIDTH 13 0
BBX 15 14 -1 0
BITMAP
0AFFFFF509FFFF00
016FFF4101AFA300
0007FF4000BB0000
0000BFD105D10000
00002EF71D300000
000006FEB7000000
000000AFE1000000
000000AFFA000000
000006D4FF500000
00003F40AFE20000
0001D8001EFB0000
000AD10006FF7000
03AF810014FFF610
1FFFF9005FFFFF80
ENDCHAR
STARTCHAR y
ENCODING 121
SWIDTH 483 0
DWIDTH 14 0
BBX 15 20 -1 -6
BITMAP
5FFFFFA000EFFFC0
14EFF5100029F920
007FF4000008E100
001EFA00000D8000
0008FF20003F2000
0002FF80008C0000
00009FE100D60000
00002FF704E10000
00000AFD09A00000
000003FF5E400000
000000BFDD000000
0000005FF7000000
0000000DF2000000
0000000CB0000000
0000002F50000000
0000008D00000000
000002F600000000
06C94CD000000000
0CFFFE3000000000
05EEB30000000000
ENDCHAR
STARTCHAR z
ENCODING 122
SWIDTH 458 0
DWIDTH 13 0
BBX 12 14 0 0
BITMAP
08FFFFFFFFFB
09F731119FF4
0AA00003FF90
0A50000CFE10
0210007FF500
000002FFA000
00000CFE1000
00007FF50000
0002EFB00000
000BFE20001A
006FF600005C
01EFB00000BC
0AFF53335AFB
2FFFFFFFFFFA
ENDCHAR
STARTCHAR braceleft
ENCODING 123
SWIDTH 327 0
DWIDTH 9 0
BBX 8 28 0 -7
BITMAP
000039CC
0006FD53
001EF200
003FC000
004FC000
004FD000
003FE000
001FF100
000FF200
000DF200
000CF100
000DC000
028E4000
4FD20000
28DA1000
001EA000
000CF100
000DF200
000EF200
001FF100
002FF000
003FD000
004FC000
004FC000
001FE100
0008FA20
00006CFD
00000001
ENDCHAR
STARTCHAR bar
ENCODING 124
SWIDTH 267 0
DWIDTH 7 0
BBX 3 26 2 -6
BITMAP
1F80
1F80
1F80
1F80
1F80
1F80
1F80
1F80
1F80
1F80
1F80
1F80
1F80
1F80
1F80
1F80
1F80
1F80
1F80
1F80
1F80
1F80
1F80
1F80
1F80
1F80
ENDCHAR
STARTCHAR braceright
ENCODING 125
SWIDTH 327 0
DWIDTH 9 0
BBX 8 28 1 -7
BITMAP
ADA40000
25CF7000
001EF200
000AF600
000AF700
000AF600
000CF500
000DF300
000FF200
000FF000
000EE000
000AF100
0002EA30
00001BF7
00009E93
0007F300
000DE000
000FF000
000FF100
000EF300
000CF400
000BF600
000AF700
000AF600
000DF300
029FA000
BFD70000
11000000
ENDCHAR
STARTCHAR asciitilde
ENCODING 126
SWIDTH 557 0
DWIDTH 16 0
BBX 14 6 1 5
BITMAP
00000000000020
019CC8200002F8
1DFFFFF9313CF3
8F8116DFFFFF90
EC000006CED800
22000000000000
ENDCHAR
STARTCHAR uni00A0
ENCODING 160
SWIDTH 235 0
DWIDTH 7 0
BBX 1 1 0 0
BITMAP
00
ENDCHAR
STARTCHAR exclamdown
ENCODING 161
SWIDTH 282 0
DWIDTH 8 0
BBX 4 19 2 -5
BITMAP
4ED4
AFF9
4ED3
0000
0220
0980
0A90
0BB0
0DC0
0ED0
0FE0
1FF1
3FF2
4FF3
5FF4
7FF5
7FF6
7FF6
2DD2
ENDCHAR
STARTCHAR cent
ENCODING 162
SWIDTH 495 0
DWIDTH 14 0
BBX 12 20 1 -1
BITMAP
000000F30000
000001F20000
000002F41000
0004CEFFFA10
008E43F4FFB0
06F503F0BFF1
1ED004F03ED0
5F9004E00000
8F8005D00000
AF8005D00000
BFA006C00000
9FE006C00000
7FF407B00012
2FFD17B001C4
09FFDBA14CA0
00BFFFFFFD10
0006CFFD9100
000009900000
00000A800000
000005400000
ENDCHAR
STARTCHAR sterling
ENCODING 163
SWIDTH 495 0
DWIDTH 14 0
BBX 14 19 0 0
BITMAP
0000004BEEC500
000006D42AFF70
00003F5000CFD0
0000AF30002C80
0000EF20000000
0001FF30000000
0003FF30000000
0002FF50000000
0001FF70000000
08EEFFFEEE6000
0122DFB2221000
0000BFB0000000
00009FB0000000
00008F90000000
00007F70000000
19DEDF30000063
7B34CFE72139D0
8B25E9FFFFFF40
2CFC403AEEB300
ENDCHAR
STARTCHAR currency
ENCODING 164
SWIDTH 617 0
DWIDTH 17 0
BBX 15 16 1 0
BITMAP
1500000000000230
9F70000000003ED0
1BF85ADFEC75EE30
00AFFB4239FFD200
005FA000005FA000
00CD10000009F200
02F700000003F600
04F400000000F800
04F400000000F800
02F700000002F600
00DC00000008F300
006F8000003FB000
008FFA2016EFC100
0AFA6CFFFD87FD20
9F90000210005FD0
2700000000000450
ENDCHAR
STARTCHAR yen
ENCODING 165
SWIDTH 495 0
DWIDTH 14 0
BBX 14 18 0 0
BITMAP
EEEEEE200DEEEC
4EFFC30002AF92
04FFD000009C00
00BFF50001E400
002FFD0007C000
0008FF700E4000
0001EFE16C0000
00005FF6C50000
00000CFED00000
00DEEFFFFEEE00
002225FF722200
000003FF600000
000003FF600000
00DEEEFFFEEE00
002225FF722200
000004FF700000
00013AFFD31000
0008FFFFFFC000
ENDCHAR
STARTCHAR brokenbar
ENCODING 166
SWIDTH 267 0
DWIDTH 7 0
BBX 3 20 2 0
BITMAP
1F80
1F80
1F80
1F80
1F80
1F80
1F80
1F80
0000
0000
0000
0000
1F80
1F80
1F80
1F80
1F80
1F80
1F80
1F80
ENDCHAR
STARTCHAR section
ENCODING 167
SWIDTH 491 0
DWIDTH 14 0
BBX 10 25 2 -6
BITMAP
002AEEC700
04E9324D90
0CC00008F2
1FB0000CF3
0FE1000DE1
0BFB000010
03FFB10000
006FFD2000
006CFFE300
0B506FFE20
6D0005FFC0
9D00004FF5
AF400007F8
7FE20000E9
1EFD2000E7
06FFD205D1
006FFEA910
0005FFE200
00003EFD10
130002EF80
BF40005FC0
DF20000FC0
BE00001F90
3F9225CD20
03BEEC8100
ENDCHAR
STARTCHAR dieresis
ENCODING 168
SWIDTH 392 0
DWIDTH 11 0
BBX 11 3 0 16
BITMAP
0AE80008E900
2FFE000FFF10
0AE80008E900
ENDCHAR
STARTCHAR copyright
ENCODING 169
SWIDTH 781 0
DWIDTH 22 0
BBX 20 21 1 -1
BITMAP
0000005ADEEC94000000
00003DC742348DC20000
0006E5000000007E4000
004E300000000004E200
01D50000000000007C00
08A00018DEFC7E000C60
0D3001DE6237EF0005C0
3E0009F600005F0001F1
5B000EF200000E0000D3
6A001FF00000000000C4
79001FF00000000000B5
6A000FF20000000000C4
3D000AF80000010000F1
0E2002EF71004C3004D0
0980002AEFFFA2000A70
02E30000022000005E10
006C100000000002E400
0009D3000000004E7000
00006E9410015BE40000
0000028DFFFFC7100000
00000000122000000000
ENDCHAR
STARTCHAR ordfeminine
ENCODING 170
SWIDTH 410 0
DWIDTH 11 0
BBX 11 11 1 7
BITMAP
03ACEE910000
3FB008F90000
8F8000FF0000
3B3000EF2000
000002EF2000
005ADBEF2000
2CE610DF2000
BF5000DF2000
FF2000DF2000
CF7003CF3200
2BEC815ED910
ENDCHAR
STARTCHAR guillemotleft
ENCODING 171
SWIDTH 517 0
DWIDTH 14 0
BBX 13 12 0 1
BITMAP
00000020000020
000006C00008B0
00007E20008D10
0007F50008F400
007F90009F7000
08FC0009FB0000
1FF7002FF60000
04EF3005FE2000
003ED1004EC000
0003EB0004E900
00002D70003E50
000002C10003B0
ENDCHAR
STARTCHAR logicalnot
ENCODING 172
SWIDTH 720 0
DWIDTH 20 0
BBX 17 10 1 2
BITMAP
4EEEEEEEEEEEEEEEC0
4FFFFFFFFFFFFFFFD0
000000000000002FD0
000000000000002FD0
000000000000002FD0
000000000000002FD0
000000000000002FD0
000000000000002FD0
000000000000002FD0
000000000000001760
ENDCHAR
STARTCHAR uni00AD
ENCODING 173
SWIDTH 315 0
DWIDTH 9 0
BBX 7 2 1 6
BITMAP
9DDDDD70
BFFFFF80
ENDCHAR
STARTCHAR registered
ENCODING 174
SWIDTH 413 0
DWIDTH 12 0
BBX 10 11 1 11
BITMAP
0028886100
0570003910
3700000190
915B674073
901F15E037
900F9C3028
900F2E3037
911F17C073
377B81B7A0
0670003A20
0038886100
ENDCHAR
STARTCHAR macron
ENCODING 175
SWIDTH 350 0
DWIDTH 10 0
BBX 9 2 0 15
BITMAP
2EEEEEEEE0
0222222220
ENDCHAR
STARTCHAR degree
ENCODING 176
SWIDTH 409 0
DWIDTH 11 0
BBX 9 10 1 11
BITMAP
005CED8100
08F835DC10
2F80002F80
6F20000AD0
8F000009F0
7F20000AE0
3F60001EA0
0AE502BE20
008EFFC300
0000210000
ENDCHAR
STARTCHAR plusminus
ENCODING 177
SWIDTH 720 0
DWIDTH 20 0
BBX 18 18 1 -1
BITMAP
000000007800000000
00000000DF00000000
00000000DF00000000
00000000DF00000000
00000000DF00000000
00000000DF00000000
4EEEEEEEFFEEEEEEE6
4FFFFFFFFFFFFFFFF6
00000000DF00000000
00000000DF00000000
00000000DF00000000
00000000DF00000000
00000000DF00000000
00000000DF00000000
000000006600000000
000000000000000000
4EEEEEEEEEEEEEEEE6
4FFFFFFFFFFFFFFFF6
ENDCHAR
STARTCHAR twosuperior
ENCODING 178
SWIDTH 373 0
DWIDTH 10 0
BBX 10 13 0 7
BITMAP
003BEEC600
04FEDFFF90
0C5001AFF2
1300001FF4
0000000FF2
0000003FA0
000000AC10
000008C100
00008C1000
0009B10006
00AA00005B
1BFDDDDDF8
4FFFFFFFF5
ENDCHAR
STARTCHAR threesuperior
ENCODING 179
SWIDTH 374 0
DWIDTH 10 0
BBX 9 13 1 7
BITMAP
04BEEC5000
4FEDFFF400
B4001BF800
000008F300
00017B3000
00CFFC5000
00016EF900
000002EF30
000000AF60
0000009F50
100000CE10
EC4007E300
AEFCB71000
ENDCHAR
STARTCHAR acute
ENCODING 180
SWIDTH 222 0
DWIDTH 6 0
BBX 5 5 1 15
BITMAP
028830
0AFD20
1FE300
8F4000
E60000
ENDCHAR
STARTCHAR uni00B5
ENCODING 181
SWIDTH 556 0
DWIDTH 16 0
BBX 15 20 1 -6
BITMAP
0EFA00000BFB0000
0EF800000CF90000
0EF600000CF60000
0DF400000CF40000
0DF200000CF10000
0DF000000DE00000
0DD000001FB00000
0DB000005F900000
0DB00000AFA00000
0ED00002CCC00000
1FF5000A8BE00010
3FEE539F39F82860
5F7EFFFA05FFFD10
7F64DE9100BEB200
8F70000000000000
9F70000000000000
AF80000000000000
AFA0000000000000
BFB0000000000000
AB50000000000000
ENDCHAR
STARTCHAR paragraph
ENCODING 182
SWIDTH 605 0
DWIDTH 17 0
BBX 15 24 1 -5
BITMAP
0017BEFFFFFFFE30
02DF83BF44FF4000
0BF700BF22FC0000
2FF100BF22FB0000
5FE000BF22FB0000
6FE000BF22FB0000
6FE000BF22FB0000
4FF100BF22FB0000
0EF400BF22FB0000
06FB00BF22FB0000
005EC6CF22FB0000
000047DF22FB0000
000000BF22FB0000
000000BF22FB0000
000000BF22FB0000
000000BF22FB0000
000000BF22FB0000
000000BF22FB0000
000000BF22FB0000
000000BF22FB0000
000000CF22FC0000
000003FF22FF3000
0003CFFF22FFFD30
0000111100111100
ENDCHAR
STARTCHAR periodcentered
ENCODING 183
SWIDTH 282 0
DWIDTH 8 0
BBX 4 3 2 6
BITMAP
4ED3
AFF8
5ED3
ENDCHAR
STARTCHAR cedilla
ENCODING 184
SWIDTH 247 0
DWIDTH 7 0
BBX 5 8 1 -7
BITMAP
022000
094000
0C1000
0EFD60
000BF0
301BE0
9FFD40
011000
ENDCHAR
STARTCHAR onesuperior
ENCODING 185
SWIDTH 343 0
DWIDTH 10 0
BBX 8 13 1 7
BITMAP
269DE000
98AFE000
002FE000
002FE000
002FE000
002FE000
002FE000
002FE000
002FE000
002FE000
002FE000
006FF300
8EFFFFE5
ENDCHAR
STARTCHAR ordmasculine
ENCODING 186
SWIDTH 432 0
DWIDTH 12 0
BBX 12 11 0 7
BITMAP
0006CDDC7000
00AF5004FC10
07F800008F90
0DF300003FE0
1FF100001FF3
2FF100000FF3
1FF200001FF2
0DF400002FE0
07F900007F80
00BF5004EB00
0006CDDC7000
ENDCHAR
STARTCHAR guillemotright
ENCODING 187
SWIDTH 517 0
DWIDTH 14 0
BBX 13 12 1 1
BITMAP
12000011000000
4D20005C100000
08D20009C10000
00BD2001CC1000
001EE3002ED200
0004FE3005FD20
0000DF9001EF70
0009FB100AFA00
005FA0007F9000
02EA0004F80000
1CA0001D800000
59000078000000
ENDCHAR
STARTCHAR onequarter
ENCODING 188
SWIDTH 861 0
DWIDTH 24 0
BBX 23 21 1 -1
BITMAP
0004300000000001C5000000
38EF900000000009D0000000
BAEF90000000003F40000000
007F9000000000BB00000000
006F9000000005F200000000
006F900000000D8000000000
006F900000007E1000000000
006F90000002E60000000000
006F9000000AC000005D5000
006F9000003F300002EF6000
006FA00000CA00000CEF6000
01AFD10006E200008B9F6000
9FFFFFD01E700004E28F6000
122222208D00002E508F6000
00000002F50000CA008F6000
0000000BB00008E1008F6000
0000005F30002FFEEEFFFE50
000000D900000222229F7210
000007E100000000008F6000
00001E6000000000008F6000
000059000000000000110000
ENDCHAR
STARTCHAR onehalf
ENCODING 189
SWIDTH 889 0
DWIDTH 25 0
BBX 24 21 1 -1
BITMAP
0000000000000002E6000000
26AE90000000000AC0000000
98DF90000000004F30000000
007F9000000000CA00000000
006F9000000006E200000000
006F900000001E7000000000
006F900000008D0000000000
006F90000002F50000000000
006F9000000BB0007DEDA200
006F9000005F200BC99DFE20
006FA00000D800670000DF70
01AFD10007E1000000009F90
9FFFFFD02E6000000000AF60
12222220AC0000000001ED10
00000003F4000000000AE200
0000000CA000000001AC2000
0000006E200000001C910052
000001E700000003D60002E1
000008D00000004EEDDDDFD0
00002F50000000BFFFFFFFA0
000046000000000000000000
ENDCHAR
STARTCHAR threequarters
ENCODING 190
SWIDTH 861 0
DWIDTH 24 0
BBX 23 21 1 -1
BITMAP
0000000000000001C5000000
03ADEB5000000009D0000000
5B436EF40000003F40000000
800007F8000000BB00000000
000009F3000005F200000000
00028C3000000D8000000000
00DFFC5000007E1000000000
00247EF80002E60000000000
000003FF100AC000005E5000
000000DF303F300002EF6000
110000EE10CA00000CEF6000
EE6017F606E200009C9F6000
BFFFEA401E700005E28F6000
012100008D00002E608F6000
00000002F50000CA008F6000
0000000BB00008E1008F6000
0000005F30002FFEEEFFFE50
000000D900000222229F7210
000007E100000000008F6000
00001E6000000000008F6000
000059000000000000110000
ENDCHAR
STARTCHAR questiondown
ENCODING 191
SWIDTH 411 0
DWIDTH 12 0
BBX 11 20 0 -6
BITMAP
00005ED30000
0000AFF70000
00004ED20000
000000000000
000002100000
00000A600000
00000D500000
00006F200000
0002EA000000
000BF2000000
008F80000000
02FF10000000
0AFA00000000
0EF600007C30
2FF50000DFA0
1FF600009FB0
0CFA00006F80
04EF8102CD10
002AEFFE9100
000001200000
ENDCHAR
STARTCHAR Agrave
ENCODING 192
SWIDTH 718 0
DWIDTH 20 0
BBX 20 24 0 0
BITMAP
00000018870000000000
00000007FF8000000000
000000003CF600000000
00000000007E40000000
00000000000000000000
000000000DA000000000
000000004FF200000000
00000000BFF800000000
00000002FEFE10000000
00000008E6FF60000000
0000001E81EFD0000000
0000006F30AFF4000000
000000CC004FFB000000
000003F6000DFF200000
00000AF10008FF900000
00001FA00002FFE10000
00007F400000CFF60000
0000DFEEEEEEFFFD0000
0005F82222223EFF4000
000BE100000008FFB000
003F8000000001FFF300
00AF3000000000AFFA00
28FF6200000013CFFF82
EFFFFF0000008FFFFFFF
ENDCHAR
STARTCHAR Aacute
ENCODING 193
SWIDTH 718 0
DWIDTH 20 0
BBX 20 24 0 0
BITMAP
00000000017870000000
000000000AFE60000000
000000008FB200000000
00000005E50000000000
00000000000000000000
000000000DA000000000
000000004FF200000000
00000000BFF800000000
00000002FEFE10000000
00000008E6FF60000000
0000001E81EFD0000000
0000006F30AFF4000000
000000CC004FFB000000
000003F6000DFF200000
00000AF10008FF900000
00001FA00002FFE10000
00007F400000CFF60000
0000DFEEEEEEFFFD0000
0005F82222223EFF4000
000BE100000008FFB000
003F8000000001FFF300
00AF3000000000AFFA00
28FF6200000013CFFF82
EFFFFF0000008FFFFFFF
ENDCHAR
STARTCHAR Acircumflex
ENCODING 194
SWIDTH 718 0
DWIDTH 20 0
BBX 20 24 0 0
BITMAP
000000007FF500000000
00000004FEEE20000000
0000002EC12DD1000000
000000C90001AA000000
00000000000000000000
000000000DA000000000
000000004FF200000000
00000000BFF800000000
00000002FEFE10000000
00000008E6FF60000000
0000001E81EFD0000000
0000006F30AFF4000000
000000CC004FFB000000
000003F6000DFF200000
00000AF10008FF900000
00001FA00002FFE10000
00007F400000CFF60000
0000DFEEEEEEFFFD0000
0005F82222223EFF4000
000BE100000008FFB000
003F8000000001FFF300
00AF3000000000AFFA00
28FF6200000013CFFF82
EFFFFF0000008FFFFFFF
ENDCHAR
STARTCHAR Atilde
ENCODING 195
SWIDTH 718 0
DWIDTH 20 0
BBX 20 24 0 0
BITMAP
0000003CFC6006700000
000001DEEFFEEE200000
0000058005CFD4000000
00000000000000000000
00000000000000000000
000000000DA000000000
000000004FF200000000
00000000BFF800000000
00000002FEFE10000000
00000008E6FF60000000
0000001E81EFD0000000
0000006F30AFF4000000
000000CC004FFB000000
000003F6000DFF200000
00000AF10008FF900000
00001FA00002FFE10000
00007F400000CFF60000
0000DFEEEEEEFFFD0000
0005F82222223EFF4000
000BE100000008FFB000
003F8000000001FFF300
00AF3000000000AFFA00
28FF6200000013CFFF82
EFFFFF0000008FFFFFFF
ENDCHAR
STARTCHAR Adieresis
ENCODING 196
SWIDTH 718 0
DWIDTH 20 0
BBX 20 23 0 0
BITMAP
000005EC1003DD300000
00000BFF5008FF800000
000005EC1003DD300000
00000000000000000000
000000000DA000000000
000000004FF200000000
00000000BFF800000000
00000002FEFE10000000
00000008E6FF60000000
0000001E81EFD0000000
0000006F30AFF4000000
000000CC004FFB000000
000003F6000DFF200000
00000AF10008FF900000
00001FA00002FFE10000
00007F400000CFF60000
0000DFEEEEEEFFFD0000
0005F82222223EFF4000
000BE100000008FFB000
003F8000000001FFF300
00AF3000000000AFFA00
28FF6200000013CFFF82
EFFFFF0000008FFFFFFF
ENDCHAR
STARTCHAR Aring
ENCODING 197
SWIDTH 718 0
DWIDTH 20 0
BBX 20 25 0 0
BITMAP
000000019DD800000000
0000000AB34D70000000
0000000E4008B0000000
0000000C901C90000000
00000002CFFB10000000
00000000011000000000
000000000DA000000000
000000004FF200000000
00000000BFF800000000
00000002FEFE10000000
00000008E6FF60000000
0000001E81EFD0000000
0000006F30AFF4000000
000000CC004FFB000000
000003F6000DFF200000
00000AF10008FF900000
00001FA00002FFE10000
00007F400000CFF60000
0000DFEEEEEEFFFD0000
0005F82222223EFF4000
000BE100000008FFB000
003F8000000001FFF300
00AF3000000000AFFA00
28FF6200000013CFFF82
EFFFFF0000008FFFFFFF
ENDCHAR
STARTCHAR AE
ENCODING 198
SWIDTH 894 0
DWIDTH 25 0
BBX 26 19 -1 0
BITMAP
000000000DFFFFFFFFFFFFFF30
00000000007FBFF6444458EF40
00000000009B7FF20000003F40
0000000002E37FF20000000C50
0000000009A07FF20000000530
000000003F207FF20000000000
00000000B9007FF200000D2000
00000004E2007FF200000F2000
0000000C80007FF200019F2000
0000005FFEEEFFFEEEFFFF2000
000000D922228FF42224AF2000
000007E100007FF200000F2000
00001E8000007FF200000D2000
00008E1000007FF20000000031
0002E60000007FF200000000E1
0009D00000007FF200000005E0
004F900000008FF20000001DC0
15EFC3100024EFF6444468EFA0
9FFFFF7002FFFFFFFFFFFFFF70
ENDCHAR
STARTCHAR Ccedilla
ENCODING 199
SWIDTH 670 0
DWIDTH 19 0
BBX 17 26 1 -7
BITMAP
0000038CEFED944F10
0001AFD73237DFFF10
002DFA1000001CFF10
00CFC000000001EF10
07FF30000000008F10
0EFD00000000003F10
3FF900000000000F10
7FF600000000000000
8FF500000000000000
9FF500000000000000
8FF600000000000000
6FF800000000000000
3FFB00000000000000
0DFF10000000000000
08FFA0000000000120
01DFF8000000003D60
003EFFB5000039F800
0002CFFFFEDFFE5000
000005ADFFEB710000
00000001C000000000
00000003A000000000
00000006FFB1000000
0000000003F8000000
0000002204F7000000
0000003DFFA1000000
000000002100000000
ENDCHAR
STARTCHAR Egrave
ENCODING 200
SWIDTH 626 0
DWIDTH 18 0
BBX 16 24 1 0
BITMAP
0000088700000000
000007FF90000000
0000002CF6000000
000000007E400000
0000000000000000
DFFFFFFFFFFFFFB0
01BFF7444456AFB0
005FF400000009C0
004FF400000003D0
004FF40000000020
004FF40000059000
004FF40000069000
004FF40000099000
004FF400005E9000
004FFFEEEFFF9000
004FF622234C9000
004FF40000059000
004FF40000000000
004FF40000000038
004FF40000000089
004FF400000000E7
005FF400000008F4
00AFF7444457BFF2
DFFFFFFFFFFFFFF0
ENDCHAR
STARTCHAR Eacute
ENCODING 201
SWIDTH 626 0
DWIDTH 18 0
BBX 16 24 1 0
BITMAP
0000000078800000
00000009FE600000
0000007FB2000000
000005E600000000
0000000000000000
DFFFFFFFFFFFFFB0
01BFF7444456AFB0
005FF400000009C0
004FF400000003D0
004FF40000000020
004FF40000059000
004FF40000069000
004FF40000099000
004FF400005E9000
004FFFEEEFFF9000
004FF622234C9000
004FF40000059000
004FF40000000000
004FF40000000038
004FF40000000089
004FF400000000E7
005FF400000008F4
00AFF7444457BFF2
DFFFFFFFFFFFFFF0
ENDCHAR
STARTCHAR Ecircumflex
ENCODING 202
SWIDTH 626 0
DWIDTH 18 0
BBX 16 24 1 0
BITMAP
0000006FF6000000
000003FEEF300000
00001DC22CD10000
0000B90001AA0000
0000000000000000
DFFFFFFFFFFFFFB0
01BFF7444456AFB0
005FF400000009C0
004FF400000003D0
004FF40000000020
004FF40000059000
004FF40000069000
004FF40000099000
004FF400005E9000
004FFFEEEFFF9000
004FF622234C9000
004FF40000059000
004FF40000000000
004FF40000000038
004FF40000000089
004FF400000000E7
005FF400000008F4
00AFF7444457BFF2
DFFFFFFFFFFFFFF0
ENDCHAR
STARTCHAR Edieresis
ENCODING 203
SWIDTH 626 0
DWIDTH 18 0
BBX 16 23 1 0
BITMAP
0004EC2002DE3000
000AFF6007FF9000
0004EC2002DE3000
0000000000000000
DFFFFFFFFFFFFFB0
01BFF7444456AFB0
005FF400000009C0
004FF400000003D0
004FF40000000020
004FF40000059000
004FF40000069000
004FF40000099000
004FF400005E9000
004FFFEEEFFF9000
004FF622234C9000
004FF40000059000
004FF40000000000
004FF40000000038
004FF40000000089
004FF400000000E7
005FF400000008F4
00AFF7444457BFF2
DFFFFFFFFFFFFFF0
ENDCHAR
STARTCHAR Igrave
ENCODING 204
SWIDTH 357 0
DWIDTH 10 0
BBX 9 24 0 0
BITMAP
0088700000
007EF90000
0002BF7000
000006E500
0000000000
1FFFFFFFF0
024DFFC420
0006FF5000
0004FF4000
0004FF4000
0004FF4000
0004FF4000
0004FF4000
0004FF4000
0004FF4000
0004FF4000
0004FF4000
0004FF4000
0004FF4000
0004FF4000
0004FF4000
0006FF6000
024CFFC420
1FFFFFFFF0
ENDCHAR
STARTCHAR Iacute
ENCODING 205
SWIDTH 357 0
DWIDTH 10 0
BBX 9 24 0 0
BITMAP
0000078800
00009FF700
0006FB2000
004E600000
0000000000
1FFFFFFFF0
024DFFC420
0006FF5000
0004FF4000
0004FF4000
0004FF4000
0004FF4000
0004FF4000
0004FF4000
0004FF4000
0004FF4000
0004FF4000
0004FF4000
0004FF4000
0004FF4000
0004FF4000
0006FF6000
024CFFC420
1FFFFFFFF0
ENDCHAR
STARTCHAR Icircumflex
ENCODING 206
SWIDTH 357 0
DWIDTH 10 0
BBX 9 24 0 0
BITMAP
0005FF6000
003EEEF300
01DC22CD10
0BA10009B0
0000000000
1FFFFFFFF0
024DFFC420
0006FF5000
0004FF4000
0004FF4000
0004FF4000
0004FF4000
0004FF4000
0004FF4000
0004FF4000
0004FF4000
0004FF4000
0004FF4000
0004FF4000
0004FF4000
0004FF4000
0006FF6000
024CFFC420
1FFFFFFFF0
ENDCHAR
STARTCHAR Idieresis
ENCODING 207
SWIDTH 357 0
DWIDTH 10 0
BBX 10 23 0 0
BITMAP
4ED2002DE4
9FF7006FFA
4ED2002DE4
0000000000
1FFFFFFFF0
024DFFC420
0006FF5000
0004FF4000
0004FF4000
0004FF4000
0004FF4000
0004FF4000
0004FF4000
0004FF4000
0004FF4000
0004FF4000
0004FF4000
0004FF4000
0004FF4000
0004FF4000
0006FF6000
024CFFC420
1FFFFFFFF0
ENDCHAR
STARTCHAR Eth
ENCODING 208
SWIDTH 737 0
DWIDTH 21 0
BBX 19 19 1 0
BITMAP
CFFFFFFFEEB940000000
009FF93347BFFD500000
003FF7000002CFF90000
002FF70000000BFF7000
002FF700000002EFF200
002FF7000000009FF800
002FF7000000004FFD00
002FF7000000001FFF10
002FF7000000000EFF20
DEEFFFEEEE30000DFF30
224FF8222200000EFF20
002FF7000000000FFF10
002FF7000000002FFD00
002FF7000000005FF900
002FF700000000BFF200
002FF700000006FF8000
003FF70000006FF90000
008FF822358DFE600000
CEFFFFFFFDC940000000
ENDCHAR
STARTCHAR Ntilde
ENCODING 209
SWIDTH 742 0
DWIDTH 21 0
BBX 20 24 0 0
BITMAP
00000006DEA300B20000
0000004FEFFFEEB00000
000000A4018DEB200000
00000000000000000000
00000000000000000000
3FFFFD10000009FFFFFF
039FFFA00000013CFF72
000BFFF700000002FB00
0008FFFF30000000F800
0008CAFFD1000000E700
0008C1DFFA000000E700
0008C03EFF600000E700
0008C005FFF30000E700
0008C0009FFD1000E700
0008C0000CFFA000E700
0008C00002EFF600E700
0008C000004FFF30E700
0008C0000007FFD1E700
0008C0000000BFFAE700
0009C00000001DFFF700
0009D000000003FFF700
000BE0000000006FF700
026FF93100000009F700
3FFFFFF500000000C700
ENDCHAR
STARTCHAR Ograve
ENCODING 210
SWIDTH 738 0
DWIDTH 21 0
BBX 19 24 1 0
BITMAP
00000058820000000000
0000003DFD1000000000
000000018FB000000000
0000000003C900000000
00000000000000000000
0000049CEFEC82000000
0001BFD63249FF800000
002DFA0000003EFB1000
00CFC000000004FF9000
07FF4000000000AFF300
0EFD00000000004FFA00
3FFA00000000000EFE00
6FF700000000000CFF20
8FF600000000000BFF30
9FF600000000000AFF40
8FF600000000000BFF30
6FF800000000000CFF10
3FFA00000000000EFD00
0EFE00000000003FF800
08FF50000000008FE200
00DFC000000001EF6000
003EFA0000001CF90000
0002CFC63237DF700000
0000049DEFEC82000000
ENDCHAR
STARTCHAR Oacute
ENCODING 211
SWIDTH 738 0
DWIDTH 21 0
BBX 19 24 1 0
BITMAP
00000000058830000000
000000004FFA10000000
00000002EE5000000000
0000001D910000000000
00000000000000000000
0000049CEFEC82000000
0001BFD63249FF800000
002DFA0000003EFB1000
00CFC000000004FF9000
07FF4000000000AFF300
0EFD00000000004FFA00
3FFA00000000000EFE00
6FF700000000000CFF20
8FF600000000000BFF30
9FF600000000000AFF40
8FF600000000000BFF30
6FF800000000000CFF10
3FFA00000000000EFD00
0EFE00000000003FF800
08FF50000000008FE200
00DFC000000001EF6000
003EFA0000001CF90000
0002CFC63237DF700000
0000049DEFEC82000000
ENDCHAR
STARTCHAR Ocircumflex
ENCODING 212
SWIDTH 738 0
DWIDTH 21 0
BBX 19 24 1 0
BITMAP
00000002EFB000000000
0000000CFDF800000000
0000009E509F40000000
000006D20005D2000000
00000000000000000000
0000049CEFEC82000000
0001BFD63249FF800000
002DFA0000003EFB1000
00CFC000000004FF9000
07FF4000000000AFF300
0EFD00000000004FFA00
3FFA00000000000EFE00
6FF700000000000CFF20
8FF600000000000BFF30
9FF600000000000AFF40
8FF600000000000BFF30
6FF800000000000CFF10
3FFA00000000000EFD00
0EFE00000000003FF800
08FF50000000008FE200
00DFC000000001EF6000
003EFA0000001CF90000
0002CFC63237DF700000
0000049DEFEC82000000
ENDCHAR
STARTCHAR Otilde
ENCODING 213
SWIDTH 738 0
DWIDTH 21 0
BBX 19 24 1 0
BITMAP
0000009EE8201C000000
000008FEFFFDF7000000
00000C103AEE90000000
00000000000000000000
00000000000000000000
0000049CEFEC82000000
0001BFD63249FF800000
002DFA0000003EFB1000
00CFC000000004FF9000
07FF4000000000AFF300
0EFD00000000004FFA00
3FFA00000000000EFE00
6FF700000000000CFF20
8FF600000000000BFF30
9FF600000000000AFF40
8FF600000000000BFF30
6FF800000000000CFF10
3FFA00000000000EFD00
0EFE00000000003FF800
08FF50000000008FE200
00DFC000000001EF6000
003EFA0000001CF90000
0002CFC63237DF700000
0000049DEFEC82000000
ENDCHAR
STARTCHAR Odieresis
ENCODING 214
SWIDTH 738 0
DWIDTH 21 0
BBX 19 23 1 0
BITMAP
00001CE5000AE8000000
00004FFB002FFE000000
00001CE5000AE8000000
00000000000000000000
0000049CEFEC82000000
0001BFD63249FF800000
002DFA0000003EFB1000
00CFC000000004FF9000
07FF4000000000AFF300
0EFD00000000004FFA00
3FFA00000000000EFE00
6FF700000000000CFF20
8FF600000000000BFF30
9FF600000000000AFF40
8FF600000000000BFF30
6FF800000000000CFF10
3FFA00000000000EFD00
0EFE00000000003FF800
08FF50000000008FE200
00DFC000000001EF6000
003EFA0000001CF90000
0002CFC63237DF700000
0000049DEFEC82000000
ENDCHAR
STARTCHAR multiply
ENCODING 215
SWIDTH 720 0
DWIDTH 20 0
BBX 16 16 2 -1
BITMAP
3D300000000001C6
7FE3000000001DFA
08FE30000002DFA0
008FE300002DFA00
0008FE3002DFA000
00008FE32DFA0000
000008FEDFA00000
0000009FFB000000
000002DFFE300000
00002DFA8FE30000
0002DFA008FE3000
002DFA00008FE300
01DFA0000008FE30
1DFA000000008FE3
9FA00000000008FC
0700000000000071
ENDCHAR
STARTCHAR Oslash
ENCODING 216
SWIDTH 737 0
DWIDTH 21 0
BBX 19 20 1 -1
BITMAP
0000049DEFEB820B6000
0001BFC63249FFBD1000
002DFA0000004EFB0000
00CFC00000002EFF8000
07FF40000000C7BFF200
0EFD00000009B05FF900
3FF90000006D101FFD00
6FF7000003E3000DFF10
8FF600001D60000BFF30
9FF50000B900000BFF30
8FF60008C000000BFF20
7FF7004E2000000CFF10
4FFA02E40000000FFC00
1EFD1C800000003FF800
09FFCB000000008FE200
01EFF100000001EF6000
007FF90000001CF90000
02E8CFC63237EF700000
0A9005ADEFEC82000000
01000000000000000000
ENDCHAR
STARTCHAR Ugrave
ENCODING 217
SWIDTH 752 0
DWIDTH 21 0
BBX 21 24 0 0
BITMAP
0000000068710000000000
000000005EFB0000000000
0000000001AF9000000000
000000000005D700000000
0000000000000000000000
7FFFFFFF900005FFFFFF80
127FFF9310000028FFA310
000DFE0000000000DF1000
000BFD0000000000BE0000
000BFD0000000000AE0000
000BFD0000000000AE0000
000BFD0000000000AE0000
000BFD0000000000AE0000
000BFD0000000000AE0000
000BFD0000000000AE0000
000BFD0000000000AE0000
000BFD0000000000AE0000
000AFE0000000000BD0000
0009FF1000000000DB0000
0006FF5000000002F80000
0001FFD10000000AF20000
00009FFC400003AF900000
00000AFFFFDDEFF9000000
00000049DEFEC930000000
ENDCHAR
STARTCHAR Uacute
ENCODING 218
SWIDTH 752 0
DWIDTH 21 0
BBX 21 24 0 0
BITMAP
0000000000068820000000
00000000006FF810000000
0000000004FD3000000000
000000002E800000000000
0000000000000000000000
7FFFFFFF900005FFFFFF80
127FFF9310000028FFA310
000DFE0000000000DF1000
000BFD0000000000BE0000
000BFD0000000000AE0000
000BFD0000000000AE0000
000BFD0000000000AE0000
000BFD0000000000AE0000
000BFD0000000000AE0000
000BFD0000000000AE0000
000BFD0000000000AE0000
000BFD0000000000AE0000
000AFE0000000000BD0000
0009FF1000000000DB0000
0006FF5000000002F80000
0001FFD10000000AF20000
00009FFC400003AF900000
00000AFFFFDDEFF9000000
00000049DEFEC930000000
ENDCHAR
STARTCHAR Ucircumflex
ENCODING 219
SWIDTH 752 0
DWIDTH 21 0
BBX 21 24 0 0
BITMAP
0000000003FF9000000000
000000001DFDF500000000
00000000BD31AE30000000
00000008C10007D1000000
0000000000000000000000
7FFFFFFF900005FFFFFF80
127FFF9310000028FFA310
000DFE0000000000DF1000
000BFD0000000000BE0000
000BFD0000000000AE0000
000BFD0000000000AE0000
000BFD0000000000AE0000
000BFD0000000000AE0000
000BFD0000000000AE0000
000BFD0000000000AE0000
000BFD0000000000AE0000
000BFD0000000000AE0000
000AFE0000000000BD0000
0009FF1000000000DB0000
0006FF5000000002F80000
0001FFD10000000AF20000
00009FFC400003AF900000
00000AFFFFDDEFF9000000
00000049DEFEC930000000
ENDCHAR
STARTCHAR Udieresis
ENCODING 220
SWIDTH 752 0
DWIDTH 21 0
BBX 21 23 0 0
BITMAP
0000002DE4001CE6000000
0000007FF9004FFC000000
0000002DE4001CE6000000
0000000000000000000000
7FFFFFFF900005FFFFFF80
127FFF9310000028FFA310
000DFE0000000000DF1000
000BFD0000000000BE0000
000BFD0000000000AE0000
000BFD0000000000AE0000
000BFD0000000000AE0000
000BFD0000000000AE0000
000BFD0000000000AE0000
000BFD0000000000AE0000
000BFD0000000000AE0000
000BFD0000000000AE0000
000AFE0000000000BD0000
0009FF1000000000DB0000
0006FF5000000002F80000
0001FFD10000000AF20000
00009FFC400003AF900000
00000AFFFFDDEFF9000000
00000049DEFEC930000000
ENDCHAR
STARTCHAR Yacute
ENCODING 221
SWIDTH 647 0
DWIDTH 18 0
BBX 20 24 -1 0
BITMAP
00000000003884000000
0000000002EFC2000000
000000001DE700000000
00000000BB2000000000
00000000000000000000
2FFFFFFF60000DFFFFF4
039FFFB21000015FF830
0009FFB00000003F7000
0000CFF4000000BC0000
00003FFD000004F30000
000008FF80000D900000
000001DFF2007E100000
0000005FFB01E6000000
0000000BFF49C0000000
00000002EFDF40000000
000000007FFA00000000
000000002FF600000000
000000002FF600000000
000000002FF600000000
000000002FF600000000
000000003FF700000000
000000004FF800000000
00000023BFFE52000000
000000EFFFFFFF500000
ENDCHAR
STARTCHAR Thorn
ENCODING 222
SWIDTH 572 0
DWIDTH 16 0
BBX 16 19 0 0
BITMAP
1FFFFFFFF4000000
024DFFE620000000
0006FF7000000000
0004FF4000000000
0004FFDEEDC94000
0004FF6235AFFB10
0004FF400007FF90
0004FF400000DFF1
0004FF400000AFF2
0004FF400000AFF1
0004FF400000DFD0
0004FF400004FF50
0004FF40027EF700
0004FFFEFFD92000
0004FF4220000000
0004FF4000000000
0006FF6000000000
023CFFD520000000
1FFFFFFFF4000000
ENDCHAR
STARTCHAR germandbls
ENCODING 223
SWIDTH 563 0
DWIDTH 16 0
BBX 15 21 0 0
BITMAP
000005BDED930000
0000AE5005EF5000
0005F700007FD000
000BF400004FF200
000EF300003FF200
001FF300004FE000
002FF30000AF6000
2FFFF3004BE60000
013FF309E7100000
002FF305CFC50000
002FF30004EFB100
002FF300002EFA00
002FF3000007FF40
002FF3000001FFA0
002FF3000000DFC0
002FF3000000BFD0
002FF3000000CFB0
002FF32B6000DF80
003FF36FF201FF20
008FF33FF809F600
5EFFF305CFDA3000
ENDCHAR
STARTCHAR agrave
ENCODING 224
SWIDTH 480 0
DWIDTH 13 0
BBX 13 20 1 0
BITMAP
00488100000000
003EF700000000
0005FD00000000
00006F50000000
000008C0000000
00000000000000
004AEFEB300000
08F923AFE20000
3FF2000DF80000
5FF0000AFA0000
08600009FB0000
0000001AFB0000
00017BDDFB0000
019FA309FB0000
2DF50009FB0000
AFB00009FB0000
DF900009FB0000
CFB0001DFD0310
7FF725B7FFED10
07DFD810CEB200
ENDCHAR
STARTCHAR aacute
ENCODING 225
SWIDTH 480 0
DWIDTH 13 0
BBX 13 20 1 0
BITMAP
00000188400000
000008FE300000
00000EF4000000
00006F50000000
0000C700000000
00000000000000
004AEFEB300000
08F923AFE20000
3FF2000DF80000
5FF0000AFA0000
08600009FB0000
0000001AFB0000
00017BDDFB0000
019FA309FB0000
2DF50009FB0000
AFB00009FB0000
DF900009FB0000
CFB0001DFD0310
7FF725B7FFED10
07DFD810CEB200
ENDCHAR
STARTCHAR acircumflex
ENCODING 226
SWIDTH 480 0
DWIDTH 13 0
BBX 13 20 1 0
BITMAP
00005840000000
0002FFE2000000
000CE6EB000000
007E303E600000
03D30003D20000
00000000000000
004AEFEB300000
08F923AFE20000
3FF2000DF80000
5FF0000AFA0000
08600009FB0000
0000001AFB0000
00017BDDFB0000
019FA309FB0000
2DF50009FB0000
AFB00009FB0000
DF900009FB0000
CFB0001DFD0310
7FF725B7FFED10
07DFD810CEB200
ENDCHAR
STARTCHAR atilde
ENCODING 227
SWIDTH 480 0
DWIDTH 13 0
BBX 13 19 1 0
BITMAP
007ED6000B0000
05FDFFA3790000
0B302AFFB10000
02000011000000
00000000000000
004AEFEB300000
08F923AFE20000
3FF2000DF80000
5FF0000AFA0000
08600009FB0000
0000001AFB0000
00017BDDFB0000
019FA309FB0000
2DF50009FB0000
AFB00009FB0000
DF900009FB0000
CFB0001DFD0310
7FF725B7FFED10
07DFD810CEB200
ENDCHAR
STARTCHAR adieresis
ENCODING 228
SWIDTH 480 0
DWIDTH 13 0
BBX 13 19 1 0
BITMAP
0AE70009E90000
2FFE000FFF1000
0AE70008E90000
00000000000000
00000000000000
004AEFEB300000
08F923AFE20000
3FF2000DF80000
5FF0000AFA0000
08600009FB0000
0000001AFB0000
00017BDDFB0000
019FA309FB0000
2DF50009FB0000
AFB00009FB0000
DF900009FB0000
CFB0001DFD0310
7FF725B7FFED10
07DFD810CEB200
ENDCHAR
STARTCHAR aring
ENCODING 229
SWIDTH 480 0
DWIDTH 13 0
BBX 13 21 1 0
BITMAP
0003BEB2000000
001E839D000000
005E000F300000
005D000E400000
002F506E100000
0006EFE4000000
00000100000000
004AEFEB300000
08F923AFE20000
3FF2000DF80000
5FF0000AFA0000
08600009FB0000
0000001AFB0000
00017BDDFB0000
019FA309FB0000
2DF50009FB0000
AFB00009FB0000
DF900009FB0000
CFB0001DFD0310
7FF725B7FFED10
07DFD810CEB200
ENDCHAR
STARTCHAR ae
ENCODING 230
SWIDTH 709 0
DWIDTH 20 0
BBX 18 14 1 0
BITMAP
006BEFD7017DFEA300
0BF723CFACC326FF40
5FF0002FFF10006FE1
6FD0000EFA00001FF6
0420000DF800000CFA
0000015EFFEEEEEFFD
0004AEAEF822222222
03DE710CF800000000
3EF3000CFA00000000
AFA0000AFE00000002
DF800009FF8000005B
CFB0003CEFF94239F3
7FF726B13EFFFFFF60
07DFD700029DFEB400
ENDCHAR
STARTCHAR ccedilla
ENCODING 231
SWIDTH 446 0
DWIDTH 12 0
BBX 12 20 0 -6
BITMAP
00006CEED810
001CD524EFD1
00BE20006FF6
04F800001DF6
0AF400000140
0EF200000000
0FF200000000
1FF400000000
0FF700000000
0DFC00000003
09FF6000006A
02FFF83239E2
006FFFFFFF50
0004BEFEB400
000001B00000
000005EEA100
00000136F700
00000000F900
00004527F500
00002BFD7000
ENDCHAR
STARTCHAR egrave
ENCODING 232
SWIDTH 464 0
DWIDTH 13 0
BBX 11 20 1 0
BITMAP
002883000000
001CFC000000
0001DF300000
00003EA00000
000004E10000
000000000000
0017CEEB4000
02DC425EF600
0CE10004FF20
6F800000CF90
BF4000009FD0
EFEEEEEEFFF0
FF5222222220
FF5000000000
EF8000000000
BFE100000020
6FFA000003C0
0CFFB5238F40
02DFFFFFF800
0017CEEC5000
ENDCHAR
STARTCHAR eacute
ENCODING 233
SWIDTH 464 0
DWIDTH 13 0
BBX 11 20 1 0
BITMAP
000000786000
000003FF6000
00000AF80000
00001FA00000
00008C000000
000000000000
0017CEEB4000
02DC425EF600
0CE10004FF20
6F800000CF90
BF4000009FD0
EFEEEEEEFFF0
FF5222222220
FF5000000000
EF8000000000
BFE100000020
6FFA000003C0
0CFFB5238F40
02DFFFFFF800
0017CEEC5000
ENDCHAR
STARTCHAR ecircumflex
ENCODING 234
SWIDTH 464 0
DWIDTH 13 0
BBX 11 20 1 0
BITMAP
000028700000
0000CFF60000
0007F7CE2000
003F601CB000
00C60001C600
000000000000
0017CEEB4000
02DC425EF600
0CE10004FF20
6F800000CF90
BF4000009FD0
EFEEEEEEFFF0
FF5222222220
FF5000000000
EF8000000000
BFE100000020
6FFA000003C0
0CFFB5238F40
02DFFFFFF800
0017CEEC5000
ENDCHAR
STARTCHAR edieresis
ENCODING 235
SWIDTH 464 0
DWIDTH 13 0
BBX 11 19 1 0
BITMAP
06EB1005EC10
0CFF400AFF60
06EB1004EC10
000000000000
000000000000
0017CEEB4000
02DC425EF600
0CE10004FF20
6F800000CF90
BF4000009FD0
EFEEEEEEFFF0
FF5222222220
FF5000000000
EF8000000000
BFE100000020
6FFA000003C0
0CFFB5238F40
02DFFFFFF800
0017CEEC5000
ENDCHAR
STARTCHAR igrave
ENCODING 236
SWIDTH 285 0
DWIDTH 8 0
BBX 8 20 0 0
BITMAP
48810000
3EF70000
04FE0000
006F5000
0008C000
00000000
058CF300
19CFF300
003FF300
002FF300
002FF300
002FF300
002FF300
002FF300
002FF300
002FF300
002FF300
003FF300
029FF920
2FFFFFF3
ENDCHAR
STARTCHAR iacute
ENCODING 237
SWIDTH 285 0
DWIDTH 8 0
BBX 8 20 0 0
BITMAP
00018840
0007FE30
000EF400
005F6000
00C80000
00000000
058CF300
19CFF300
003FF300
002FF300
002FF300
002FF300
002FF300
002FF300
002FF300
002FF300
002FF300
003FF300
029FF920
2FFFFFF3
ENDCHAR
STARTCHAR icircumflex
ENCODING 238
SWIDTH 285 0
DWIDTH 8 0
BBX 8 20 0 0
BITMAP
00BFB000
04FEF400
0DC1CD00
7D202D70
B30003B0
00000000
058CF300
19CFF300
003FF300
002FF300
002FF300
002FF300
002FF300
002FF300
002FF300
002FF300
002FF300
003FF300
029FF920
2FFFFFF3
ENDCHAR
STARTCHAR idieresis
ENCODING 239
SWIDTH 285 0
DWIDTH 8 0
BBX 9 19 -1 0
BITMAP
5EC101CE60
BFF504FFC0
5EC101CE60
0000000000
0000000000
0058CF3000
019CFF3000
0003FF3000
0002FF3000
0002FF3000
0002FF3000
0002FF3000
0002FF3000
0002FF3000
0002FF3000
0002FF3000
0003FF3000
0029FF9200
02FFFFFF30
ENDCHAR
STARTCHAR eth
ENCODING 240
SWIDTH 532 0
DWIDTH 15 0
BBX 13 21 1 0
BITMAP
028CEDB5000210
035337DFB4AE30
0000001DFF7100
000004CDEF6000
00008C506FE100
000010000EF600
0000000009FB00
0006CEEC56FF00
01CF8225DCFF30
0BF700002EFF60
5FE1000008FF70
BFB0000004FF80
EF90000003FF80
FF90000003FF70
FF90000003FF50
EFA0000005FF30
BFD0000007FE00
6FF200000CF800
1DF900004FD100
03DF9326EE3000
0018CEEC710000
ENDCHAR
STARTCHAR ntilde
ENCODING 241
SWIDTH 576 0
DWIDTH 16 0
BBX 16 19 0 0
BITMAP
000007ED6000B000
00005FDFF9389000
0000B302AFFB1000
0000200001100000
0000000000000000
048BF205CEE91000
1DFFF29FDFFFA000
004FFC9101BFF200
002FF700003FF500
002FF300000EF700
002FF300000DF700
002FF300000DF700
002FF300000DF700
002FF300000DF700
002FF300000DF700
002FF300000DF700
003FF300000DF800
028FF920025FFC31
2FFFFFF50EFFFFF8
ENDCHAR
STARTCHAR ograve
ENCODING 242
SWIDTH 514 0
DWIDTH 14 0
BBX 13 20 1 0
BITMAP
00058700000000
0005FF40000000
00007FB0000000
000009F3000000
000000A9000000
00000000000000
0006BEFD930000
01CF9326EF6000
0BF800004FF400
5FF100000CFC00
AFB0000006FF20
EF90000004FF50
FF90000003FF60
FF90000003FF60
EFA0000003FF40
BFD0000005FF10
6FF2000009FB00
0CFA00001EF200
02DFA324CE5000
0017CEED920000
ENDCHAR
STARTCHAR oacute
ENCODING 243
SWIDTH 514 0
DWIDTH 14 0
BBX 13 20 1 0
BITMAP
00000038830000
000000AFD10000
000002FE200000
000008F4000000
00001E50000000
00000000000000
0006BEFD930000
01CF9326EF6000
0BF800004FF400
5FF100000CFC00
AFB0000006FF20
EF90000004FF50
FF90000003FF60
FF90000003FF60
EFA0000003FF40
BFD0000005FF10
6FF2000009FB00
0CFA00001EF200
02DFA324CE5000
0017CEED920000
ENDCHAR
STARTCHAR ocircumflex
ENCODING 244
SWIDTH 514 0
DWIDTH 14 0
BBX 13 20 1 0
BITMAP
00000683000000
00004FFD100000
0001DD6F900000
000AD205F40000
005D20005D1000
00000000000000
0006BEFD930000
01CF9326EF6000
0BF800004FF400
5FF100000CFC00
AFB0000006FF20
EF90000004FF50
FF90000003FF60
FF90000003FF60
EFA0000003FF40
BFD0000005FF10
6FF2000009FB00
0CFA00001EF200
02DFA324CE5000
0017CEED920000
ENDCHAR
STARTCHAR otilde
ENCODING 245
SWIDTH 514 0
DWIDTH 14 0
BBX 13 19 1 0
BITMAP
0008ED4000B000
007FDFF8397000
00C103BFFA0000
00200001100000
00000000000000
0006BEFD930000
01CF9326EF6000
0BF800004FF400
5FF100000CFC00
AFB0000006FF20
EF90000004FF50
FF90000003FF60
FF90000003FF60
EFA0000003FF40
BFD0000005FF10
6FF2000009FB00
0CFA00001EF200
02DFA324CE5000
0017CEED920000
ENDCHAR
STARTCHAR odieresis
ENCODING 246
SWIDTH 514 0
DWIDTH 14 0
BBX 13 19 1 0
BITMAP
01CE5000AE7000
04FFC002FFE000
01CE5000AE7000
00000000000000
00000000000000
0006BEFD930000
01CF9326EF6000
0BF800004FF400
5FF100000CFC00
AFB0000006FF20
EF90000004FF50
FF90000003FF60
FF90000003FF60
EFA0000003FF40
BFD0000005FF10
6FF2000009FB00
0CFA00001EF200
02DFA324CE5000
0017CEED920000
ENDCHAR
STARTCHAR divide
ENCODING 247
SWIDTH 720 0
DWIDTH 20 0
BBX 18 15 1 0
BITMAP
00000002DD30000000
00000007FF90000000
00000002DD30000000
000000000000000000
000000000000000000
000000000000000000
4FFFFFFFFFFFFFFFF6
4FFFFFFFFFFFFFFFF6
000000000000000000
000000000000000000
000000000000000000
000000000000000000
00000002DD30000000
00000007FF90000000
00000002DD40000000
ENDCHAR
STARTCHAR oslash
ENCODING 248
SWIDTH 514 0
DWIDTH 14 0
BBX 13 16 1 -1
BITMAP
00000000001000
0006BEED94E200
01BF9327FFA000
0BF800009FE300
5FF10003EDFB00
AFB0001D57FF20
EF9000B804FF50
FF9008B003FF60
FF904D1002FF60
EFA2E40003FF40
BFDC700005FF10
6FFA000008FB00
0DF900001EF300
3EDF9324CE5000
B517CEED920000
10000000000000
ENDCHAR
STARTCHAR ugrave
ENCODING 249
SWIDTH 570 0
DWIDTH 16 0
BBX 16 20 0 0
BITMAP
0000288300000000
00001DFA00000000
000002EF20000000
0000003E80000000
00000005E1000000
0000000000000000
3ACED0004ABDF200
26DFD00026CFF200
008FD000003FF200
007FD000002FF200
007FD000002FF200
007FD000002FF200
007FD000002FF200
007FD000002FF200
007FD000002FF200
006FE000002FF200
005FF000002FF200
002FF400009FF300
000AFE524C9FF700
00019EFD921FDC91
ENDCHAR
STARTCHAR uacute
ENCODING 250
SWIDTH 570 0
DWIDTH 16 0
BBX 16 20 0 0
BITMAP
0000000078600000
00000004FF500000
0000000BF7000000
0000002F90000000
0000009B00000000
0000000000000000
3ACED0004ABDF200
26DFD00026CFF200
008FD000003FF200
007FD000002FF200
007FD000002FF200
007FD000002FF200
007FD000002FF200
007FD000002FF200
007FD000002FF200
006FE000002FF200
005FF000002FF200
002FF400009FF300
000AFE524C9FF700
00019EFD921FDC91
ENDCHAR
STARTCHAR ucircumflex
ENCODING 251
SWIDTH 570 0
DWIDTH 16 0
BBX 16 20 0 0
BITMAP
0000003860000000
000001DFF4000000
000009F6DE100000
00004F501DA00000
0001D50001D50000
0000000000000000
3ACED0004ABDF200
26DFD00026CFF200
008FD000003FF200
007FD000002FF200
007FD000002FF200
007FD000002FF200
007FD000002FF200
007FD000002FF200
007FD000002FF200
006FE000002FF200
005FF000002FF200
002FF400009FF300
000AFE524C9FF700
00019EFD921FDC91
ENDCHAR
STARTCHAR udieresis
ENCODING 252
SWIDTH 570 0
DWIDTH 16 0
BBX 16 19 0 0
BITMAP
0007EA0005EC1000
000EFF300CFF4000
0007EA0005EC1000
0000000000000000
0000000000000000
3ACED0004ABDF200
26DFD00026CFF200
008FD000003FF200
007FD000002FF200
007FD000002FF200
007FD000002FF200
007FD000002FF200
007FD000002FF200
007FD000002FF200
006FE000002FF200
005FF000002FF200
002FF400009FF300
000AFE524C9FF700
00019EFD921FDC91
ENDCHAR
STARTCHAR yacute
ENCODING 253
SWIDTH 483 0
DWIDTH 14 0
BBX 15 26 -1 -6
BITMAP
0000000038830000
00000000AFD10000
00000002FE200000
00000008F4000000
0000001E50000000
0000000000000000
5FFFFFA000EFFFC0
14EFF5100029F920
007FF4000008E100
001EFA00000D8000
0008FF20003F2000
0002FF80008C0000
00009FE100D60000
00002FF704E10000
00000AFD09A00000
000003FF5E400000
000000BFDD000000
0000005FF7000000
0000000DF2000000
0000000CB0000000
0000002F50000000
0000008D00000000
000002F600000000
06C94CD000000000
0CFFFE3000000000
05EEB30000000000
ENDCHAR
STARTCHAR thorn
ENCODING 254
SWIDTH 524 0
DWIDTH 15 0
BBX 14 26 0 -6
BITMAP
26AE9000000000
8BFF9000000000
00DF9000000000
00CF9000000000
00CF9000000000
00CF9000000000
00CF903AEEA200
00CF95FFFFFE30
00CFCC4018FFC0
00CFC100009FF3
00CF9000003FF7
00CF9000000FF9
00CF9000000DFA
00CF9000000DF9
00CF9000000EF7
00CF9000001FF2
00CF9000006FC0
00CFD20001DF30
00CFFE624CE500
00CFB9DFD92000
00CF9000000000
00CF9000000000
00CF9000000000
00CFA000000000
25FFE520000000
CFFFFFF5000000
ENDCHAR
STARTCHAR ydieresis
ENCODING 255
SWIDTH 483 0
DWIDTH 14 0
BBX 15 25 -1 -6
BITMAP
0001CE5000AE7000
0004FFC002FFE000
0001CE5000AE7000
0000000000000000
0000000000000000
5FFFFFA000EFFFC0
14EFF5100029F920
007FF4000008E100
001EFA00000D8000
0008FF20003F2000
0002FF80008C0000
00009FE100D60000
00002FF704E10000
00000AFD09A00000
000003FF5E400000
000000BFDD000000
0000005FF7000000
0000000DF2000000
0000000CB0000000
0000002F50000000
0000008D00000000
000002F600000000
06C94CD000000000
0CFFFE3000000000
05EEB30000000000
ENDCHAR
STARTCHAR Amacron
ENCODING 256
SWIDTH 718 0
DWIDTH 20 0
BBX 20 22 0 0
BITMAP
000003EEEEEEEE000000
00000022222222000000
00000000000000000000
000000000DA000000000
000000004FF200000000
00000000BFF800000000
00000002FEFE10000000
00000008E6FF60000000
0000001E81EFD0000000
0000006F30AFF4000000
000000CC004FFB000000
000003F6000DFF200000
00000AF10008FF900000
00001FA00002FFE10000
00007F400000CFF60000
0000DFEEEEEEFFFD0000
0005F82222223EFF4000
000BE100000008FFB000
003F8000000001FFF300
00AF3000000000AFFA00
28FF6200000013CFFF82
EFFFFF0000008FFFFFFF
ENDCHAR
STARTCHAR amacron
ENCODING 257
SWIDTH 480 0
DWIDTH 13 0
BBX 13 17 1 0
BITMAP
08EEEEEEE80000
01222222210000
00000000000000
004AEFEB300000
08F923AFE20000
3FF2000DF80000
5FF0000AFA0000
08600009FB0000
0000001AFB0000
00017BDDFB0000
019FA309FB0000
2DF50009FB0000
AFB00009FB0000
DF900009FB0000
CFB0001DFD0310
7FF725B7FFED10
07DFD810CEB200
ENDCHAR
STARTCHAR Abreve
ENCODING 258
SWIDTH 718 0
DWIDTH 20 0
BBX 20 26 0 0
BITMAP
00000150000006000000
000002E000003D000000
000000DA1002C9000000
0000006FFEEFF2000000
00000005CFEB30000000
00000000000000000000
00000000000000000000
000000000DA000000000
000000004FF200000000
00000000BFF800000000
00000002FEFE10000000
00000008E6FF60000000
0000001E81EFD0000000
0000006F30AFF4000000
000000CC004FFB000000
000003F6000DFF200000
00000AF10008FF900000
00001FA00002FFE10000
00007F400000CFF60000
0000DFEEEEEEFFFD0000
0005F82222223EFF4000
000BE100000008FFB000
003F8000000001FFF300
00AF3000000000AFFA00
28FF6200000013CFFF82
EFFFFF0000008FFFFFFF
ENDCHAR
STARTCHAR abreve
ENCODING 259
SWIDTH 480 0
DWIDTH 13 0
BBX 13 20 1 0
BITMAP
05200000340000
08800000A60000
05E40005F20000
00CFEDEF900000
0019EFD8000000
00000000000000
004AEFEB300000
08F923AFE20000
3FF2000DF80000
5FF0000AFA0000
08600009FB0000
0000001AFB0000
00017BDDFB0000
019FA309FB0000
2DF50009FB0000
AFB00009FB0000
DF900009FB0000
CFB0001DFD0310
7FF725B7FFED10
07DFD810CEB200
ENDCHAR
STARTCHAR Aogonek
ENCODING 260
SWIDTH 719 0
DWIDTH 20 0
BBX 20 25 0 -6
BITMAP
000000000DB000000000
000000004FF200000000
00000000AFF900000000
00000002FCFE10000000
00000008C3FF70000000
0000000E60CFD0000000
0000005E106FF5000000
000000C9001EFB000000
000003F30009FF300000
000009B00003FF900000
00001F500000CFE10000
00007FEEEEEEFFF70000
0000D92222222EFD0000
0004F200000009FF5000
000BB000000003FFB000
002F6000000000CFF300
00AF20000000009FFB00
27FF7200000005EFFF92
DFFFFF000002BFFFFFFF
00000000002EE5100000
0000000000CF30000000
0000000002FC00000000
0000000003FA00000000
0000000001EE42770000
00000000005DFD600000
ENDCHAR
STARTCHAR aogonek
ENCODING 261
SWIDTH 480 0
DWIDTH 13 0
BBX 13 20 1 -6
BITMAP
004AEFEA300000
08F923AFE10000
3FF2000DF70000
5FF0000AFA0000
1A800009FB0000
00000009FB0000
000048CFFB0000
006DD729FB0000
1CF80009FB0000
9FC00009FB0000
DF900009FB0000
DFB0000AFC0000
7FF72497FE6A20
07DFD810BFF700
000000009E4000
00000009E20000
0000004F800000
0000008F600000
0000005FB23940
00000008EEB300
ENDCHAR
STARTCHAR Cacute
ENCODING 262
SWIDTH 670 0
DWIDTH 19 0
BBX 17 24 1 0
BITMAP
000000000388500000
000000002EFC300000
00000001CF70000000
0000000AC200000000
000000000000000000
0000038CEFED944F10
0001AFD73237DFFF10
002DFA1000001CFF10
00CFC000000001EF10
07FF30000000008F10
0EFD00000000003F10
3FF900000000000F10
7FF600000000000000
8FF500000000000000
9FF500000000000000
8FF600000000000000
6FF800000000000000
3FFB00000000000000
0DFF10000000000000
08FFA0000000000120
01DFF8000000003D60
003EFFB5000039F800
0002CFFFFEDFFE5000
000005ADFFEB710000
ENDCHAR
STARTCHAR cacute
ENCODING 263
SWIDTH 446 0
DWIDTH 12 0
BBX 12 20 0 0
BITMAP
000000078600
0000004FF600
000000AF8000
000002FA0000
000008B00000
000000000000
00006CEED810
001CD524EFD1
00BE10006FF6
05F800001DF6
0AF400000130
0EF200000000
0FF200000000
1FF400000000
0FF700000000
0CFC00000003
07FF60000079
01EFF9324AE1
004EFFFFFF40
00029DFEA300
ENDCHAR
STARTCHAR Ccircumflex
ENCODING 264
SWIDTH 670 0
DWIDTH 19 0
BBX 17 24 1 0
BITMAP
00000000CFD1000000
00000009FDFB000000
0000006F806F800000
000003E50003D40000
000000000000000000
0000038CEFED944F10
0001AFD73237DFFF10
002DFA1000001CFF10
00CFC000000001EF10
07FF30000000008F10
0EFD00000000003F10
3FF900000000000F10
7FF600000000000000
8FF500000000000000
9FF500000000000000
8FF600000000000000
6FF800000000000000
3FFB00000000000000
0DFF10000000000000
08FFA0000000000120
01DFF8000000003D60
003EFFB5000039F800
0002CFFFFEDFFE5000
000005ADFFEB710000
ENDCHAR
STARTCHAR ccircumflex
ENCODING 265
SWIDTH 446 0
DWIDTH 12 0
BBX 12 20 0 0
BITMAP
000003860000
00000CFF5000
00008F7CE100
0003F601CA00
000C60001C50
000000000000
00006CEED810
001CD524EFD1
00BE10006FF6
05F800001DF6
0AF400000130
0EF200000000
0FF200000000
1FF400000000
0FF700000000
0CFC00000003
07FF60000079
01EFF9324AE1
004EFFFFFF40
00029DFEA300
ENDCHAR
STARTCHAR Cdotaccent
ENCODING 266
SWIDTH 670 0
DWIDTH 19 0
BBX 17 23 1 0
BITMAP
000000008EA0000000
00000000FFF2000000
000000008EA0000000
000000000000000000
0000038CEFED944F10
0001AFD73237DFFF10
002DFA1000001CFF10
00CFC000000001EF10
07FF30000000008F10
0EFD00000000003F10
3FF900000000000F10
7FF600000000000000
8FF500000000000000
9FF500000000000000
8FF600000000000000
6FF800000000000000
3FFB00000000000000
0DFF10000000000000
08FFA0000000000120
01DFF8000000003D60
003EFFB5000039F800
0002CFFFFEDFFE5000
000005ADFFEB710000
ENDCHAR
STARTCHAR cdotaccent
ENCODING 267
SWIDTH 446 0
DWIDTH 12 0
BBX 12 19 0 0
BITMAP
000006EC1000
00000CFF4000
000006EC1000
000000000000
000000000000
00006CEED810
001CD524EFD1
00BE10006FF6
05F800001DF6
0AF400000130
0EF200000000
0FF200000000
1FF400000000
0FF700000000
0CFC00000003
07FF60000079
01EFF9324AE1
004EFFFFFF40
00029DFEA300
ENDCHAR
STARTCHAR Ccaron
ENCODING 268
SWIDTH 670 0
DWIDTH 19 0
BBX 17 24 1 0
BITMAP
000003E50003D40000
0000006F806F800000
00000009FDFB000000
00000000CFD1000000
000000000000000000
0000038CEFED944F10
0001AFD73237DFFF10
002DFA1000001CFF10
00CFC000000001EF10
07FF30000000008F10
0EFD00000000003F10
3FF900000000000F10
7FF600000000000000
8FF500000000000000
9FF500000000000000
8FF600000000000000
6FF800000000000000
3FFB00000000000000
0DFF10000000000000
08FFA0000000000120
01DFF8000000003D60
003EFFB5000039F800
0002CFFFFEDFFE5000
000005ADFFEB710000
ENDCHAR
STARTCHAR ccaron
ENCODING 269
SWIDTH 446 0
DWIDTH 12 0
BBX 12 20 0 0
BITMAP
000710000540
0008C1006E10
0000CC16F500
00003FDFA000
000008FE1000
000000000000
00006CEED810
001CD524EFD1
00BE10006FF6
05F800001DF6
0AF400000130
0EF200000000
0FF200000000
1FF400000000
0FF700000000
0CFC00000003
07FF60000079
01EFF9324AE1
004EFFFFFF40
00029DFEA300
ENDCHAR
STARTCHAR Dcaron
ENCODING 270
SWIDTH 730 0
DWIDTH 20 0
BBX 18 24 1 0
BITMAP
00003E50003D500000
000005F805E8000000
0000008FDFB0000000
0000000BFE10000000
000000000000000000
DFFFFFFFEDB8400000
01BFF73357CFFD4000
005FF4000003DFF700
004FF40000001CFF50
004FF400000002FFE1
004FF400000000AFF6
004FF4000000005FFB
004FF4000000001FFD
004FF4000000000FFF
004FF4000000000EFF
004FF4000000000EFF
004FF4000000000FFD
004FF4000000002FFA
004FF4000000006FF6
004FF400000000CFE1
004FF400000007FF50
005FF40000007FF700
00AFF622359DFD4000
DFFFFFFFFEC9400000
ENDCHAR
STARTCHAR dcaron
ENCODING 271
SWIDTH 626 0
DWIDTH 18 0
BBX 17 20 0 0
BITMAP
0000000026AE605FE0
000000009CFF606FC0
0000000000FF607F90
0000000000EF608F40
0000000000EF609C00
0000000000EF606400
00004ADFD8EF600000
0009F9325EFF600000
008F700005FF600000
03FD000000EF600000
08F8000000EF600000
0DF6000000EF600000
0FF6000000EF600000
1FF6000000EF600000
0FF8000000EF600000
0DFB000000EF600000
0AFF300000EF600000
03FFD5003AFF700000
008FFFFFF7DFD72000
0006CEEA30DDB82000
ENDCHAR
STARTCHAR Dcroat
ENCODING 272
SWIDTH 733 0
DWIDTH 21 0
BBX 19 19 1 0
BITMAP
DFFFFFFFEDB830000000
01BFF73358CFFD400000
005FF4000003DFF70000
004FF40000001DFF5000
004FF400000003FFE100
004FF400000000BFF600
004FF4000000006FFB00
004FF4000000003FFE00
004FF4000000001FFF00
EEFFFFEEEE10000FFF10
226FF6222200001FFF00
004FF4000000002FFE00
004FF4000000004FFB00
004FF4000000008FF600
004FF400000000DFE100
004FF400000008FF6000
005FF40000008FF70000
00AFF622359DFD500000
DFFFFFFFEDC840000000
ENDCHAR
STARTCHAR dcroat
ENCODING 273
SWIDTH 540 0
DWIDTH 15 0
BBX 15 20 0 0
BITMAP
0000000037BE7000
0000000079FF7000
0000000000FF7000
000002EEEEFFFE50
0000002222EF8210
0000000000EF7000
00004ADFD8FF7000
0008F8325EFF7000
008F600004FF7000
03FD000001FF7000
08F8000000EF7000
0DF6000000EF7000
0FF6000000EF7000
1FF6000000EF7000
0FF8000000EF7000
0DFB000000EF7000
09FF300000EF7000
03FFD5003BFF8000
008FFFFFF7DFE730
0006CEEA20DDB830
ENDCHAR
STARTCHAR Emacron
ENCODING 274
SWIDTH 626 0
DWIDTH 18 0
BBX 16 22 1 0
BITMAP
0002EEEEEEEE1000
0000222222220000
0000000000000000
DFFFFFFFFFFFFFB0
01BFF7444456AFB0
005FF400000009C0
004FF400000003D0
004FF40000000020
004FF40000059000
004FF40000069000
004FF40000099000
004FF400005E9000
004FFFEEEFFF9000
004FF622234C9000
004FF40000059000
004FF40000000000
004FF40000000038
004FF40000000089
004FF400000000E7
005FF400000008F4
00AFF7444457BFF2
DFFFFFFFFFFFFFF0
ENDCHAR
STARTCHAR emacron
ENCODING 275
SWIDTH 464 0
DWIDTH 13 0
BBX 11 17 1 0
BITMAP
04EEEEEEEC00
012222222200
000000000000
0017CEEB4000
02DC425EF600
0CE10004FF20
6F800000CF90
BF4000009FD0
EFEEEEEEFFF0
FF5222222220
FF5000000000
EF8000000000
BFE100000020
6FFA000003C0
0CFFB5238F40
02DFFFFFF800
0017CEEC5000
ENDCHAR
STARTCHAR Ebreve
ENCODING 276
SWIDTH 626 0
DWIDTH 18 0
BBX 16 26 1 0
BITMAP
0001500000061000
0001E100002E0000
0000CA2002CA0000
00005FFEEFF30000
000005CFEB400000
0000000000000000
0000000000000000
DFFFFFFFFFFFFFB0
01BFF7444456AFB0
005FF400000009C0
004FF400000003D0
004FF40000000020
004FF40000059000
004FF40000069000
004FF40000099000
004FF400005E9000
004FFFEEEFFF9000
004FF622234C9000
004FF40000059000
004FF40000000000
004FF40000000038
004FF40000000089
004FF400000000E7
005FF400000008F4
00AFF7444457BFF2
DFFFFFFFFFFFFFF0
ENDCHAR
STARTCHAR ebreve
ENCODING 277
SWIDTH 464 0
DWIDTH 13 0
BBX 11 20 1 0
BITMAP
024000000600
04C000005B00
01E81002D700
008FFDDFD100
0007DFEA2000
000000000000
0017CEEB4000
02DC425EF600
0CE10004FF20
6F800000CF90
BF4000009FD0
EFEEEEEEFFF0
FF5222222220
FF5000000000
EF8000000000
BFE100000020
6FFA000003C0
0CFFB5238F40
02DFFFFFF800
0017CEEC5000
ENDCHAR
STARTCHAR Edotaccent
ENCODING 278
SWIDTH 626 0
DWIDTH 18 0
BBX 16 23 1 0
BITMAP
0000003DD3000000
0000008FF8000000
0000003DD3000000
0000000000000000
DFFFFFFFFFFFFFB0
01BFF7444456AFB0
005FF400000009C0
004FF400000003D0
004FF40000000020
004FF40000059000
004FF40000069000
004FF40000099000
004FF400005E9000
004FFFEEEFFF9000
004FF622234C9000
004FF40000059000
004FF40000000000
004FF40000000038
004FF40000000089
004FF400000000E7
005FF400000008F4
00AFF7444457BFF2
DFFFFFFFFFFFFFF0
ENDCHAR
STARTCHAR edotaccent
ENCODING 279
SWIDTH 464 0
DWIDTH 13 0
BBX 11 19 1 0
BITMAP
00006EC10000
0000BFF50000
00005EC10000
000000000000
000000000000
0017CEEB4000
02DC425EF600
0CE10004FF20
6F800000CF90
BF4000009FD0
EFEEEEEEFFF0
FF5222222220
FF5000000000
EF8000000000
BFE100000020
6FFA000003C0
0CFFB5238F40
02DFFFFFF800
0017CEEC5000
ENDCHAR
STARTCHAR Eogonek
ENCODING 280
SWIDTH 625 0
DWIDTH 18 0
BBX 16 25 1 -6
BITMAP
ADFFFFFFFFFFFFB0
00AFF51111248FB0
005FF400000008C0
004FF400000003C0
004FF40000000010
004FF40000059000
004FF40000079000
004FF400003D9000
004FFFEEEFFF9000
004FF622236E9000
004FF40000079000
004FF40000059000
004FF40000000000
004FF40000000000
004FF4000000005A
004FF400000000B7
005FF400000004F5
009FF51112248EF3
ACFFFFFFFFFFFFF0
000000000005D300
00000000005E3000
0000000002E90000
0000000006F80000
0000000004FD3286
00000000007EEC50
ENDCHAR
STARTCHAR eogonek
ENCODING 281
SWIDTH 464 0
DWIDTH 13 0
BBX 11 20 1 -6
BITMAP
0017CEEB4000
02DC425EF600
0CE10004FF20
6F800000CF90
BF4000009FD0
EFEEEEEEFFF0
FF5222222220
FF5000000000
EF8000000000
BFE100000020
6FFA000003D0
0CFFB5238F60
02DFFFFFFA00
0017CEFF8000
000004D40000
00003F500000
0000DD000000
0002FB000000
0000EF426800
00004DFD7000
ENDCHAR
STARTCHAR Ecaron
ENCODING 282
SWIDTH 626 0
DWIDTH 18 0
BBX 16 24 1 0
BITMAP
0000B900019A0000
00001DC22CD10000
000003FEEE300000
0000006FF5000000
0000000000000000
DFFFFFFFFFFFFFB0
01BFF7444456AFB0
005FF400000009C0
004FF400000003D0
004FF40000000020
004FF40000059000
004FF40000069000
004FF40000099000
004FF400005E9000
004FFFEEEFFF9000
004FF622234C9000
004FF40000059000
004FF40000000000
004FF40000000038
004FF40000000089
004FF400000000E7
005FF400000008F4
00AFF7444457BFF2
DFFFFFFFFFFFFFF0
ENDCHAR
STARTCHAR ecaron
ENCODING 283
SWIDTH 464 0
DWIDTH 13 0
BBX 11 20 1 0
BITMAP
007100004400
008C1005E200
000CC15F6000
0003FDFB0000
00007FE20000
000000000000
0017CEEB4000
02DC425EF600
0CE10004FF20
6F800000CF90
BF4000009FD0
EFEEEEEEFFF0
FF5222222220
FF5000000000
EF8000000000
BFE100000020
6FFA000003C0
0CFFB5238F40
02DFFFFFF800
0017CEEC5000
ENDCHAR
STARTCHAR Gcircumflex
ENCODING 284
SWIDTH 720 0
DWIDTH 20 0
BBX 19 24 1 0
BITMAP
00000001CFD100000000
00000009FDFB00000000
0000006F706F70000000
000003E40003D4000000
00000000000000000000
0000038CEFED944E1000
0001AFD73236DFFF1000
002DFA1000001BFF1000
00CFC000000001EF1000
07FF40000000008F1000
0EFD00000000003F1000
3FF900000000000E1000
6FF60000000000000000
8FF50000000000000000
9FF50000000000000000
8FF60000000BEEEEEE30
7FF7000000024CFFB300
4FFA0000000005FF5000
1FFD0000000004FF4000
09FF4000000004FF4000
02EFD100000004FF4000
005FFB10000007FF4000
0004DFE73225CFFA1000
000006ADEFEDA6100000
ENDCHAR
STARTCHAR gcircumflex
ENCODING 285
SWIDTH 484 0
DWIDTH 14 0
BBX 14 26 0 -6
BITMAP
00000287000000
00000CFF600000
00007F7CE20000
0003F601CB0000
000C60001C6000
00000000000000
0003AEFFFFFFF3
006FD427FFC110
02FF40007FF300
07FF00001FF700
08FE00000EF900
07FF00000EF700
03FF50002FF300
007FD402BF8000
000ACFFFD60000
008C0021000000
05F80000000000
0AFD5322200000
07FFFFFFFFD810
008FFFFFFFFF90
01C50000026EE0
0BE000000008E0
4FC000000008B0
5FF20000002D30
1DFD732248C400
018DEFDC950000
ENDCHAR
STARTCHAR Gbreve
ENCODING 286
SWIDTH 720 0
DWIDTH 20 0
BBX 19 26 1 0
BITMAP
00000420000025000000
00000880000088000000
000004F50005F4000000
000000BFFDEFB0000000
00000019DFE910000000
00000000000000000000
00000000000000000000
0000038CEFED944E1000
0001AFD73236DFFF1000
002DFA1000001BFF1000
00CFC000000001EF1000
07FF40000000008F1000
0EFD00000000003F1000
3FF900000000000E1000
6FF60000000000000000
8FF50000000000000000
9FF50000000000000000
8FF60000000BEEEEEE30
7FF7000000024CFFB300
4FFA0000000005FF5000
1FFD0000000004FF4000
09FF4000000004FF4000
02EFD100000004FF4000
005FFB10000007FF4000
0004DFE73225CFFA1000
000006ADEFEDA6100000
ENDCHAR
STARTCHAR gbreve
ENCODING 287
SWIDTH 484 0
DWIDTH 14 0
BBX 14 26 0 -6
BITMAP
00240000006000
004C000005B000
001E81002D7000
0008FFDDFD1000
00007DFEA20000
00000000000000
0003AEFFFFFFF3
006FD427FFC110
02FF40007FF300
07FF00001FF700
08FE00000EF900
07FF00000EF700
03FF50002FF300
007FD402BF8000
000ACFFFD60000
008C0021000000
05F80000000000
0AFD5322200000
07FFFFFFFFD810
008FFFFFFFFF90
01C50000026EE0
0BE000000008E0
4FC000000008B0
5FF20000002D30
1DFD732248C400
018DEFDC950000
ENDCHAR
STARTCHAR Gdotaccent
ENCODING 288
SWIDTH 720 0
DWIDTH 20 0
BBX 19 23 1 0
BITMAP
000000008E9000000000
00000000FFF100000000
000000008E9000000000
00000000000000000000
0000038CEFED944E1000
0001AFD73236DFFF1000
002DFA1000001BFF1000
00CFC000000001EF1000
07FF40000000008F1000
0EFD00000000003F1000
3FF900000000000E1000
6FF60000000000000000
8FF50000000000000000
9FF50000000000000000
8FF60000000BEEEEEE30
7FF7000000024CFFB300
4FFA0000000005FF5000
1FFD0000000004FF4000
09FF4000000004FF4000
02EFD100000004FF4000
005FFB10000007FF4000
0004DFE73225CFFA1000
000006ADEFEDA6100000
ENDCHAR
STARTCHAR gdotaccent
ENCODING 289
SWIDTH 484 0
DWIDTH 14 0
BBX 14 25 0 -6
BITMAP
000006EC100000
00000BFF500000
000005EC100000
00000000000000
00000000000000
0003AEFFFFFFF3
006FD427FFC110
02FF40007FF300
07FF00001FF700
08FE00000EF900
07FF00000EF700
03FF50002FF300
007FD402BF8000
000ACFFFD60000
008C0021000000
05F80000000000
0AFD5322200000
07FFFFFFFFD810
008FFFFFFFFF90
01C50000026EE0
0BE000000008E0
4FC000000008B0
5FF20000002D30
1DFD732248C400
018DEFDC950000
ENDCHAR
STARTCHAR Gcommaaccent
ENCODING 290
SWIDTH 720 0
DWIDTH 20 0
BBX 19 28 1 -9
BITMAP
0000038CEFED944E1000
0001AFD73236DFFF1000
002DFA1000001BFF1000
00CFC000000001EF1000
07FF40000000008F1000
0EFD00000000003F1000
3FF900000000000E1000
6FF60000000000000000
8FF50000000000000000
9FF50000000000000000
8FF60000000BEEEEEE30
7FF7000000024CFFB300
4FFA0000000005FF5000
1FFD0000000004FF4000
09FF4000000004FF4000
02EFD100000004FF4000
005FFB10000007FF4000
0004DFE73225CFFA1000
000006ADEFEDA6100000
00000000000000000000
00000000000000000000
00000004EE5000000000
0000000AFFD000000000
00000005EEE000000000
0000000008C000000000
000000001E6000000000
00000004D60000000000
00000002100000000000
ENDCHAR
STARTCHAR gcommaaccent
ENCODING 291
SWIDTH 484 0
DWIDTH 14 0
BBX 14 28 0 -6
BITMAP
00000001100000
0000008C300000
000009C1000000
00001F50000000
00002FEE300000
00001FFF700000
000007ED200000
00000000000000
0003AEFFFFFFF3
006FD427FFC110
02FF40007FF300
07FF00001FF700
08FE00000EF900
07FF00000EF700
03FF50002FF300
007FD402BF8000
000ACFFFD60000
008C0021000000
05F80000000000
0AFD5322200000
07FFFFFFFFD810
008FFFFFFFFF90
01C50000026EE0
0BE000000008E0
4FC000000008B0
5FF20000002D30
1DFD732248C400
018DEFDC950000
ENDCHAR
STARTCHAR Hcircumflex
ENCODING 292
SWIDTH 777 0
DWIDTH 22 0
BBX 20 24 1 0
BITMAP
000000007FF500000000
00000004FEEE20000000
0000002EC12DD1000000
000000C90001AA000000
00000000000000000000
FFFFFFFF1004FFFFFFFC
24CFFD42000025EFFA31
006FF600000000AFF200
004FF5000000008FF100
004FF4000000008FF000
004FF4000000008FF000
004FF4000000008FF000
004FF4000000008FF000
004FF4000000008FF000
004FFFEEEEEEEEFFF000
004FF6222222229FF000
004FF4000000008FF000
004FF4000000008FF000
004FF4000000008FF000
004FF4000000008FF000
004FF5000000008FF100
006FF6000000009FF200
23CFFC32000024EFFA31
FFFFFFFF1004FFFFFFFC
ENDCHAR
STARTCHAR hcircumflex
ENCODING 293
SWIDTH 577 0
DWIDTH 16 0
BBX 16 25 0 0
BITMAP
000000BFE1000000
000009FDFB000000
00005F805E800000
0003E50003D50000
0000000000000000
148CF20000000000
4AEFF20000000000
004FF20000000000
003FF20000000000
003FF20000000000
003FF20000000000
003FF205CEE91000
003FF2AFDFFFA000
003FFD9101AFF100
003FF600002FF500
003FF200000EF700
003FF200000DF700
003FF200000CF800
003FF200000CF800
003FF200000CF800
003FF200000CF800
003FF200000CF800
004FF200000DF800
02AFF820025FFD41
2FFFFFF30DFFFFF8
ENDCHAR
STARTCHAR Hbar
ENCODING 294
SWIDTH 788 0
DWIDTH 22 0
BBX 20 19 1 0
BITMAP
DFFFFFFF3001FFFFFFFE
23CFFE52000025EFFC42
004FF8000000008FF500
002FF7000000006FF300
002FF7000000006FF300
CEEFFFEEEEEEEEFFFEED
224FF8222222227FF522
002FF7000000006FF300
002FF7000000006FF300
002FFFEEEEEEEEFFF300
002FF8222222227FF300
002FF7000000006FF300
002FF7000000006FF300
002FF7000000006FF300
002FF7000000006FF300
002FF7000000006FF300
003FF8000000007FF400
13AFFD42000024DFFB32
DFFFFFFF3001FFFFFFFE
ENDCHAR
STARTCHAR hbar
ENCODING 295
SWIDTH 579 0
DWIDTH 16 0
BBX 16 20 0 0
BITMAP
169CF30000000000
26AFF30000000000
002FF30000000000
5EEFFEEEEA000000
124FF52221000000
002FF30000000000
002FF305BEE91000
002FF39FEFFFB000
002FFCA201AFF200
002FF800002FF600
002FF300000EF700
002FF300000CF800
002FF300000CF800
002FF300000CF800
002FF300000CF800
002FF300000CF800
002FF300000CF800
003FF300000CF900
029FFA20015FFE41
2FFFFFF40CFFFFF9
ENDCHAR
STARTCHAR Itilde
ENCODING 296
SWIDTH 357 0
DWIDTH 10 0
BBX 10 24 0 0
BITMAP
02BFC61058
0DEEFFEDF3
49005BFD50
0000000000
0000000000
1FFFFFFFF0
024DFFC420
0006FF5000
0004FF4000
0004FF4000
0004FF4000
0004FF4000
0004FF4000
0004FF4000
0004FF4000
0004FF4000
0004FF4000
0004FF4000
0004FF4000
0004FF4000
0004FF4000
0006FF6000
024CFFC420
1FFFFFFFF0
ENDCHAR
STARTCHAR itilde
ENCODING 297
SWIDTH 285 0
DWIDTH 8 0
BBX 9 19 -1 0
BITMAP
03CE600290
0DEEF70950
4A019FFA00
1100011000
0000000000
0058CF3000
019CFF3000
0003FF3000
0002FF3000
0002FF3000
0002FF3000
0002FF3000
0002FF3000
0002FF3000
0002FF3000
0002FF3000
0003FF3000
0029FF9200
02FFFFFF30
ENDCHAR
STARTCHAR Imacron
ENCODING 298
SWIDTH 357 0
DWIDTH 10 0
BBX 10 22 0 0
BITMAP
2EEEEEEEE2
0222222220
0000000000
1FFFFFFFF0
024DFFC420
0006FF5000
0004FF4000
0004FF4000
0004FF4000
0004FF4000
0004FF4000
0004FF4000
0004FF4000
0004FF4000
0004FF4000
0004FF4000
0004FF4000
0004FF4000
0004FF4000
0006FF6000
024CFFC420
1FFFFFFFF0
ENDCHAR
STARTCHAR imacron
ENCODING 299
SWIDTH 285 0
DWIDTH 8 0
BBX 9 17 -1 0
BITMAP
2EEEEEEE20
0222222200
0000000000
0058CF3000
019CFF3000
0003FF3000
0002FF3000
0002FF3000
0002FF3000
0002FF3000
0002FF3000
0002FF3000
0002FF3000
0002FF3000
0003FF3000
0029FF9200
02FFFFFF30
ENDCHAR
STARTCHAR Ibreve
ENCODING 300
SWIDTH 357 0
DWIDTH 10 0
BBX 10 26 0 0
BITMAP
1600000061
0E100001E0
0CB2002BB0
04FFEEFF40
004CEEC400
0000000000
0000000000
1FFFFFFFF0
024DFFC420
0006FF5000
0004FF4000
0004FF4000
0004FF4000
0004FF4000
0004FF4000
0004FF4000
0004FF4000
0004FF4000
0004FF4000
0004FF4000
0004FF4000
0004FF4000
0004FF4000
0006FF6000
024CFFC420
1FFFFFFFF0
ENDCHAR
STARTCHAR ibreve
ENCODING 301
SWIDTH 285 0
DWIDTH 8 0
BBX 9 20 -1 0
BITMAP
2B00000C10
0E10003D00
09B202C700
019FFE8000
0000100000
0000000000
0058CF3000
019CFF3000
0003FF3000
0002FF3000
0002FF3000
0002FF3000
0002FF3000
0002FF3000
0002FF3000
0002FF3000
0002FF3000
0003FF3000
0029FF9200
02FFFFFF30
ENDCHAR
STARTCHAR Iogonek
ENCODING 302
SWIDTH 357 0
DWIDTH 10 0
BBX 9 25 0 -6
BITMAP
1FFFFFFFF0
024DFFC420
0006FF5000
0004FF4000
0004FF4000
0004FF4000
0004FF4000
0004FF4000
0004FF4000
0004FF4000
0004FF4000
0004FF4000
0004FF4000
0004FF4000
0004FF4000
0004FF4000
0006FF6000
023CFFC420
1FFFFFFFF0
00007C1000
0008D10000
004F600000
008F500000
006FB23930
0009EEB300
ENDCHAR
STARTCHAR iogonek
ENCODING 303
SWIDTH 285 0
DWIDTH 8 0
BBX 8 26 0 -6
BITMAP
002DE400
007FF900
002DE400
00000000
00000000
00000000
058CF300
19CFF300
003FF300
002FF300
002FF300
002FF300
002FF300
002FF300
002FF300
002FF300
002FF300
003FF300
029FF920
2FFFFFF3
000AA000
00BB0000
07F40000
0BF20000
09F924A1
01BEEA20
ENDCHAR
STARTCHAR Idotaccent
ENCODING 304
SWIDTH 357 0
DWIDTH 10 0
BBX 9 23 0 0
BITMAP
0003DD3000
0008FF8000
0003DD3000
0000000000
1FFFFFFFF0
024DFFC420
0006FF5000
0004FF4000
0004FF4000
0004FF4000
0004FF4000
0004FF4000
0004FF4000
0004FF4000
0004FF4000
0004FF4000
0004FF4000
0004FF4000
0004FF4000
0004FF4000
0006FF6000
024CFFC420
1FFFFFFFF0
ENDCHAR
STARTCHAR dotlessi
ENCODING 305
SWIDTH 285 0
DWIDTH 8 0
BBX 8 14 0 0
BITMAP
058CF300
19CFF300
003FF300
002FF300
002FF300
002FF300
002FF300
002FF300
002FF300
002FF300
002FF300
003FF300
029FF920
2FFFFFF3
ENDCHAR
STARTCHAR IJ
ENCODING 306
SWIDTH 753 0
DWIDTH 21 0
BBX 21 19 0 0
BITMAP
1FFFFFFFF0006FFFFFFF80
024DFFC42000126FFF9310
0006FF500000000BFF1000
0004FF400000000AFE0000
0004FF400000000AFE0000
0004FF400000000AFE0000
0004FF400000000AFE0000
0004FF400000000AFE0000
0004FF400000000AFE0000
0004FF400000000AFE0000
0004FF400000000AFE0000
0004FF400000000AFE0000
0004FF400000000AFE0000
0004FF400000000AFE0000
0004FF400000000AFE0000
0004FF400069100AFC0000
0006FF6000EFA00BF90000
024CFFC420CFF64FE20000
1FFFFFFFF02AEFEA300000
ENDCHAR
STARTCHAR ij
ENCODING 307
SWIDTH 548 0
DWIDTH 15 0
BBX 14 25 0 -6
BITMAP
002DE400005ED2
007FF90000BFF7
002DE400004ED2
00000000000000
00000000000000
058CF300169CF2
19CFF30028CFF2
003FF300004FF2
002FF300003FF2
002FF300003FF2
002FF300003FF2
002FF300003FF2
002FF300003FF2
002FF300003FF2
002FF300003FF2
002FF300003FF2
003FF300003FF2
029FF920003FF2
2FFFFFF3003FF2
00000000003FF1
00000000004FE0
00000030004FB0
000008FB006F60
000008FFA5DC00
0000019EFD8100
ENDCHAR
STARTCHAR Jcircumflex
ENCODING 308
SWIDTH 396 0
DWIDTH 11 0
BBX 11 24 0 0
BITMAP
00000AFE2000
00007FDFC100
0004F905E900
002E60002C60
000000000000
006FFFFFFF80
00126FFF9310
00000BFF1000
00000AFE0000
00000AFE0000
00000AFE0000
00000AFE0000
00000AFE0000
00000AFE0000
00000AFE0000
00000AFE0000
00000AFE0000
00000AFE0000
00000AFE0000
00000AFE0000
69100AFC0000
EFA00BF90000
CFF64FE20000
2AEFEA300000
ENDCHAR
STARTCHAR jcircumflex
ENCODING 309
SWIDTH 263 0
DWIDTH 7 0
BBX 11 26 -3 -6
BITMAP
000004850000
00001EFF3000
0000AF6DD000
0005F402D800
001D40002D30
000000000000
000169CF2000
00028CFF2000
000004FF2000
000003FF2000
000003FF2000
000003FF2000
000003FF2000
000003FF2000
000003FF2000
000003FF2000
000003FF2000
000003FF2000
000003FF2000
000003FF2000
000003FF1000
000003FE0000
030004FC0000
8FB006F60000
8FFA5DC00000
19EFD8100000
ENDCHAR
STARTCHAR Kcommaaccent
ENCODING 310
SWIDTH 702 0
DWIDTH 20 0
BBX 20 28 0 -9
BITMAP
1FFFFFFFF009FFFFFF40
024DFFC420015FFF8300
0006FF5000003FE40000
0004FF400000CE300000
0004FF40000BD2000000
0004FF4000BD20000000
0004FF401BD100000000
0004FF41BC1000000000
0004FF5CC10000000000
0004FFEFF50000000000
0004FF6DFF5000000000
0004FF42DFF500000000
0004FF402DFF50000000
0004FF4002DFF5000000
0004FF40002DFF500000
0004FF400002EFF60000
0006FF6000004FFF6000
023CFFC420013FFFF931
1FFFFFFFF009FFFFFFF7
00000000000000000000
00000000000000000000
000000006ED300000000
00000000DFFA00000000
000000007EEB00000000
0000000000BA00000000
0000000003E300000000
000000006D4000000000
00000000200000000000
ENDCHAR
STARTCHAR kcommaaccent
ENCODING 311
SWIDTH 542 0
DWIDTH 15 0
BBX 16 29 0 -9
BITMAP
048CF20000000000
28CFF20000000000
004FF20000000000
003FF20000000000
003FF20000000000
003FF20000000000
003FF200FFFFFF10
003FF2002BFD6200
003FF2002EB10000
003FF202EA000000
003FF22D80000000
003FF4D700000000
003FFEFD10000000
003FF5EFC1000000
003FF24FFB000000
003FF206FF900000
003FF2008FF70000
004FF2000AFF5000
02AFF92003FFF720
2FFFFFF31FFFFFF1
0000000000000000
0000000000000000
0000009EB1000000
000001FFF6000000
000000BEF8000000
00000000E6000000
00000007D1000000
0000009C20000000
0000002000000000
ENDCHAR
STARTCHAR kgreenlandic
ENCODING 312
SWIDTH 542 0
DWIDTH 15 0
BBX 16 14 0 0
BITMAP
048CF3009FFFFF20
2ADFF30017FF7300
003FF3000BE30000
002FF300AD200000
002FF30AD2000000
002FF3AC10000000
002FFCFB00000000
002FF8FFA0000000
002FF36FF9000000
002FF307FF800000
002FF3008FF70000
003FF30009FF6000
029FF92003FFF820
2FFFFFF41FFFFFF2
ENDCHAR
STARTCHAR Lacute
ENCODING 313
SWIDTH 585 0
DWIDTH 16 0
BBX 15 24 1 0
BITMAP
0000068820000000
00007FF800000000
0004FC3000000000
003E800000000000
0000000000000000
CFFFFFFF10000000
14DFFD5200000000
006FF70000000000
004FF50000000000
004FF40000000000
004FF40000000000
004FF40000000000
004FF40000000000
004FF40000000000
004FF40000000000
004FF40000000000
004FF40000000000
004FF40000000000
004FF40000000060
004FF400000005B0
004FF40000000B90
005FF50000004F70
009FFA311238FF40
ADFFFFFFFFFFFF20
ENDCHAR
STARTCHAR lacute
ENCODING 314
SWIDTH 283 0
DWIDTH 8 0
BBX 8 25 0 0
BITMAP
00005882
0005FFA1
003ED400
01D91000
00000000
037BF200
3ADFF200
004FF200
003FF200
003FF200
003FF200
003FF200
003FF200
003FF200
003FF200
003FF200
003FF200
003FF200
003FF200
003FF200
003FF200
003FF200
003FF200
029FF820
2FFFFFF4
ENDCHAR
STARTCHAR Lcommaaccent
ENCODING 315
SWIDTH 585 0
DWIDTH 16 0
BBX 15 28 1 -9
BITMAP
CFFFFFFF10000000
14DFFD5200000000
006FF70000000000
004FF50000000000
004FF40000000000
004FF40000000000
004FF40000000000
004FF40000000000
004FF40000000000
004FF40000000000
004FF40000000000
004FF40000000000
004FF40000000000
004FF40000000060
004FF400000005B0
004FF40000000B90
005FF50000004F70
009FFA311238FF40
ADFFFFFFFFFFFF20
0000000000000000
0000000000000000
000003DE50000000
000009FFE0000000
000004EEF0000000
00000007E0000000
0000001D70000000
000004D700000000
0000011000000000
ENDCHAR
STARTCHAR lcommaaccent
ENCODING 316
SWIDTH 283 0
DWIDTH 8 0
BBX 8 29 0 -9
BITMAP
037BF200
3ADFF200
004FF200
003FF200
003FF200
003FF200
003FF200
003FF200
003FF200
003FF200
003FF200
003FF200
003FF200
003FF200
003FF200
003FF200
003FF200
003FF200
029FF820
2FFFFFF4
00000000
00000000
006ED300
00CFFA00
007EEC00
0000AA00
0003E400
006D5000
00200000
ENDCHAR
STARTCHAR Lcaron
ENCODING 317
SWIDTH 585 0
DWIDTH 16 0
BBX 15 19 1 0
BITMAP
CFFFFFFF101FF300
14DFFD52002FF100
006FF700003FD000
004FF500004F8000
004FF400005F2000
004FF40000370000
004FF40000000000
004FF40000000000
004FF40000000000
004FF40000000000
004FF40000000000
004FF40000000000
004FF40000000000
004FF40000000060
004FF400000005B0
004FF40000000B90
005FF50000004F70
009FFA311238FF40
ADFFFFFFFFFFFF20
ENDCHAR
STARTCHAR lcaron
ENCODING 318
SWIDTH 366 0
DWIDTH 10 0
BBX 10 20 0 0
BITMAP
037BF20AFA
3ADFF20AF8
004FF20BF4
003FF20CE0
003FF20D80
003FF20910
003FF20000
003FF20000
003FF20000
003FF20000
003FF20000
003FF20000
003FF20000
003FF20000
003FF20000
003FF20000
003FF20000
003FF20000
029FF82000
2FFFFFF400
ENDCHAR
STARTCHAR Ldot
ENCODING 319
SWIDTH 605 0
DWIDTH 17 0
BBX 15 19 1 0
BITMAP
CFFFFFFF10000000
14DFFD5200000000
006FF70000000000
004FF50000000000
004FF40000000000
004FF40000000000
004FF40000000000
004FF4000009E900
004FF400001FFF10
004FF4000009E900
004FF40000000000
004FF40000000000
004FF40000000000
004FF40000000060
004FF400000005B0
004FF40000000B90
005FF50000004F70
009FFA311238FF40
ADFFFFFFFFFFFF20
ENDCHAR
STARTCHAR ldot
ENCODING 320
SWIDTH 357 0
DWIDTH 10 0
BBX 11 20 0 0
BITMAP
037BF2000000
3ADFF2000000
004FF2000000
003FF2000000
003FF2000000
003FF2000000
003FF2000000
003FF2000000
003FF203ED30
003FF209FF80
003FF203DD30
003FF2000000
003FF2000000
003FF2000000
003FF2000000
003FF2000000
003FF2000000
003FF2000000
029FF8200000
2FFFFFF40000
ENDCHAR
STARTCHAR Lslash
ENCODING 321
SWIDTH 590 0
DWIDTH 17 0
BBX 15 19 1 0
BITMAP
AFFFFFFF30000000
13BFFE6200000000
004FF90000000000
002FF70000000000
002FF70000000000
002FF70004000000
002FF701AD200000
002FF77E81000000
002FFFC300000000
003FF90000000000
06EFF70000000000
CD6FF70000000000
502FF70000000000
002FF70000000070
002FF700000003D0
002FF700000009B0
003FF70000003F90
007FFC321237EF60
8DFFFFFFFFFFFF40
ENDCHAR
STARTCHAR lslash
ENCODING 322
SWIDTH 290 0
DWIDTH 8 0
BBX 8 20 0 0
BITMAP
037BE400
1ADFF400
002FF400
001FF400
001FF400
001FF400
001FF413
001FF8E8
001FFE50
003FF400
07EFF400
8D4FF400
111FF400
001FF400
001FF400
001FF400
001FF400
001FF400
027FFA21
0FFFFFF6
ENDCHAR
STARTCHAR Nacute
ENCODING 323
SWIDTH 742 0
DWIDTH 21 0
BBX 20 24 0 0
BITMAP
00000000003885000000
0000000001DFC3000000
000000000CF800000000
00000000AC3000000000
00000000000000000000
3FFFFD10000009FFFFFF
039FFFA00000013CFF72
000BFFF700000002FB00
0008FFFF30000000F800
0008CAFFD1000000E700
0008C1DFFA000000E700
0008C03EFF600000E700
0008C005FFF30000E700
0008C0009FFD1000E700
0008C0000CFFA000E700
0008C00002EFF600E700
0008C000004FFF30E700
0008C0000007FFD1E700
0008C0000000BFFAE700
0009C00000001DFFF700
0009D000000003FFF700
000BE0000000006FF700
026FF93100000009F700
3FFFFFF500000000C700
ENDCHAR
STARTCHAR nacute
ENCODING 324
SWIDTH 576 0
DWIDTH 16 0
BBX 16 20 0 0
BITMAP
0000000028840000
000000008FE20000
00000001EF400000
00000006F5000000
0000000D70000000
0000000000000000
048BF205CEE91000
1DFFF29FDFFFA000
004FFC9101BFF200
002FF700003FF500
002FF300000EF700
002FF300000DF700
002FF300000DF700
002FF300000DF700
002FF300000DF700
002FF300000DF700
002FF300000DF700
003FF300000DF800
028FF920025FFC31
2FFFFFF50EFFFFF8
ENDCHAR
STARTCHAR Ncommaaccent
ENCODING 325
SWIDTH 742 0
DWIDTH 21 0
BBX 20 28 0 -9
BITMAP
3FFFFD10000009FFFFFF
039FFFA00000013CFF72
000BFFF700000002FB00
0008FFFF30000000F800
0008CAFFD1000000E700
0008C1DFFA000000E700
0008C03EFF600000E700
0008C005FFF30000E700
0008C0009FFD1000E700
0008C0000CFFA000E700
0008C00002EFF600E700
0008C000004FFF30E700
0008C0000007FFD1E700
0008C0000000BFFAE700
0009C00000001DFFF700
0009D000000003FFF700
000BE0000000006FF700
026FF93100000009F700
3FFFFFF500000000C700
00000000000000000000
00000000000000000000
000000004EE500000000
00000000AFFD00000000
000000005EEE00000000
00000000008C00000000
0000000001E600000000
000000004D6000000000
00000000210000000000
ENDCHAR
STARTCHAR ncommaaccent
ENCODING 326
SWIDTH 576 0
DWIDTH 16 0
BBX 16 23 0 -9
BITMAP
048BF205CEE91000
1DFFF29FDFFFA000
004FFC9101BFF200
002FF700003FF500
002FF300000EF700
002FF300000DF700
002FF300000DF700
002FF300000DF700
002FF300000DF700
002FF300000DF700
002FF300000DF700
003FF300000DF800
028FF920025FFC31
2FFFFFF50EFFFFF8
0000000000000000
0000000000000000
0000006ED2000000
000000DFFA000000
0000008EEB000000
00000000B9000000
00000003E3000000
0000006D40000000
0000002000000000
ENDCHAR
STARTCHAR Ncaron
ENCODING 327
SWIDTH 742 0
DWIDTH 21 0
BBX 20 24 0 0
BITMAP
0000003E50003D500000
00000005F805E8000000
000000008FDFB0000000
000000000BFE10000000
00000000000000000000
3FFFFD10000009FFFFFF
039FFFA00000013CFF72
000BFFF700000002FB00
0008FFFF30000000F800
0008CAFFD1000000E700
0008C1DFFA000000E700
0008C03EFF600000E700
0008C005FFF30000E700
0008C0009FFD1000E700
0008C0000CFFA000E700
0008C00002EFF600E700
0008C000004FFF30E700
0008C0000007FFD1E700
0008C0000000BFFAE700
0009C00000001DFFF700
0009D000000003FFF700
000BE0000000006FF700
026FF93100000009F700
3FFFFFF500000000C700
ENDCHAR
STARTCHAR ncaron
ENCODING 328
SWIDTH 576 0
DWIDTH 16 0
BBX 16 20 0 0
BITMAP
0000360000072000
00000C8000AB0000
000003F80AE20000
0000007FDF600000
0000000CFA000000
0000000000000000
048BF205CEE91000
1DFFF29FDFFFA000
004FFC9101BFF200
002FF700003FF500
002FF300000EF700
002FF300000DF700
002FF300000DF700
002FF300000DF700
002FF300000DF700
002FF300000DF700
002FF300000DF700
003FF300000DF800
028FF920025FFC31
2FFFFFF50EFFFFF8
ENDCHAR
STARTCHAR napostrophe
ENCODING 329
SWIDTH 576 0
DWIDTH 16 0
BBX 21 20 -5 0
BITMAP
0AEB100000000000000000
2FFF800000000000000000
0BFF900000000000000000
000D800000000000000000
003F200000000000000000
04D6000000000000000000
08200048BF205CEE910000
000001DFFF29FDFFFA0000
00000004FFC9101BFF2000
00000002FF700003FF5000
00000002FF300000EF7000
00000002FF300000DF7000
00000002FF300000DF7000
00000002FF300000DF7000
00000002FF300000DF7000
00000002FF300000DF7000
00000002FF300000DF7000
00000003FF300000DF8000
00000028FF920025FFC310
000002FFFFFF50EFFFFF80
ENDCHAR
STARTCHAR Eng
ENCODING 330
SWIDTH 742 0
DWIDTH 21 0
BBX 20 25 0 -6
BITMAP
3FFFFD10000009FFFFFF
039FFFA00000013BFF62
000BFFF600000002FB00
0008FFFE30000000F800
0008DBFFC1000000E700
0008C1DFF9000000E700
0008C03FFF500000E700
0008C007FFE20000E700
0008C000BFFC0000E700
0008C0001DFF8000E700
0008C00004FFF400E700
0008C000007FFE10E700
0008C000000BFFB0E700
0008C0000001EFF8E700
0009C00000004FFFF700
0009D000000008FFF700
000BE000000000BFF700
026FF9310000002EF700
3FFFFFF500000004F700
0000000000000000E700
0000000000000000E600
0000000000100001F300
0000000004FE3007E000
0000000006FFD7AF6000
00000000008DFEB40000
ENDCHAR
STARTCHAR eng
ENCODING 331
SWIDTH 559 0
DWIDTH 16 0
BBX 14 20 0 -6
BITMAP
048BF205CEE910
1DFFF29FDFFFA0
004FFC9101BFF2
002FF700002FF5
002FF300000EF7
002FF300000DF7
002FF300000DF7
002FF300000DF7
002FF300000DF7
002FF300000DF7
002FF300000DF7
003FF300000DF7
028FF920000DF7
2FFFFFF5000DF7
00000000000DF6
00000000000DF5
00000000000EF2
000002ED201FC0
000003FFD5AE30
0000006DFEA300
ENDCHAR
STARTCHAR Omacron
ENCODING 332
SWIDTH 738 0
DWIDTH 21 0
BBX 19 22 1 0
BITMAP
00000BEEEEEEE6000000
00000222222221000000
00000000000000000000
0000049CEFEC82000000
0001BFD63249FF800000
002DFA0000003EFB1000
00CFC000000004FF9000
07FF4000000000AFF300
0EFD00000000004FFA00
3FFA00000000000EFE00
6FF700000000000CFF20
8FF600000000000BFF30
9FF600000000000AFF40
8FF600000000000BFF30
6FF800000000000CFF10
3FFA00000000000EFD00
0EFE00000000003FF800
08FF50000000008FE200
00DFC000000001EF6000
003EFA0000001CF90000
0002CFC63237DF700000
0000049DEFEC82000000
ENDCHAR
STARTCHAR omacron
ENCODING 333
SWIDTH 514 0
DWIDTH 14 0
BBX 13 17 1 0
BITMAP
00BEEEEEEE5000
00222222221000
00000000000000
0006BEFD930000
01CF9326EF6000
0BF800004FF400
5FF100000CFC00
AFB0000006FF20
EF90000004FF50
FF90000003FF60
FF90000003FF60
EFA0000003FF40
BFD0000005FF10
6FF2000009FB00
0CFA00001EF200
02DFA324CE5000
0017CEED920000
ENDCHAR
STARTCHAR Obreve
ENCODING 334
SWIDTH 738 0
DWIDTH 21 0
BBX 19 26 1 0
BITMAP
00000610000033000000
00000B500000B5000000
000007D40018F1000000
000001DFEDFF80000000
0000002AEFD700000000
00000000000000000000
00000000000000000000
0000049CEFEC82000000
0001BFD63249FF800000
002DFA0000003EFB1000
00CFC000000004FF9000
07FF4000000000AFF300
0EFD00000000004FFA00
3FFA00000000000EFE00
6FF700000000000CFF20
8FF600000000000BFF30
9FF600000000000AFF40
8FF600000000000BFF30
6FF800000000000CFF10
3FFA00000000000EFD00
0EFE00000000003FF800
08FF50000000008FE200
00DFC000000001EF6000
003EFA0000001CF90000
0002CFC63237DF700000
0000049DEFEC82000000
ENDCHAR
STARTCHAR obreve
ENCODING 335
SWIDTH 514 0
DWIDTH 14 0
BBX 13 20 1 0
BITMAP
00610000043000
00B500000C4000
007D30007E0000
001EFEDEF70000
0002AEFD700000
00000000000000
0006BEFD930000
01CF9326EF6000
0BF800004FF400
5FF100000CFC00
AFB0000006FF20
EF90000004FF50
FF90000003FF60
FF90000003FF60
EFA0000003FF40
BFD0000005FF10
6FF2000009FB00
0CFA00001EF200
02DFA324CE5000
0017CEED920000
ENDCHAR
STARTCHAR Ohungarumlaut
ENCODING 336
SWIDTH 738 0
DWIDTH 21 0
BBX 19 24 1 0
BITMAP
000000008FF48FF40000
00000002FF52FF600000
0000000AE40AE4000000
0000004E304D30000000
00000000000000000000
0000049CEFEC82000000
0001BFD63249FF800000
002DFA0000003EFB1000
00CFC000000004FF9000
07FF4000000000AFF300
0EFD00000000004FFA00
3FFA00000000000EFE00
6FF700000000000CFF20
8FF600000000000BFF30
9FF600000000000AFF40
8FF600000000000BFF30
6FF800000000000CFF10
3FFA00000000000EFD00
0EFE00000000003FF800
08FF50000000008FE200
00DFC000000001EF6000
003EFA0000001CF90000
0002CFC63237DF700000
0000049DEFEC82000000
ENDCHAR
STARTCHAR ohungarumlaut
ENCODING 337
SWIDTH 514 0
DWIDTH 14 0
BBX 13 19 1 0
BITMAP
00000BFD1EF900
00003FE27FB100
0000AE30EC1000
0002E306D10000
00000000000000
0006BEFD930000
01CF9326EF6000
0BF800004FF400
5FF100000CFC00
AFB0000006FF20
EF90000004FF50
FF90000003FF60
FF90000003FF60
EFA0000003FF40
BFD0000005FF10
6FF2000009FB00
0CFA00001EF200
02DFA324CE5000
0017CEED920000
ENDCHAR
STARTCHAR OE
ENCODING 338
SWIDTH 945 0
DWIDTH 26 0
BBX 25 19 1 0
BITMAP
0000049DEFFFFFFFFFFFFFFA00
0001BFD6225DFFA444456BFB00
002DFB100003FF80000000AB00
00CFD1000001FF800000003C00
07FF50000001FF800000000200
0EFE00000001FF800000680000
3FFA00000001FF800000880000
7FF700000001FF800004E80000
8FF600000001FFFEEEFFF80000
9FF500000001FF922236E80000
8FF600000001FF800000880000
7FF800000001FF800000680000
4FFA00000001FF800000000000
0EFE00000001FF800000000470
08FF40000001FF800000000970
01DFC0000001FF800000001E50
003EF9000003FF800000009F30
0002CFC6324CFFA444457CFF10
000005ADFFFFFFFFFFFFFFFE00
ENDCHAR
STARTCHAR oe
ENCODING 339
SWIDTH 807 0
DWIDTH 23 0
BBX 21 14 1 0
BITMAP
0006CEEC710029DFD91000
01CF8227FD23EA328FD200
0BF800006FDDB0000AFB00
5FF100000DFF400003FF30
BFB0000009FF100000FF70
EF90000006FFEEEEEEFF90
FF90000005FF3222222210
FF90000005FF2000000000
EFA0000006FF5000000000
BFC0000008FFB000000020
6FF200000BFFF600000870
0CF900003FCDFF9424BD00
02DF9325DC13EFFFFFE300
0017CEEC600029DFEA2000
ENDCHAR
STARTCHAR Racute
ENCODING 340
SWIDTH 659 0
DWIDTH 18 0
BBX 18 24 1 0
BITMAP
000000028860000000
0000001CFD40000000
000000AF9100000000
000008D40000000000
000000000000000000
BFFFFFFFECA5000000
00AFF72248FFC20000
005FF400004FFB0000
004FF400000BFF2000
004FF4000008FF4000
004FF4000009FF3000
004FF400000CFE1000
004FF400005FF60000
004FF4014AFE600000
004FFFFFFD61000000
004FF639FF60000000
004FF400CFF4000000
004FF4003FFD100000
004FF40008FFA00000
004FF40000DFF60000
005FF500004FFE2000
006FF6000009FFB000
13CFFC420001EFFA31
CFFFFFFF10005FFFF9
ENDCHAR
STARTCHAR racute
ENCODING 341
SWIDTH 380 0
DWIDTH 11 0
BBX 11 20 0 0
BITMAP
000001884000
000007FE3000
00000DF40000
00005F600000
0000C8000000
000000000000
037BF209ED20
0BDFF2AFFF60
003FF9A3BE20
002FFC000000
002FF4000000
002FF3000000
002FF3000000
002FF3000000
002FF3000000
002FF3000000
002FF3000000
003FF4000000
028FFB310000
3FFFFFFC0000
ENDCHAR
STARTCHAR Rcommaaccent
ENCODING 342
SWIDTH 659 0
DWIDTH 18 0
BBX 18 28 1 -9
BITMAP
BFFFFFFFECA5000000
00AFF72248FFC20000
005FF400004FFB0000
004FF400000BFF2000
004FF4000008FF4000
004FF4000009FF3000
004FF400000CFE1000
004FF400005FF60000
004FF4014AFE600000
004FFFFFFD61000000
004FF639FF60000000
004FF400CFF4000000
004FF4003FFD100000
004FF40008FFA00000
004FF40000DFF60000
005FF500004FFE2000
006FF6000009FFB000
13CFFC420001EFFA31
CFFFFFFF10005FFFF9
000000000000000000
000000000000000000
0000002CE700000000
0000006FFF10000000
0000003DEF30000000
000000005F10000000
00000000B900000000
0000002C9000000000
000000110000000000
ENDCHAR
STARTCHAR rcommaaccent
ENCODING 343
SWIDTH 380 0
DWIDTH 11 0
BBX 11 23 0 -9
BITMAP
037BF209ED20
0BDFF2AFFF60
003FF9A3BE20
002FFC000000
002FF4000000
002FF3000000
002FF3000000
002FF3000000
002FF3000000
002FF3000000
002FF3000000
003FF4000000
028FFB310000
3FFFFFFC0000
000000000000
000000000000
001CE9000000
005FFF300000
001DEF400000
00003F200000
0000AB000000
001BA1000000
000200000000
ENDCHAR
STARTCHAR Rcaron
ENCODING 344
SWIDTH 659 0
DWIDTH 18 0
BBX 18 24 1 0
BITMAP
0001D70002C7000000
00003FA14EA0000000
000006FDFD10000000
000000AFE300000000
000000000000000000
BFFFFFFFECA5000000
00AFF72248FFC20000
005FF400004FFB0000
004FF400000BFF2000
004FF4000008FF4000
004FF4000009FF3000
004FF400000CFE1000
004FF400005FF60000
004FF4014AFE600000
004FFFFFFD61000000
004FF639FF60000000
004FF400CFF4000000
004FF4003FFD100000
004FF40008FFA00000
004FF40000DFF60000
005FF500004FFE2000
006FF6000009FFB000
13CFFC420001EFFA31
CFFFFFFF10005FFFF9
ENDCHAR
STARTCHAR rcaron
ENCODING 345
SWIDTH 380 0
DWIDTH 11 0
BBX 11 20 0 0
BITMAP
027000006200
00B90009C000
002E909F2000
0006FDF70000
0000BFB00000
000000000000
037BF209ED20
0BDFF2AFFF60
003FF9A3BE20
002FFC000000
002FF4000000
002FF3000000
002FF3000000
002FF3000000
002FF3000000
002FF3000000
002FF3000000
003FF4000000
028FFB310000
3FFFFFFC0000
ENDCHAR
STARTCHAR Sacute
ENCODING 346
SWIDTH 504 0
DWIDTH 14 0
BBX 13 24 1 0
BITMAP
00000078800000
000009FE700000
00006FB2000000
0004E600000000
00000000000000
0039DFEC73D200
06FD5226DFF300
2FF200001DF300
7FD0000006F400
9FE0000000E400
8FF7000000A400
3FFF7000000000
09FFFC40000000
009FFFFA200000
0004DFFFE60000
000018FFFFA000
0000002BFFF700
000000008FFE00
E10000000CFF20
E500000008FF20
EB00000009FE00
DF6000000DF800
CFF94225BFB000
C86ADFFEB50000
ENDCHAR
STARTCHAR sacute
ENCODING 347
SWIDTH 394 0
DWIDTH 11 0
BBX 10 20 1 0
BITMAP
0000078500
00005FF400
0000CF6000
0004F80000
000AA00000
0000000000
02ADFD8860
4FC425DF60
BF30002F70
DF40000A70
BFD3000670
5FFF810000
07FFFE6000
003BFFFB10
00004CFFB0
C00000AFF3
D400003FF4
DB00002FF2
DFB424BF90
C6AEFEB600
ENDCHAR
STARTCHAR Scircumflex
ENCODING 348
SWIDTH 504 0
DWIDTH 14 0
BBX 13 24 1 0
BITMAP
00006FF6000000
0003FEEF300000
001DC22CD10000
00BA10009B0000
00000000000000
0039DFEC73D200
06FD5226DFF300
2FF200001DF300
7FD0000006F400
9FE0000000E400
8FF7000000A400
3FFF7000000000
09FFFC40000000
009FFFFA200000
0004DFFFE60000
000018FFFFA000
0000002BFFF700
000000008FFE00
E10000000CFF20
E500000008FF20
EB00000009FE00
DF6000000DF800
CFF94225BFB000
C86ADFFEB50000
ENDCHAR
STARTCHAR scircumflex
ENCODING 349
SWIDTH 394 0
DWIDTH 11 0
BBX 10 20 1 0
BITMAP
0003850000
001EFF3000
00AF6DD100
05F402D900
1D40002D40
0000000000
02ADFD8860
4FC425DF60
BF30002F70
DF40000A70
BFD3000670
5FFF810000
07FFFE6000
003BFFFB10
00004CFFB0
C00000AFF3
D400003FF4
DB00002FF2
DFB424BF90
C6AEFEB600
ENDCHAR
STARTCHAR uni015E
ENCODING 350
SWIDTH 504 0
DWIDTH 14 0
BBX 13 26 1 -7
BITMAP
0039DFEC73D200
06FD5226DFF300
2FF200001DF300
7FD0000006F400
9FE0000000E400
8FF7000000A400
3FFF7000000000
09FFFC40000000
009FFFFA200000
0004DFFFE60000
000018FFFFA000
0000002BFFF700
000000008FFE00
E10000000CFF20
E500000008FF20
EB00000009FE00
DF6000000DF800
CFF94225BFB000
C86ADFFEB50000
00000C00000000
00003A00000000
00005FFB200000
0000003F900000
0002203F800000
0003DFFB100000
00000210000000
ENDCHAR
STARTCHAR uni015F
ENCODING 351
SWIDTH 394 0
DWIDTH 11 0
BBX 10 21 1 -7
BITMAP
02ADFD8860
4FC425DF60
BF30002F70
DF40000A70
BFD3000670
5FFF810000
07FFFE6000
003BFFFB10
00004CFFB0
C00000AFF3
D400003FF4
DB00002FF2
DFB424BF90
C6AFFEB600
0007600000
000A300000
000CFE7000
00000AF200
00300AF100
008FFE6000
0001200000
ENDCHAR
STARTCHAR Scaron
ENCODING 352
SWIDTH 504 0
DWIDTH 14 0
BBX 13 24 1 0
BITMAP
009B10008C0000
000CD31BE20000
0002EFDF400000
00004FF7000000
00000000000000
0039DFEC73D200
06FD5226DFF300
2FF200001DF300
7FD0000006F400
9FE0000000E400
8FF7000000A400
3FFF7000000000
09FFFC40000000
009FFFFA200000
0004DFFFE60000
000018FFFFA000
0000002BFFF700
000000008FFE00
E10000000CFF20
E500000008FF20
EB00000009FE00
DF6000000DF800
CFF94225BFB000
C86ADFFEB50000
ENDCHAR
STARTCHAR scaron
ENCODING 353
SWIDTH 394 0
DWIDTH 11 0
BBX 10 20 1 0
BITMAP
2700000630
0BA0008C00
01EA08F300
005FDF8000
000AFC0000
0000000000
02ADFD8860
4FC425DF60
BF30002F70
DF40000A70
BFD3000670
5FFF810000
07FFFE6000
003BFFFB10
00004CFFB0
C00000AFF3
D400003FF4
DB00002FF2
DFB424BF90
C6AEFEB600
ENDCHAR
STARTCHAR uni0162
ENCODING 354
SWIDTH 603 0
DWIDTH 17 0
BBX 17 26 0 -7
BITMAP
4FFFFFFFFFFFFFFF40
5FC5211DFC1125DF40
6E10000DFB00002F50
7A00000DFB00000C60
8600000DFB00000860
0000000DFB00000000
0000000DFB00000000
0000000DFB00000000
0000000DFB00000000
0000000DFB00000000
0000000DFB00000000
0000000DFB00000000
0000000DFB00000000
0000000DFB00000000
0000000DFB00000000
0000000DFC00000000
0000000FFD00000000
0000128FFF72100000
00009FFFFFFF800000
000000066000000000
000000094000000000
0000000BFE80000000
0000000009F3000000
0000003009F2000000
0000008EFE60000000
000000012000000000
ENDCHAR
STARTCHAR uni0163
ENCODING 355
SWIDTH 315 0
DWIDTH 9 0
BBX 8 25 1 -7
BITMAP
001D0000
008E0000
02EE0000
1CFE0000
CFFFFFF1
17FE1110
06FE0000
06FE0000
06FE0000
06FE0000
06FE0000
06FE0000
06FE0000
06FE0000
06FE0000
05FF0002
02FF7295
005FFC40
000A3000
000D0000
000FFD50
00001CE0
00301CD0
01AFFD40
00011000
ENDCHAR
STARTCHAR Tcaron
ENCODING 356
SWIDTH 603 0
DWIDTH 17 0
BBX 17 24 0 0
BITMAP
00004E40004D300000
000007F607F6000000
000000BFDF90000000
0000001DFC00000000
000000000000000000
4FFFFFFFFFFFFFFF40
5FC5211DFC1125DF40
6E10000DFB00002F50
7A00000DFB00000C60
8600000DFB00000860
0000000DFB00000000
0000000DFB00000000
0000000DFB00000000
0000000DFB00000000
0000000DFB00000000
0000000DFB00000000
0000000DFB00000000
0000000DFB00000000
0000000DFB00000000
0000000DFB00000000
0000000DFC00000000
0000000FFD00000000
0000128FFF72100000
00009FFFFFFF800000
ENDCHAR
STARTCHAR tcaron
ENCODING 357
SWIDTH 353 0
DWIDTH 10 0
BBX 9 20 1 0
BITMAP
000000BF90
000000CF70
001D00DF30
008E00ED00
02EE00F700
1CFE00A100
CFFFFFF100
17FE111000
06FE000000
06FE000000
06FE000000
06FE000000
06FE000000
06FE000000
06FE000000
06FE000000
06FE000000
05FF000200
02FF729500
005DFC4000
ENDCHAR
STARTCHAR Tbar
ENCODING 358
SWIDTH 603 0
DWIDTH 17 0
BBX 17 19 0 0
BITMAP
4FFFFFFFFFFFFFFF40
5FB4211DFC1125DF40
6E10000DFB00002F50
7900000DFB00000C60
7500000DFB00000760
0000000DFB00000000
0000000DFB00000000
0000000DFB00000000
0006EEEFFFEEE50000
0001222DFC22210000
0000000DFB00000000
0000000DFB00000000
0000000DFB00000000
0000000DFB00000000
0000000DFB00000000
0000000DFC00000000
0000000FFD00000000
0000128FFF72100000
00009FFFFFFF800000
ENDCHAR
STARTCHAR tbar
ENCODING 359
SWIDTH 328 0
DWIDTH 9 0
BBX 8 18 1 0
BITMAP
001E0000
006F0000
01EF0000
0BFF0000
BFFFFFF2
16FF1110
05FF0000
05FF0000
DFFFEEE2
27FF2220
05FF0000
05FF0000
05FF0000
05FF0000
05FF0000
04FF1003
01EF8296
004DFD50
ENDCHAR
STARTCHAR Utilde
ENCODING 360
SWIDTH 752 0
DWIDTH 21 0
BBX 21 24 0 0
BITMAP
00000001AED7103A000000
0000000BFEFFFDF5000000
0000002B104BEE70000000
0000000000000000000000
0000000000000000000000
7FFFFFFF900005FFFFFF80
127FFF9310000028FFA310
000DFE0000000000DF1000
000BFD0000000000BE0000
000BFD0000000000AE0000
000BFD0000000000AE0000
000BFD0000000000AE0000
000BFD0000000000AE0000
000BFD0000000000AE0000
000BFD0000000000AE0000
000BFD0000000000AE0000
000BFD0000000000AE0000
000AFE0000000000BD0000
0009FF1000000000DB0000
0006FF5000000002F80000
0001FFD10000000AF20000
00009FFC400003AF900000
00000AFFFFDDEFF9000000
00000049DEFEC930000000
ENDCHAR
STARTCHAR utilde
ENCODING 361
SWIDTH 570 0
DWIDTH 16 0
BBX 16 19 0 0
BITMAP
00004DE800093000
0002EDFFC45C0000
00076018EFD30000
0001000001000000
0000000000000000
3ACED0004ABDF200
26DFD00026CFF200
008FD000003FF200
007FD000002FF200
007FD000002FF200
007FD000002FF200
007FD000002FF200
007FD000002FF200
007FD000002FF200
006FE000002FF200
005FF000002FF200
002FF400009FF300
000AFE524C9FF700
00019EFD921FDC91
ENDCHAR
STARTCHAR Umacron
ENCODING 362
SWIDTH 752 0
DWIDTH 21 0
BBX 21 22 0 0
BITMAP
0000000EEEEEEEE4000000
0000000222222221000000
0000000000000000000000
7FFFFFFF900005FFFFFF80
127FFF9310000028FFA310
000DFE0000000000DF1000
000BFD0000000000BE0000
000BFD0000000000AE0000
000BFD0000000000AE0000
000BFD0000000000AE0000
000BFD0000000000AE0000
000BFD0000000000AE0000
000BFD0000000000AE0000
000BFD0000000000AE0000
000BFD0000000000AE0000
000AFE0000000000BD0000
0009FF1000000000DB0000
0006FF5000000002F80000
0001FFD10000000AF20000
00009FFC400003AF900000
00000AFFFFDDEFF9000000
00000049DEFEC930000000
ENDCHAR
STARTCHAR umacron
ENCODING 363
SWIDTH 570 0
DWIDTH 16 0
BBX 16 17 0 0
BITMAP
0005EEEEEEEB0000
0001222222220000
0000000000000000
3ACED0004ABDF200
26DFD00026CFF200
008FD000003FF200
007FD000002FF200
007FD000002FF200
007FD000002FF200
007FD000002FF200
007FD000002FF200
007FD000002FF200
006FE000002FF200
005FF000002FF200
002FF400009FF300
000AFE524C9FF700
00019EFD921FDC91
ENDCHAR
STARTCHAR Ubreve
ENCODING 364
SWIDTH 752 0
DWIDTH 21 0
BBX 21 26 0 0
BITMAP
0000000700000042000000
0000000D300000D2000000
00000009C30019D0000000
00000002EFEDFF60000000
000000003BEFC600000000
0000000000000000000000
0000000000000000000000
7FFFFFFF900005FFFFFF80
127FFF9310000028FFA310
000DFE0000000000DF1000
000BFD0000000000BE0000
000BFD0000000000AE0000
000BFD0000000000AE0000
000BFD0000000000AE0000
000BFD0000000000AE0000
000BFD0000000000AE0000
000BFD0000000000AE0000
000BFD0000000000AE0000
000BFD0000000000AE0000
000AFE0000000000BD0000
0009FF1000000000DB0000
0006FF5000000002F80000
0001FFD10000000AF20000
00009FFC400003AF900000
00000AFFFFDDEFF9000000
00000049DEFEC930000000
ENDCHAR
STARTCHAR ubreve
ENCODING 365
SWIDTH 570 0
DWIDTH 16 0
BBX 16 20 0 0
BITMAP
0003400000160000
0005B00000690000
0001F70003E50000
00009FFDEFD00000
000007DFEA200000
0000000000000000
3ACED0004ABDF200
26DFD00026CFF200
008FD000003FF200
007FD000002FF200
007FD000002FF200
007FD000002FF200
007FD000002FF200
007FD000002FF200
007FD000002FF200
006FE000002FF200
005FF000002FF200
002FF400009FF300
000AFE524C9FF700
00019EFD921FDC91
ENDCHAR
STARTCHAR Uring
ENCODING 366
SWIDTH 752 0
DWIDTH 21 0
BBX 21 25 0 0
BITMAP
0000000007DDA100000000
000000006D43BB00000000
00000000A8004F00000000
000000008C109D00000000
000000001AFFD300000000
0000000000110000000000
7FFFFFFF900005FFFFFF80
127FFF9310000028FFA310
000DFE0000000000DF1000
000BFD0000000000BE0000
000BFD0000000000AE0000
000BFD0000000000AE0000
000BFD0000000000AE0000
000BFD0000000000AE0000
000BFD0000000000AE0000
000BFD0000000000AE0000
000BFD0000000000AE0000
000BFD0000000000AE0000
000AFE0000000000BD0000
0009FF1000000000DB0000
0006FF5000000002F80000
0001FFD10000000AF20000
00009FFC400003AF900000
00000AFFFFDDEFF9000000
00000049DEFEC930000000
ENDCHAR
STARTCHAR uring
ENCODING 367
SWIDTH 570 0
DWIDTH 16 0
BBX 16 21 0 0
BITMAP
000001AEC4000000
00000BA36F200000
00001F200C700000
00002F200B700000
00000D803F400000
000003DFF7000000
0000000100000000
3ACED0004ABDF200
26DFD00026CFF200
008FD000003FF200
007FD000002FF200
007FD000002FF200
007FD000002FF200
007FD000002FF200
007FD000002FF200
007FD000002FF200
006FE000002FF200
005FF000002FF200
002FF400009FF300
000AFE524C9FF700
00019EFD921FDC91
ENDCHAR
STARTCHAR Uhungarumlaut
ENCODING 368
SWIDTH 752 0
DWIDTH 21 0
BBX 21 24 0 0
BITMAP
0000000000AFF2AFF20000
0000000004FE44FE400000
000000000CD30CD3000000
000000006C206C20000000
0000000000000000000000
7FFFFFFF900005FFFFFF80
127FFF9310000028FFA310
000DFE0000000000DF1000
000BFD0000000000BE0000
000BFD0000000000AE0000
000BFD0000000000AE0000
000BFD0000000000AE0000
000BFD0000000000AE0000
000BFD0000000000AE0000
000BFD0000000000AE0000
000BFD0000000000AE0000
000BFD0000000000AE0000
000AFE0000000000BD0000
0009FF1000000000DB0000
0006FF5000000002F80000
0001FFD10000000AF20000
00009FFC400003AF900000
00000AFFFFDDEFF9000000
00000049DEFEC930000000
ENDCHAR
STARTCHAR uhungarumlaut
ENCODING 369
SWIDTH 570 0
DWIDTH 16 0
BBX 16 19 0 0
BITMAP
0000006FF5AFE100
000000CF72FE3000
000004F808F40000
00000B901E500000
0000000000000000
3ACED0004ABDF200
26DFD00026CFF200
008FD000003FF200
007FD000002FF200
007FD000002FF200
007FD000002FF200
007FD000002FF200
007FD000002FF200
007FD000002FF200
006FE000002FF200
005FF000002FF200
002FF400009FF300
000AFE524C9FF700
00019EFD921FDC91
ENDCHAR
STARTCHAR Uogonek
ENCODING 370
SWIDTH 753 0
DWIDTH 21 0
BBX 21 25 0 -6
BITMAP
7FFFFFFF900005FFFFFF80
127FFF9310000028FFA310
000DFE0000000000DF1000
000BFD0000000000BE0000
000BFD0000000000AE0000
000BFD0000000000AE0000
000BFD0000000000AE0000
000BFD0000000000AE0000
000BFD0000000000AE0000
000BFD0000000000AE0000
000BFD0000000000AE0000
000BFD0000000000AE0000
000AFE0000000000BD0000
0009FF1000000000DC0000
0006FF5000000002F90000
0001FFD10000000AF50000
00009FFC400003AFD00000
00000AFFFFDDEFFE300000
00000049DEFFFFB2000000
00000000001BB200000000
0000000000BC1000000000
0000000007F50000000000
000000000AF30000000000
0000000008F923A2000000
0000000001AEEA20000000
ENDCHAR
STARTCHAR uogonek
ENCODING 371
SWIDTH 570 0
DWIDTH 16 0
BBX 16 20 0 -6
BITMAP
3ACED0004ACDF200
15CFD00025BFF200
007FD000003FF200
007FD000002FF200
007FD000002FF200
007FD000002FF200
007FD000002FF200
007FD000002FF200
007FD000002FF200
006FE000002FF200
005FF200005FF200
002FFB1018DFF400
000AFFFDFB2FFD91
00019EEC601FC850
0000000001C90000
000000001CA00000
000000007F400000
00000000AF300000
000000008FA23A20
000000001AEEA200
ENDCHAR
STARTCHAR Wcircumflex
ENCODING 372
SWIDTH 944 0
DWIDTH 26 0
BBX 28 24 -1 0
BITMAP
0000000000008FF4000000000000
000000000004FDEE200000000000
00000000002EB13DC00000000000
0000000001C80001B90000000000
0000000000000000000000000000
4FFFFFFE00CFFFFFF70005FFFFF6
04CFFF720015EFFB3100013CFD41
001EFF3000007FF700000008F400
0007FF7000001EFB0000000AD000
0001FFD000000AFF2000000E8000
0000AFF3000005FF8000004F3000
00004FF9000004FFD000009D0000
00000DFE100009FFF40000E80000
000008FF60001E7FFA0004F30000
000002FFC0006E0BFF1009D00000
000000BFF300C806FF600E700000
0000005FF903F301EFC04F200000
0000000EFE08C0009FF29C000000
00000008FF5E60003FF7E7000000
00000002FFEF10000DFEF2000000
00000000BFFA000007FFC0000000
000000005FF4000002FF70000000
000000000ED0000000BF20000000
0000000009800000005C00000000
ENDCHAR
STARTCHAR wcircumflex
ENCODING 373
SWIDTH 749 0
DWIDTH 21 0
BBX 23 20 -1 0
BITMAP
000000000058400000000000
0000000002FFE20000000000
000000000CE6EB0000000000
000000007E303E6000000000
00000003D30003D200000000
000000000000000000000000
7FFFFF808FFFFF5008FFFF50
14EFF51015EFF300014FE410
006FF300008FF100001F7000
001EF900002FF500005F1000
0009FE00001FFB0000AA0000
0003FF50006EFF1001E50000
0000CFB000C6EF7005E00000
00006FF203E19FC00A800000
00001FF709903FF21F300000
00000AFD0E300DF86C000000
000004FF7C0008FCB6000000
000000DFF60002FFF1000000
0000007FE10000CFA0000000
0000002F9000006F40000000
ENDCHAR
STARTCHAR Ycircumflex
ENCODING 374
SWIDTH 647 0
DWIDTH 18 0
BBX 20 24 -1 0
BITMAP
000000001CFD10000000
00000000AFDFA0000000
00000006F706F7000000
0000004E40003D400000
00000000000000000000
2FFFFFFF60000DFFFFF4
039FFFB21000015FF830
0009FFB00000003F7000
0000CFF4000000BC0000
00003FFD000004F30000
000008FF80000D900000
000001DFF2007E100000
0000005FFB01E6000000
0000000BFF49C0000000
00000002EFDF40000000
000000007FFA00000000
000000002FF600000000
000000002FF600000000
000000002FF600000000
000000002FF600000000
000000003FF700000000
000000004FF800000000
00000023BFFE52000000
000000EFFFFFFF500000
ENDCHAR
STARTCHAR ycircumflex
ENCODING 375
SWIDTH 483 0
DWIDTH 14 0
BBX 15 26 -1 -6
BITMAP
0000000683000000
0000004FFD100000
000001DD6F900000
00000AD205F40000
00005D20005D1000
0000000000000000
5FFFFFA000EFFFC0
14EFF5100029F920
007FF4000008E100
001EFA00000D8000
0008FF20003F2000
0002FF80008C0000
00009FE100D60000
00002FF704E10000
00000AFD09A00000
000003FF5E400000
000000BFDD000000
0000005FF7000000
0000000DF2000000
0000000CB0000000
0000002F50000000
0000008D00000000
000002F600000000
06C94CD000000000
0CFFFE3000000000
05EEB30000000000
ENDCHAR
STARTCHAR Ydieresis
ENCODING 376
SWIDTH 647 0
DWIDTH 18 0
BBX 20 23 -1 0
BITMAP
000000AE80007EA00000
000002FFE000EFF20000
000000AE80007EA00000
00000000000000000000
2FFFFFFF60000DFFFFF4
039FFFB21000015FF830
0009FFB00000003F7000
0000CFF4000000BC0000
00003FFD000004F30000
000008FF80000D900000
000001DFF2007E100000
0000005FFB01E6000000
0000000BFF49C0000000
00000002EFDF40000000
000000007FFA00000000
000000002FF600000000
000000002FF600000000
000000002FF600000000
000000002FF600000000
000000003FF700000000
000000004FF800000000
00000023BFFE52000000
000000EFFFFFFF500000
ENDCHAR
STARTCHAR Zacute
ENCODING 377
SWIDTH 594 0
DWIDTH 17 0
BBX 16 24 0 0
BITMAP
0000000017860000
00000000CFE50000
00000009F9100000
0000007D40000000
0000000000000000
01FFFFFFFFFFFFFA
02FF84211113FFE2
03F60000000BFF70
03E00000006FFC00
0490000002EFF200
000000000BFF7000
000000006FFC0000
00000002EFF30000
0000000BFF800000
0000006FFC000000
000001EFF3000000
00000AFF80000000
00005FFD10000000
0001EFF400000003
000AFF900000003B
005FFD1000000099
01EFF400000003F7
0AFFA11111237EF4
3FFFFFFFFFFFFFF2
ENDCHAR
STARTCHAR zacute
ENCODING 378
SWIDTH 458 0
DWIDTH 13 0
BBX 12 20 0 0
BITMAP
000000078600
0000004FF600
000000BF7000
000002F90000
000009B00000
000000000000
08FFFFFFFFFB
09F731119FF4
0AA00003FF90
0A50000CFE10
0210007FF500
000002FFA000
00000CFE1000
00007FF50000
0002EFB00000
000BFE20001A
006FF600005C
01EFB00000BC
0AFF53335AFB
2FFFFFFFFFFA
ENDCHAR
STARTCHAR Zdotaccent
ENCODING 379
SWIDTH 594 0
DWIDTH 17 0
BBX 16 23 0 0
BITMAP
00000005EC100000
0000000BFF500000
00000005EC100000
0000000000000000
01FFFFFFFFFFFFFA
02FF84211113FFE2
03F60000000BFF70
03E00000006FFC00
0490000002EFF200
000000000BFF7000
000000006FFC0000
00000002EFF30000
0000000BFF800000
0000006FFC000000
000001EFF3000000
00000AFF80000000
00005FFD10000000
0001EFF400000003
000AFF900000003B
005FFD1000000099
01EFF400000003F7
0AFFA11111237EF4
3FFFFFFFFFFFFFF2
ENDCHAR
STARTCHAR zdotaccent
ENCODING 380
SWIDTH 458 0
DWIDTH 13 0
BBX 12 19 0 0
BITMAP
000006EB1000
00000CFF4000
000006EB1000
000000000000
000000000000
08FFFFFFFFFB
09F731119FF4
0AA00003FF90
0A50000CFE10
0210007FF500
000002FFA000
00000CFE1000
00007FF50000
0002EFB00000
000BFE20001A
006FF600005C
01EFB00000BC
0AFF53335AFB
2FFFFFFFFFFA
ENDCHAR
STARTCHAR Zcaron
ENCODING 381
SWIDTH 594 0
DWIDTH 17 0
BBX 16 24 0 0
BITMAP
00001D70001B8000
000003EA13DB0000
0000005FDFD10000
00000009FF300000
0000000000000000
01FFFFFFFFFFFFFA
02FF84211113FFE2
03F60000000BFF70
03E00000006FFC00
0490000002EFF200
000000000BFF7000
000000006FFC0000
00000002EFF30000
0000000BFF800000
0000006FFC000000
000001EFF3000000
00000AFF80000000
00005FFD10000000
0001EFF400000003
000AFF900000003B
005FFD1000000099
01EFF400000003F7
0AFFA11111237EF4
3FFFFFFFFFFFFFF2
ENDCHAR
STARTCHAR zcaron
ENCODING 382
SWIDTH 458 0
DWIDTH 13 0
BBX 12 20 0 0
BITMAP
001710000540
0008C1006E10
0001DC16F500
00003FDFA000
000008FE1000
000000000000
08FFFFFFFFFB
09F731119FF4
0AA00003FF90
0A50000CFE10
0210007FF500
000002FFA000
00000CFE1000
00007FF50000
0002EFB00000
000BFE20001A
006FF600005C
01EFB00000BC
0AFF53335AFB
2FFFFFFFFFFA
ENDCHAR
STARTCHAR longs
ENCODING 383
SWIDTH 285 0
DWIDTH 8 0
BBX 11 21 0 0
BITMAP
000018DED700
0000CB39FF70
0006F500BF70
000CF3001400
000FF3000000
001FF3000000
002FF3000000
4FFFF3000000
013FF3000000
002FF3000000
002FF3000000
002FF3000000
002FF3000000
002FF3000000
002FF3000000
002FF3000000
002FF3000000
002FF3000000
004FF4000000
13AFFC420000
8FFFFFFF0000
ENDCHAR
STARTCHAR uni0180
ENCODING 384
SWIDTH 522 0
DWIDTH 15 0
BBX 14 20 0 0
BITMAP
37AE8000000000
57EF8000000000
00CF8000000000
BEFFFEEEEE1000
22CF9222220000
00CF8000000000
00CF803BEEA200
00CF85FFFFFE20
00CFCC4018FFB0
00CFC10000AFF3
00CF8000004FF7
00CF8000001FF9
00CF8000000EF9
00CF8000000EF8
00CF8000000FF6
00CF8000002FF2
00CF8000007FB0
00CFA00001DE20
00BFF9324CE400
0017BEFEC71000
ENDCHAR
STARTCHAR uni0188
ENCODING 392
SWIDTH 446 0
DWIDTH 12 0
BBX 15 19 0 0
BITMAP
00000000004CED50
0000000002E47FE0
0000000008800AA0
000000000B500000
000000000D500000
00006CEFDF500000
001CD524EFD10000
00BE10006FF60000
05F800001DF60000
0AF4000001300000
0EF2000000000000
0FF2000000000000
1FF4000000000000
0FF7000000000000
0CFC000000030000
07FF600000790000
01EFF9324AE10000
004EFFFFFF400000
00029DFEA3000000
ENDCHAR
STARTCHAR uni0190
ENCODING 400
SWIDTH 518 0
DWIDTH 15 0
BBX 13 19 1 0
BITMAP
0017BEFEDA5000
05EF9424CFFA00
2FF800001EFF30
7FF2000006FF30
8FF10000004300
5FF30000000000
0BFA0000000000
007EB410000000
0003DFFFE20000
009FD732200000
0BFB1000000000
5FF30000000000
BFE00000000000
DFE00000000000
CFF10000000020
AFF70000001A80
3FFF820015DB00
07FFFFEEFFA100
0039CEFEA50000
ENDCHAR
STARTCHAR uni0192
ENCODING 402
SWIDTH 301 0
DWIDTH 8 0
BBX 14 27 -3 -6
BITMAP
000000019DEC70
0000001CA3BFF6
0000007F301CF6
000000DF200130
000001FF100000
000003FF100000
000003FF100000
0005FFFFFFF800
000015FF311100
000004FF100000
000004FF100000
000004FF100000
000004FF100000
000004FF100000
000004FF100000
000004FF100000
000004FF100000
000004FF100000
000004FF100000
000004FF100000
000004FF100000
000004FF100000
000004FF000000
030004FC000000
6FA005F8000000
5FF72BE1000000
07DFEA20000000
ENDCHAR
STARTCHAR uni0195
ENCODING 405
SWIDTH 798 0
DWIDTH 22 0
BBX 21 20 0 0
BITMAP
148CF20000000000000000
4AEFF20000000000000000
004FF20000000000000000
003FF20000000000000000
003FF20000000000000000
003FF20000000000000000
003FF206DFD6000008E600
003FF2AFDFFF50000AFF20
003FFC9102DFC00003FF80
003FF700006FF100006FB0
003FF200003FF300000DE0
003FF200002FF4000007F0
003FF200001FF4000004F0
003FF200001FF4000003E0
003FF200001FF4000004C0
003FF200001FF400000680
003FF200000FF500000930
004FF200000CF700002A00
02AFF8200005FE4236B100
2FFFFFF300005CEFD81000
ENDCHAR
STARTCHAR uni0199
ENCODING 409
SWIDTH 538 0
DWIDTH 15 0
BBX 15 21 0 0
BITMAP
000007CEDB500000
0000BB35EFF40000
0007F3003EF50000
000DF10002400000
002FF00000000000
004FF00000000000
005FF00000000000
005FF001FFFFFF00
005FF0002CFD5200
005FF0003FA10000
005FF003E8000000
005FF03E60000000
005FF3E500000000
005FFEFC10000000
005FF4FFB0000000
005FF06FF9000000
005FF007FF700000
005FF0009FF50000
005FF1000BFF4000
03BFF72005FFE620
4FFFFFF13FFFFFF0
ENDCHAR
STARTCHAR uni019A
ENCODING 410
SWIDTH 287 0
DWIDTH 8 0
BBX 8 20 0 0
BITMAP
037BF300
2BEFF300
003FF300
002FF300
002FF300
002FF300
002FF300
002FF300
002FF300
2EEFFEE4
024FF521
002FF300
002FF300
002FF300
002FF300
002FF300
002FF300
003FF300
028FF920
2FFFFFF5
ENDCHAR
STARTCHAR uni019B
ENCODING 411
SWIDTH 495 0
DWIDTH 14 0
BBX 16 20 -1 0
BITMAP
008EEA1000000000
01FFFFC101920000
008B63D86EA10000
0000008FC4000000
00004CDE80000000
0003E607D0000000
00000001F4000000
00000005F9000000
0000000CFE100000
0000005FEC500000
000000CFA6B00000
000005FF31F10000
00000CFB00B70000
00005FF4007C0000
0000CFB0002F3000
0005FF40000C8000
000DFC000007E000
005FF6000002F500
04EFF6100015FD30
4FFFFFB000AFFFF1
ENDCHAR
STARTCHAR uni019E
ENCODING 414
SWIDTH 559 0
DWIDTH 16 0
BBX 16 20 0 -6
BITMAP
048BF205CEE91000
1DFFF29FDFFFA000
004FFC9101BFF200
002FF700003FF500
002FF300000EF700
002FF300000DF700
002FF300000DF700
002FF300000DF700
002FF300000DF700
002FF300000DF700
002FF300000DF700
003FF300000DF700
028FF920000DF700
2FFFFFF5000DF700
00000000000DF700
00000000000DF700
00000000000DF700
00000000000DF800
00000000000DFD31
00000000000DFFFA
ENDCHAR
STARTCHAR Ohorn
ENCODING 416
SWIDTH 737 0
DWIDTH 21 0
BBX 19 24 1 0
BITMAP
00000000000000003710
0000000000000000DFA0
0000000000000000AFE0
00000000000000003FC0
00000000000000006F60
0000049DEFFFFFFFE800
0001BFC63249FFC20000
002DFA0000003EFC1000
00CFC000000004FF9000
07FF4000000000BFF400
0EFD00000000005FF900
3FF900000000001FFE00
7FF700000000000DFF10
8FF600000000000CFF30
9FF500000000000BFF30
8FF600000000000BFF20
7FF700000000000DFF00
4FFA00000000000FFC00
0EFE00000000003FF700
08FF40000000008FE100
01DFC000000002EF5000
003EF90000001CF80000
0002CFC63237EE600000
000004ADEFEB71000000
ENDCHAR
STARTCHAR ohorn
ENCODING 417
SWIDTH 516 0
DWIDTH 14 0
BBX 14 19 1 0
BITMAP
00000000000630
00000000005FE1
00000000001EF3
000000000009F1
00000000002CB0
0006BEFFFFFC20
01CF9326EF7000
0BF800004FE200
5FF100000CFA00
BFB0000006FF10
EF90000004FF50
FF90000003FF60
FF90000003FF60
EFA0000003FF40
BFD0000005FF10
6FF2000009FB00
0CFA00001EF300
02DFA324CE5000
0017CEED920000
ENDCHAR
STARTCHAR uni01A5
ENCODING 421
SWIDTH 522 0
DWIDTH 15 0
BBX 14 27 0 -6
BITMAP
000029CED91000
0003E739FFB000
000DC000AFE000
005F9000063000
008F8000000000
00AF8000000000
00BF8000000000
00CF803BEEA200
00CF86FFFFFE20
00CFDC4018FFB0
00CFC10000AFF2
00CF8000003FF7
00CF8000000FF9
00CF8000000EF9
00CF8000000EF8
00CF8000000FF6
00CF8000002FF2
00CF8000006FB0
00CFD20001DF20
00CFFE524CE400
00CFB9DED92000
00CF8000000000
00CF8000000000
00CF8000000000
00CF9000000000
25FFE520000000
CFFFFFF4000000
ENDCHAR
STARTCHAR uni01AA
ENCODING 426
SWIDTH 298 0
DWIDTH 8 0
BBX 14 27 -2 -6
BITMAP
03BED800000000
2E636FA0000000
97000AF2000000
B30007F8000000
A50006FB000000
5D3018FD000000
07EFFDFE000000
000115FF000000
000005FF000000
000005FF000000
000005FF000000
000005FF000000
000005FF000000
000005FF000000
000005FF000000
000005FF000000
000005FF000000
000005FF000000
000005FF000000
000005FF000000
000005FF000000
000005FF000000
000004FF000000
000001FF000120
000000CF101DF2
0000004F82AFF2
00000004CEEC50
ENDCHAR
STARTCHAR uni01AB
ENCODING 427
SWIDTH 321 0
DWIDTH 9 0
BBX 8 25 1 -6
BITMAP
00060000
003E0000
00AE0000
03FE0000
1DFE0000
DFFFFFF1
17FE1110
06FE0000
06FE0000
06FE0000
06FE0000
06FE0000
06FE0000
06FE0000
06FE0000
06FE0000
05FF0002
02FF729B
005DECBB
0000008B
0000008B
0000008A
01B600A7
02FF45E2
006DEC40
ENDCHAR
STARTCHAR uni01AD
ENCODING 429
SWIDTH 315 0
DWIDTH 9 0
BBX 11 21 1 0
BITMAP
00017CEDB400
001CA35EFF30
009F1004FF30
01EE00002300
04FE00000000
05FE00000000
1DFE00000000
DFFFFFF10000
17FE11100000
06FE00000000
06FE00000000
06FE00000000
06FE00000000
06FE00000000
06FE00000000
06FE00000000
06FE00000000
06FE00000000
05FF00020000
02FF72950000
005DFC400000
ENDCHAR
STARTCHAR Uhorn
ENCODING 431
SWIDTH 762 0
DWIDTH 21 0
BBX 24 25 0 0
BITMAP
000000000000000000002710
00000000000000000000CFC0
00000000000000000000AFF1
000000000000000000005FE0
000000000000000000000F80
000000000000000000004B10
7FFFFFFF900005FFFFE83000
127FFF9310000028FF400000
000DFE0000000000DF000000
000BFD0000000000BE000000
000BFD0000000000AE000000
000BFD0000000000AE000000
000BFD0000000000AE000000
000BFD0000000000AE000000
000BFD0000000000AE000000
000BFD0000000000AE000000
000BFD0000000000AE000000
000BFD0000000000AD000000
000AFE0000000000BD000000
0009FF1000000000DA000000
0006FF5000000002F7000000
0001FFC10000000AF2000000
00009FFC400003AF80000000
00000AFFFEDDEFF900000000
00000049DEFEC93000000000
ENDCHAR
STARTCHAR uhorn
ENCODING 432
SWIDTH 574 0
DWIDTH 16 0
BBX 17 18 0 0
BITMAP
00000000000002DB00
00000000000002FF30
000000000000009F30
00000000000001AE00
27ADD00027ADFFD400
3AFFD0004AEFF30000
008FD000005FF20000
007FD000002FF20000
007FD000002FF20000
007FD000002FF20000
007FD000002FF20000
007FD000002FF20000
007FD000002FF20000
006FE000002FF20000
005FF000002FF20000
002FF400009FF30000
000BFE524B9FF60000
00019EFD921FDC9100
ENDCHAR
STARTCHAR uni01B5
ENCODING 437
SWIDTH 594 0
DWIDTH 17 0
BBX 16 19 0 0
BITMAP
00FFFFFFFFFFFFFA
01FF83211113EFE2
02F60000000BFF60
03E00000006FFA00
0370000002EFE100
000000000CFF5000
000000007FF90000
00000003FFD10000
000CEEEFFFFEE900
0002229FF9222100
000003FFD1000000
00000CFF50000000
00007FFA00000000
0002EFE200000006
000BFF700000004C
006FFD0000000099
01EFF400000003F7
0AFFA11111237EF5
2FFFFFFFFFFFFFF3
ENDCHAR
STARTCHAR uni01BA
ENCODING 442
SWIDTH 430 0
DWIDTH 12 0
BBX 11 20 0 -6
BITMAP
2FFFFFFFFF80
2FB3212DFC10
2E1000AFD200
2B0007FE3000
00004FF40000
0002EF600000
001CFD873000
002AACEFFA00
00000007FF80
00000000BFD0
000000009FE0
00000000CFB0
00000007FF40
000017CFC300
004BEB720000
04E610000000
0B600001AA00
0C60000AFF10
07E6229FFA00
007DFFEB6000
ENDCHAR
STARTCHAR uni01BB
ENCODING 443
SWIDTH 508 0
DWIDTH 14 0
BBX 14 20 0 0
BITMAP
00018DFEB50000
002DFEDFFFA000
00CB3002BFF700
06B000001EFE00
0B20000009FF20
0000000006FF40
0000000006FF20
0000000008FE00
000000000CF800
000000003FE100
08EEEEEEFFFEE3
0122222AF62220
0000005F800000
000003FA000000
00002EB0000000
0001DD10000091
001CE2000003E0
00BF5222224CB0
09FFFFFFFFFF80
1FFFFFFFFFFF50
ENDCHAR
STARTCHAR uni01BE
ENCODING 446
SWIDTH 406 0
DWIDTH 11 0
BBX 10 18 1 0
BITMAP
000B300000
004F300000
01DF300000
1BFF300000
DFFFFFF800
13FF411100
02FF300000
01BEC84000
00005DFB10
000001DFB0
0000005FF3
0000001FF7
0000000EF8
D000000EF7
E300000FF5
EB00004FE1
DFB424CF50
C5AEFEA300
ENDCHAR
STARTCHAR uni01C0
ENCODING 448
SWIDTH 250 0
DWIDTH 7 0
BBX 3 20 2 0
BITMAP
9F90
9F90
9F90
9F90
9F90
9F90
9F90
9F90
9F90
9F90
9F90
9F90
9F90
9F90
9F90
9F90
9F90
9F90
9F90
9F90
ENDCHAR
STARTCHAR uni01C1
ENCODING 449
SWIDTH 423 0
DWIDTH 12 0
BBX 8 20 2 0
BITMAP
9F900CF7
9F900CF7
9F900CF7
9F900CF7
9F900CF7
9F900CF7
9F900CF7
9F900CF7
9F900CF7
9F900CF7
9F900CF7
9F900CF7
9F900CF7
9F900CF7
9F900CF7
9F900CF7
9F900CF7
9F900CF7
9F900CF7
9F900CF7
ENDCHAR
STARTCHAR uni01C2
ENCODING 450
SWIDTH 422 0
DWIDTH 12 0
BBX 10 20 1 0
BITMAP
0003FF0000
0003FF0000
0003FF0000
0003FF0000
0003FF0000
0003FF0000
DFFFFFFFFA
1114FF2111
0003FF0000
0003FF0000
CEEEFFEEEA
2225FF2221
0003FF0000
0003FF0000
0003FF0000
0003FF0000
0003FF0000
0003FF0000
0003FF0000
0003FF0000
ENDCHAR
STARTCHAR uni01C3
ENCODING 451
SWIDTH 245 0
DWIDTH 7 0
BBX 4 20 1 0
BITMAP
09E7
0EFC
0DFC
0CFB
0BFA
0AF9
09F8
08F7
07F6
06F5
05F4
05F3
04F2
03F1
02F0
0020
0000
0AE8
2FFF
0BE9
ENDCHAR
STARTCHAR uni01DE
ENCODING 478
SWIDTH 718 0
DWIDTH 20 0
BBX 20 25 0 0
BITMAP
000003EEEEEEEE000000
00000022222222000000
000005EC1003DD300000
00000BFF5008FF800000
000005EC1003DD300000
00000000000000000000
000000000DA000000000
000000004FF200000000
00000000BFF800000000
00000002FEFE10000000
00000008E6FF60000000
0000001E81EFD0000000
0000006F30AFF4000000
000000CC004FFB000000
000003F6000DFF200000
00000AF10008FF900000
00001FA00002FFE10000
00007F400000CFF60000
0000DFEEEEEEFFFD0000
0005F82222223EFF4000
000BE100000008FFB000
003F8000000001FFF300
00AF3000000000AFFA00
28FF6200000013CFFF82
EFFFFF0000008FFFFFFF
ENDCHAR
STARTCHAR uni01DF
ENCODING 479
SWIDTH 480 0
DWIDTH 13 0
BBX 13 21 1 0
BITMAP
08EEEEEEE80000
01222222210000
0AE70009E90000
2FFE000FFF1000
0AE70008E90000
00000000000000
00000000000000
004AEFEB300000
08F923AFE20000
3FF2000DF80000
5FF0000AFA0000
08600009FB0000
0000001AFB0000
00017BDDFB0000
019FA309FB0000
2DF50009FB0000
AFB00009FB0000
DF900009FB0000
CFB0001DFD0310
7FF725B7FFED10
07DFD810CEB200
ENDCHAR
STARTCHAR uni01F0
ENCODING 496
SWIDTH 263 0
DWIDTH 7 0
BBX 11 26 -3 -6
BITMAP
001700000630
000AB0008D10
0001EB08F300
00005FDF8000
00000AFD0000
000000000000
000169CF2000
00028CFF2000
000004FF2000
000003FF2000
000003FF2000
000003FF2000
000003FF2000
000003FF2000
000003FF2000
000003FF2000
000003FF2000
000003FF2000
000003FF2000
000003FF2000
000003FF1000
000003FE0000
030004FC0000
8FB006F60000
8FFA5DC00000
19EFD8100000
ENDCHAR
STARTCHAR Aringacute
ENCODING 506
SWIDTH 718 0
DWIDTH 20 0
BBX 20 30 0 0
BITMAP
00000000017870000000
000000000AFE60000000
000000008FB200000000
00000005E50000000000
00000000000000000000
000000019DD800000000
0000000AB34D70000000
0000000E4008B0000000
0000000C901C90000000
00000002CFFB10000000
00000000011000000000
000000000DA000000000
000000004FF200000000
00000000BFF800000000
00000002FEFE10000000
00000008E6FF60000000
0000001E81EFD0000000
0000006F30AFF4000000
000000CC004FFB000000
000003F6000DFF200000
00000AF10008FF900000
00001FA00002FFE10000
00007F400000CFF60000
0000DFEEEEEEFFFD0000
0005F82222223EFF4000
000BE100000008FFB000
003F8000000001FFF300
00AF3000000000AFFA00
28FF6200000013CFFF82
EFFFFF0000008FFFFFFF
ENDCHAR
STARTCHAR aringacute
ENCODING 507
SWIDTH 480 0
DWIDTH 13 0
BBX 13 25 1 0
BITMAP
00000488400000
00003EFB200000
0001DE60000000
000CB200000000
0003BEB2000000
001E839D000000
005E000F300000
005D000E400000
002F506E100000
0006EFE4000000
00000100000000
004AEFEB300000
08F923AFE20000
3FF2000DF80000
5FF0000AFA0000
08600009FB0000
0000001AFB0000
00017BDDFB0000
019FA309FB0000
2DF50009FB0000
AFB00009FB0000
DF900009FB0000
CFB0001DFD0310
7FF725B7FFED10
07DFD810CEB200
ENDCHAR
STARTCHAR AEacute
ENCODING 508
SWIDTH 894 0
DWIDTH 25 0
BBX 26 24 -1 0
BITMAP
00000000000000002886000000
0000000000000001CFD4000000
000000000000000AF910000000
000000000000008D4000000000
00000000000000000000000000
000000000DFFFFFFFFFFFFFF30
00000000007FBFF6444458EF40
00000000009B7FF20000003F40
0000000002E37FF20000000C50
0000000009A07FF20000000530
000000003F207FF20000000000
00000000B9007FF200000D2000
00000004E2007FF200000F2000
0000000C80007FF200019F2000
0000005FFEEEFFFEEEFFFF2000
000000D922228FF42224AF2000
000007E100007FF200000F2000
00001E8000007FF200000D2000
00008E1000007FF20000000031
0002E60000007FF200000000E1
0009D00000007FF200000005E0
004F900000008FF20000001DC0
15EFC3100024EFF6444468EFA0
9FFFFF7002FFFFFFFFFFFFFF70
ENDCHAR
STARTCHAR aeacute
ENCODING 509
SWIDTH 709 0
DWIDTH 20 0
BBX 18 20 1 0
BITMAP
000000005880000000
00000001EFA0000000
00000006FB00000000
0000000DD100000000
0000004E2000000000
000000000000000000
006BEFD7017DFEA300
0BF723CFACC326FF40
5FF0002FFF10006FE1
6FD0000EFA00001FF6
0420000DF800000CFA
0000015EFFEEEEEFFD
0004AEAEF822222222
03DE710CF800000000
3EF3000CFA00000000
AFA0000AFE00000002
DF800009FF8000005B
CFB0003CEFF94239F3
7FF726B13EFFFFFF60
07DFD700029DFEB400
ENDCHAR
STARTCHAR Oslashacute
ENCODING 510
SWIDTH 737 0
DWIDTH 21 0
BBX 19 25 1 -1
BITMAP
00000000058820000000
000000005FFA10000000
00000003ED4000000000
0000001D910000000000
00000000000000000000
0000049DEFEB820B6000
0001BFC63249FFBD1000
002DFA0000004EFB0000
00CFC00000002EFF8000
07FF40000000C7BFF200
0EFD00000009B05FF900
3FF90000006D101FFD00
6FF7000003E3000DFF10
8FF600001D60000BFF30
9FF50000B900000BFF30
8FF60008C000000BFF20
7FF7004E2000000CFF10
4FFA02E40000000FFC00
1EFD1C800000003FF800
09FFCB000000008FE200
01EFF100000001EF6000
007FF90000001CF90000
02E8CFC63237EF700000
0A9005ADEFEC82000000
01000000000000000000
ENDCHAR
STARTCHAR oslashacute
ENCODING 511
SWIDTH 514 0
DWIDTH 14 0
BBX 13 21 1 -1
BITMAP
00000078600000
000004FF600000
00000BF7000000
00002F90000000
00009B00000000
00000000001000
0006BEED94E200
01BF9327FFA000
0BF800009FE300
5FF10003EDFB00
AFB0001D57FF20
EF9000B804FF50
FF9008B003FF60
FF904D1002FF60
EFA2E40003FF40
BFDC700005FF10
6FFA000008FB00
0DF900001EF300
3EDF9324CE5000
B517CEED920000
10000000000000
ENDCHAR
STARTCHAR uni0218
ENCODING 536
SWIDTH 504 0
DWIDTH 14 0
BBX 13 28 1 -9
BITMAP
0039DFEC73D200
06FD5226DFF300
2FF200001DF300
7FD0000006F400
9FE0000000E400
8FF7000000A400
3FFF7000000000
09FFFC40000000
009FFFFA200000
0004DFFFE60000
000018FFFFA000
0000002BFFF700
000000008FFE00
E10000000CFF20
E500000008FF20
EB00000009FE00
DF6000000DF800
CFF94225BFB000
C86ADFFEB50000
00000000000000
00000000000000
00006ED2000000
0000DFF9000000
00008EEB000000
000000B9000000
000004E3000000
00007D40000000
00002000000000
ENDCHAR
STARTCHAR uni0219
ENCODING 537
SWIDTH 394 0
DWIDTH 11 0
BBX 10 23 1 -9
BITMAP
02ADFD8860
4FC425DF60
BF30002F70
DF40000A70
BFD3000670
5FFF810000
07FFFE6000
003BFFFB10
00004CFFB0
C00000AFF3
D400003FF4
DB00002FF2
DFB424BF90
C6AEFEB600
0000000000
0000000000
001CE90000
005FFF3000
001DEF4000
00003F2000
0000AB0000
001BA10000
0002000000
ENDCHAR
STARTCHAR uni021A
ENCODING 538
SWIDTH 603 0
DWIDTH 17 0
BBX 17 28 0 -9
BITMAP
4FFFFFFFFFFFFFFF40
5FC5211DFC1125DF40
6E10000DFB00002F50
7A00000DFB00000C60
8600000DFB00000860
0000000DFB00000000
0000000DFB00000000
0000000DFB00000000
0000000DFB00000000
0000000DFB00000000
0000000DFB00000000
0000000DFB00000000
0000000DFB00000000
0000000DFB00000000
0000000DFB00000000
0000000DFC00000000
0000000FFD00000000
0000128FFF72100000
00009FFFFFFF800000
000000000000000000
000000000000000000
0000001BE900000000
0000004FFF30000000
0000001DEF50000000
000000002F30000000
000000009B00000000
0000001BA100000000
000000020000000000
ENDCHAR
STARTCHAR uni021B
ENCODING 539
SWIDTH 315 0
DWIDTH 9 0
BBX 8 27 1 -9
BITMAP
001D0000
008E0000
02EE0000
1CFE0000
CFFFFFF1
17FE1110
06FE0000
06FE0000
06FE0000
06FE0000
06FE0000
06FE0000
06FE0000
06FE0000
06FE0000
05FF0002
02FF7295
005DFC40
00000000
00000000
003DE600
008FFE00
004EEF10
00006E00
0001C800
003C8000
00110000
ENDCHAR
STARTCHAR uni0221
ENCODING 545
SWIDTH 674 0
DWIDTH 19 0
BBX 19 24 0 -4
BITMAP
0000000026AE60000000
000000009CFF60000000
0000000000FF60000000
0000000000EF60000000
0000000000EF60000000
0000000000EF60000000
00004ADFD8EF60000000
0009F8325EFF60000000
008F600004FF60000000
03FD000000EF60000000
08F8000000EF60000000
0DF6000000EF60000000
0FF6000000EF60000000
1FF6000000EF60000000
0FF8000000EF60000000
0DFC000000EF6007DD50
0AFF400000EF609B36E0
03FFE7325CFF76B002E0
008FFFFFE59FDD336D70
0006CEE92008EFFDA400
000000000003D1000000
00000000000B60000000
00000000004D00000000
0000000000B500000000
ENDCHAR
STARTCHAR uni0228
ENCODING 552
SWIDTH 626 0
DWIDTH 18 0
BBX 16 26 1 -7
BITMAP
DFFFFFFFFFFFFFB0
01BFF7444456AFB0
005FF400000009C0
004FF400000003D0
004FF40000000020
004FF40000059000
004FF40000069000
004FF40000099000
004FF400005E9000
004FFFEEEFFF9000
004FF622234C9000
004FF40000059000
004FF40000000000
004FF40000000038
004FF40000000089
004FF400000000E7
005FF400000008F4
00AFF7444457BFF2
DFFFFFFFFFFFFFF0
0000000D00000000
0000001C00000000
0000004FFC300000
000000002FA00000
000002202E900000
000002CFFB200000
0000000110000000
ENDCHAR
STARTCHAR uni0229
ENCODING 553
SWIDTH 464 0
DWIDTH 13 0
BBX 11 21 1 -7
BITMAP
0017CEEB4000
02DC425EF600
0CE10004FF20
6F800000CF90
BF4000009FD0
EFEEEEEEFFF0
FF5222222220
FF5000000000
EF8000000000
BFE100000020
6FFA000003C0
0CFFB5238F40
02DFFFFFF800
0017DFEC5000
000039000000
000067000000
00009FEA0000
0000006F5000
0003106F4000
0005EFF80000
000002000000
ENDCHAR
STARTCHAR uni0234
ENCODING 564
SWIDTH 399 0
DWIDTH 11 0
BBX 12 24 0 -4
BITMAP
26AE80000000
9CFF80000000
00CF80000000
00CF80000000
00CF80000000
00CF80000000
00CF80000000
00CF80000000
00CF80000000
00CF80000000
00CF80000000
00CF80000000
00CF80000000
00CF80000000
00CF80000000
00CF8005CE80
00BF906C44E3
00BF93C101E3
006FED436CB0
0007EFFEB600
0001E2000000
000980000000
002E10000000
008700000000
ENDCHAR
STARTCHAR uni0235
ENCODING 565
SWIDTH 702 0
DWIDTH 20 0
BBX 20 18 0 -4
BITMAP
08ADF218DFD700000000
027FF6B426FF60000000
002FFC10009FD0000000
002FF300004FF1000000
002FF300003FF2000000
002FF300002FF3000000
002FF300002FF3000000
002FF300002FF3000000
002FF300002FF3000000
002FF300002FF3019EC3
002FF300002FF30B938A
003FF300001FF378004B
029FF920000CFAC247E4
2FFFFFF50003BFFFD930
0000000000005B000000
000000000001D3000000
00000000000790000000
00000000000D20000000
ENDCHAR
STARTCHAR uni0236
ENCODING 566
SWIDTH 406 0
DWIDTH 11 0
BBX 11 22 1 -4
BITMAP
001D00000000
008E00000000
02EE00000000
1CFE00000000
CFFFFFF50000
17FE11100000
06FE00000000
06FE00000000
06FE00000000
06FE00000000
06FE00000000
06FE00000000
06FE00000000
06FE003BEA10
06FE02E73B60
05FE1D500860
01EFC9249D10
003CFFEC7100
000B70000000
004D00000000
00C500000000
03C000000000
ENDCHAR
STARTCHAR uni0237
ENCODING 567
SWIDTH 263 0
DWIDTH 7 0
BBX 9 20 -3 -6
BITMAP
000169CF20
00028CFF20
000004FF20
000003FF20
000003FF20
000003FF20
000003FF20
000003FF20
000003FF20
000003FF20
000003FF20
000003FF20
000003FF20
000003FF20
000003FF10
000003FE00
030004FC00
8FB006F600
8FFA5DC000
19EFD81000
ENDCHAR
STARTCHAR uni0250
ENCODING 592
SWIDTH 475 0
DWIDTH 13 0
BBX 13 14 0 0
BITMAP
09EE305CEEA100
9EFFAA724EFB00
508FF40007FF20
007FD00004FF30
007FD00006FE10
007FD0002DF500
007FD017EC4000
007FEBD9400000
007FE300000000
007FD000039200
006FE0000BF900
003FF2000CF800
000BFC425FD100
00018DFFD81000
ENDCHAR
STARTCHAR uni0251
ENCODING 593
SWIDTH 542 0
DWIDTH 15 0
BBX 15 14 0 0
BITMAP
00004ADFD83E6000
0009F8326EFF6000
008F600005FF6000
03FC000000FF6000
08F8000000EF6000
0DF6000000EF6000
0FF5000000EF6000
1FF6000000EF6000
0FF7000000EF6000
0DFB000000EF6000
0AFF200000EF6000
03FFD4003BFF7000
008FFFFFF7DFD720
0006CEEA20DDB820
ENDCHAR
STARTCHAR uni0252
ENCODING 594
SWIDTH 544 0
DWIDTH 15 0
BBX 15 14 0 0
BITMAP
17ADF118DED70000
17CFF5EFFFFFB000
004FFD5104CFF600
003FF200001EFC00
003FF2000008FF10
003FF2000005FF30
003FF2000003FF30
003FF2000003FF20
003FF2000003FF10
003FF2000005FB00
003FF200000AF500
003FF700004FA000
003FFF7227EB1000
003D37DFEB500000
ENDCHAR
STARTCHAR uni0253
ENCODING 595
SWIDTH 518 0
DWIDTH 15 0
BBX 12 21 2 0
BITMAP
003ADED81000
04E53BFFA000
1EA000BFC000
7F7000162000
BF7000000000
CF7000000000
DF7000000000
DF704BED9100
DF77FFFFFD10
DFCC3029FFA0
DFB00000CFF1
DF7000006FF5
DF7000003FF7
DF7000001FF8
DF7000001FF6
DF7000002FF5
DF7000004FE1
DF7000008F90
DF800002EE10
DFF8325DD300
27BEFEC71000
ENDCHAR
STARTCHAR uni0254
ENCODING 596
SWIDTH 454 0
DWIDTH 13 0
BBX 12 14 0 0
BITMAP
0005CEEC6000
009FFFFFFB10
06E8435CFF90
1D300000CFF2
130000003FF6
000000000DF9
000000000AFA
0000000008FA
0000000008F8
014000000AF5
0CF800000DE0
0CFE10006F60
05FFB238F800
003ADFEA4000
ENDCHAR
STARTCHAR uni0255
ENCODING 597
SWIDTH 447 0
DWIDTH 13 0
BBX 12 18 0 -4
BITMAP
00006CEED810
001CD524EFD1
00BE20007FF6
04F800001EF7
0AF400000261
0EF300000000
0FF200000000
1FF300000000
0FF600000000
0CFA0019DD90
08FF21DA33D7
01EFCB800098
005FFF5226E3
0004EDFEDA30
000790000000
000D20000000
004C00000000
001200000000
ENDCHAR
STARTCHAR uni0256
ENCODING 598
SWIDTH 528 0
DWIDTH 15 0
BBX 18 26 0 -6
BITMAP
0000000026AE600000
000000009CFF600000
0000000000FF600000
0000000000EF600000
0000000000EF600000
0000000000EF600000
00004ADFD8FF600000
0009F8326EFF600000
008F600005FF600000
03FD000000FF600000
08F8000000EF600000
0DF6000000EF600000
0FF6000000EF600000
1FF6000000EF600000
0FF8000000EF600000
0DFB000000EF600000
0AFF400000EF600000
03FFE6114CFF600000
008FFFFFE6DF600000
0006CEE920DF600000
0000000000DF600000
0000000000CF600000
00000000009F700000
00000000005F8005F8
00000000000CD34EF9
0000000000019DFE91
ENDCHAR
STARTCHAR uni0257
ENCODING 599
SWIDTH 542 0
DWIDTH 15 0
BBX 19 21 0 0
BITMAP
0000000000004BDDA300
000000000006E53DFE00
00000000002F9004FF10
00000000007F70004500
0000000000BF60000000
0000000000DF60000000
0000000000EF60000000
00004ADFD8FF60000000
0009F8326EFF60000000
008F600005FF60000000
03FD000000FF60000000
08F8000000EF60000000
0DF6000000EF60000000
0FF6000000EF60000000
1FF6000000EF60000000
0FF8000000EF60000000
0DFB000000EF60000000
0AFF300000EF60000000
03FFD5003BFF70000000
008FFFFFF7DFD7300000
0006CEE920DDB8300000
ENDCHAR
STARTCHAR uni0258
ENCODING 600
SWIDTH 466 0
DWIDTH 13 0
BBX 12 14 1 0
BITMAP
0028DFD93000
03EE624BE400
1DF50000DE10
7FE000007F80
CFB000004FC0
EFFEEEEEEFF0
222222225FF1
000000004FF1
000000008FE0
20000000DFB0
C3000008FF60
4F8324AFFC00
08FFFFFFD200
005BEEC71000
ENDCHAR
STARTCHAR uni0259
ENCODING 601
SWIDTH 464 0
DWIDTH 13 0
BBX 11 14 1 0
BITMAP
005BEEC71000
08FFFFFFC200
4F8435CFFC00
C300000BFF50
30000001EFB0
000000009FE0
000000006FF0
000000004FF0
EEEEEEEEEFE0
EFA222226FB0
AFC000007F60
3FF30001DC00
06FD524CD200
004BEED81000
ENDCHAR
STARTCHAR uni025A
ENCODING 602
SWIDTH 642 0
DWIDTH 18 0
BBX 17 14 1 0
BITMAP
005BEFC70000000000
07FFFFFFC100000000
4F9435CFFB00450000
C400000BFF6AF800B0
30000001EFE3CD14A0
000000009FD04EFD20
000000006FF0001000
000000004FF0000000
EEEEEEEEEFE0000000
EFA222226FB0000000
AFC000007F60000000
3FF30001DD10000000
06FD524CD300000000
004BEED81000000000
ENDCHAR
STARTCHAR uni025B
ENCODING 603
SWIDTH 399 0
DWIDTH 11 0
BBX 10 14 1 0
BITMAP
018CEFEA30
2DF723BFF3
9FA0001EF7
BF80000371
7FB0000000
08F8200000
005EFFE000
09FB532000
8FC0000000
EF80000000
FF70000000
CFA0000026
4FF83237C2
03ADFEC710
ENDCHAR
STARTCHAR uni025C
ENCODING 604
SWIDTH 398 0
DWIDTH 11 0
BBX 11 14 0 0
BITMAP
029DEFD93000
1EFD326EF400
4FF30008FC00
07500006FD00
00000009F900
0000016FB100
000BFFF70000
000224AFB100
0000000BFB00
00000006FF10
00000004FF20
44000007FD00
1C94226EF500
007CEFD93000
ENDCHAR
STARTCHAR uni025D
ENCODING 605
SWIDTH 575 0
DWIDTH 16 0
BBX 16 14 0 0
BITMAP
029DEFD920000000
1EFD326EE3000000
4FF30008FB035000
07500006FE9FA00A
00000009FC4AE12C
0000016E9103EFE4
000BFFF810000100
000224AFD2000000
0000000BFC000000
00000006FF100000
00000004FF100000
44000007FD000000
1C94226EF4000000
007CEED920000000
ENDCHAR
STARTCHAR uni025E
ENCODING 606
SWIDTH 500 0
DWIDTH 14 0
BBX 12 14 1 0
BITMAP
0004ADFEC710
009FB4238FD2
09F900000BF9
4FE1000009FB
AF9000000BF7
DF6000028F90
FF400CFFE500
FF400224AF90
DF5000000CF8
AF90000008FE
4FE0000008FF
09F800001DFC
01AFA424CFE3
0004ADFEC920
ENDCHAR
STARTCHAR uni025F
ENCODING 607
SWIDTH 272 0
DWIDTH 8 0
BBX 11 20 -3 -6
BITMAP
000179CF4000
000159FF4000
000002FF4000
000001FF4000
000001FF4000
0005EEFFEE40
000123FF5210
000001FF4000
000001FF4000
000001FF4000
000001FF4000
000001FF4000
000001FF4000
000001FF3000
000002FF2000
000002FF1000
051003FC0000
7FD105F70000
6FFB5CC10000
08DFD9100000
ENDCHAR
STARTCHAR uni0260
ENCODING 608
SWIDTH 541 0
DWIDTH 15 0
BBX 19 27 0 -6
BITMAP
0000000000004ADEC700
000000000005E43CFF80
00000000001E8001DFA0
00000000008F60001620
0000000000CF50000000
0000000000EF50000000
0000000000EF50000000
00004BDEC6FF50000000
0009F8326EFF50000000
008F600005FF50000000
03FC000000FF50000000
08F8000000FF50000000
0DF6000000FF50000000
0FF5000000FF50000000
1FF6000000FF50000000
0FF8000000FF50000000
0DFC000000FF50000000
0AFF400000FF50000000
03FFE6214CFF50000000
008FFFFFE5FF50000000
0006CFE920FF50000000
0000000000FF40000000
0000000001FF20000000
0163000004FD00000000
07FE30000AF600000000
04FFE523AF8000000000
0039DEFDA40000000000
ENDCHAR
STARTCHAR uni0261
ENCODING 609
SWIDTH 521 0
DWIDTH 15 0
BBX 13 20 0 -6
BITMAP
00004BDED83C50
0009F8326EFF50
008F600005FF50
03FC000000FF50
08F8000000FF50
0DF6000000FF50
0FF5000000FF50
1FF6000000FF50
0FF8000000FF50
0DFC000000FF50
0AFF400000FF50
03FFE6214CFF50
008FFFFFE5FF50
0006CFE920FF50
0000000000FF40
0000000001FF20
0163000004FD00
07FE30000AF600
04FFE523AF9000
0039DEFDA40000
ENDCHAR
STARTCHAR uni0262
ENCODING 610
SWIDTH 535 0
DWIDTH 15 0
BBX 14 14 1 0
BITMAP
00049DEFFFFF00
019FC5225DFF00
0AFB000000CF00
4FF20000004F00
AFC00000000E00
DFA00000000000
FF900000000000
FF900001EEEEE6
EFA000003AFF61
BFD0000004FF00
6FF3000003FF00
0CFC100003FF00
02CFD5225CFB00
0006BEFEDA3000
ENDCHAR
STARTCHAR uni0263
ENCODING 611
SWIDTH 479 0
DWIDTH 13 0
BBX 15 20 -1 -6
BITMAP
6FFFFF8000FFFFE0
14EFF5100029FA20
006FF3000008E100
001EF900000D9000
0009FE10004F3000
0003FF6000AB0000
0000CFB001F50000
00006FF207D00000
00000EF80C700000
000008FD3F100000
000002FFCA000000
000000BFF4000000
0000005FF2000000
0000007FF9000000
000000E9FE000000
000005C1EF500000
00000A809F800000
00000C606F900000
00000AB2AF500000
000002CFD7000000
ENDCHAR
STARTCHAR uni0264
ENCODING 612
SWIDTH 466 0
DWIDTH 13 0
BBX 13 14 0 0
BITMAP
19DFC603BED800
AF827FDD52AF80
DF3008FC105FC0
7A003EAF901B60
0000B62FF20000
0004D00AF90000
000A7005FE0000
000E3001FF3000
002E0000EF6000
004D0000DF6000
003E0000EF5000
001F3002FF1000
0009D43BF70000
00008EFD600000
ENDCHAR
STARTCHAR uni0265
ENCODING 613
SWIDTH 553 0
DWIDTH 15 0
BBX 16 20 0 -6
BITMAP
26ADD000037BE400
39EFD00009CFF400
007FD000002FF400
007FD000001FF400
007FD000001FF400
007FD000001FF400
007FD000001FF400
007FD000001FF400
007FE000001FF400
006FF000001FF400
004FF300004FF400
001FFB1017DFF400
0009FFFDFB2FF400
00008EFC601FF400
00000000001FF400
00000000001FF400
00000000001FF400
00000000001FF500
00000000001FFB21
00000000001FFFF6
ENDCHAR
STARTCHAR uni0266
ENCODING 614
SWIDTH 577 0
DWIDTH 16 0
BBX 16 21 0 0
BITMAP
000006BEEB500000
00009C34DFF50000
0005F4003EF70000
000CF20003610000
001FF20000000000
002FF20000000000
003FF20000000000
003FF205CEE91000
003FF2AFDFFFA000
003FFD9101AFF100
003FF600002FF500
003FF200000EF700
003FF200000DF700
003FF200000CF800
003FF200000CF800
003FF200000CF800
003FF200000CF800
003FF200000CF800
004FF200000DF800
02AFF820025FFD41
2FFFFFF30DFFFFF8
ENDCHAR
STARTCHAR uni0267
ENCODING 615
SWIDTH 562 0
DWIDTH 16 0
BBX 14 27 0 -6
BITMAP
000006BEEB5000
00009C34DFF500
0005F4003EF700
000CF200036100
001FF200000000
002FF200000000
003FF200000000
003FF205CEE910
003FF2AFDFFFA0
003FFD9101AFF1
003FF600002FF5
003FF200000EF7
003FF200000DF7
003FF200000CF8
003FF200000CF8
003FF200000CF8
003FF200000CF8
003FF200000CF8
004FF200000CF8
02AFF820000CF8
2FFFFFF3000CF7
00000000000DF7
00000000000DF5
00000000000EF2
000002ED201FC0
000003FFD59F40
0000006DFEB300
ENDCHAR
STARTCHAR uni0268
ENCODING 616
SWIDTH 295 0
DWIDTH 8 0
BBX 8 20 0 0
BITMAP
001CE500
005FFB00
001CE500
00000000
00000000
00000000
047BE500
0ADFF500
001FF500
000FF500
000FF500
000FF500
1EEFFFE6
022FF621
000FF500
000FF500
000FF500
000FF500
027FFA20
0FFFFFF5
ENDCHAR
STARTCHAR uni0269
ENCODING 617
SWIDTH 286 0
DWIDTH 8 0
BBX 9 14 0 0
BITMAP
169DD00000
4AEFD00000
008FD00000
007FD00000
007FD00000
007FD00000
007FD00000
007FD00000
007FD00000
007FD00000
007FD00000
006FE00010
002FF62950
0006DFC400
ENDCHAR
STARTCHAR uni026A
ENCODING 618
SWIDTH 287 0
DWIDTH 8 0
BBX 8 14 0 0
BITMAP
2FFFFFF3
028FF920
003FF300
002FF300
002FF300
002FF300
002FF300
002FF300
002FF300
002FF300
002FF300
003FF300
028FF920
2FFFFFF3
ENDCHAR
STARTCHAR uni026B
ENCODING 619
SWIDTH 290 0
DWIDTH 8 0
BBX 10 20 -1 0
BITMAP
0037BF3000
02ADFF3000
0003FF3000
0002FF3000
0002FF3000
0002FF3000
0002FF3000
0002FF3021
02BEFF31B0
0B55FFFE50
1502FF4000
0002FF3000
0002FF3000
0002FF3000
0002FF3000
0002FF3000
0002FF3000
0003FF3000
0029FF9200
02FFFFFF50
ENDCHAR
STARTCHAR uni026C
ENCODING 620
SWIDTH 318 0
DWIDTH 9 0
BBX 11 20 -1 0
BITMAP
00159CF00000
0037CFF00000
00005FF00000
00005FF00000
00005FF00000
00005FF00000
019EFFF00000
0AE46FF00000
1F805FF00000
2F705FF00710
1FC15FF2A900
08FDBFFFA000
005BDFF40000
00005FF00000
00005FF00000
00005FF00000
00005FF00000
00006FF00000
0002BFF72000
004FFFFFF200
ENDCHAR
STARTCHAR uni026D
ENCODING 621
SWIDTH 248 0
DWIDTH 7 0
BBX 10 26 0 -6
BITMAP
26AE800000
8BFF800000
00CF800000
00CF800000
00CF800000
00CF800000
00CF800000
00CF800000
00CF800000
00CF800000
00CF800000
00CF800000
00CF800000
00CF800000
00CF800000
00CF800000
00CF800000
00CF800000
00CF800000
00BF800000
00BF800000
00AF900000
007F900021
002FC007FB
0009F77FFB
00007CFEB2
ENDCHAR
STARTCHAR uni026E
ENCODING 622
SWIDTH 590 0
DWIDTH 17 0
BBX 17 26 0 -6
BITMAP
048CF2000000000000
29CFF2000000000000
004FF2000000000000
003FF2000000000000
003FF2000000000000
003FF2000000000000
003FFFFFFFFFFFF900
003FF3111111BFF200
003FF2000005FF7000
003FF200001EFB0000
003FF20000AFE20000
003FF20005FF600000
003FF2001EFB000000
003FF200AFE2000000
003FF204FFA2000000
003FF20389DFD60000
003FF2000006FFA000
003FF20000005FF700
029FF92000000CFD00
2FFFFFF4000008FF00
00000000000007FF10
00000000000009FE00
0000076000000DF800
00003FF500007FD100
00001EFE325AFB1000
000002ADFEC9300000
ENDCHAR
STARTCHAR uni026F
ENCODING 623
SWIDTH 846 0
DWIDTH 24 0
BBX 23 14 0 0
BITMAP
169DD000169DC000169DD000
4AEFD0004AEFC0004AEFD000
008FD000009FC000008FD000
007FD000008FC000007FD000
007FD000008FC000007FD000
007FD000008FC000007FD000
007FD000008FC000007FD000
007FD000008FC000007FD000
007FD000008FC000007FD000
007FD000008FC000007FD000
006FE000008FD000007FD000
003FF30003EFF10003EFE000
000CFC427D6EFB327B8FF410
00019EEC7103BEEB505ECA60
ENDCHAR
STARTCHAR uni0270
ENCODING 624
SWIDTH 826 0
DWIDTH 23 0
BBX 24 20 0 -6
BITMAP
26ADD00026ADC000169DD000
39EFD00049EFC00039EFD000
007FD000008FC000007FD000
007FD000008FC000007FD000
007FD000008FC000007FD000
007FD000008FC000007FD000
007FD000008FC000007FD000
007FD000008FC000007FD000
007FD000008FC000007FD000
007FE000008FD000007FD000
006FF10000AFE00000AFD000
003FF9003CDFF8003CDFD000
000CFFEDF90CFFEEF75FD000
00019EEB4001AEEA305FD000
0000000000000000005FD000
0000000000000000005FD000
0000000000000000005FD000
0000000000000000005FE000
0000000000000000005FF620
0000000000000000005FFFF1
ENDCHAR
STARTCHAR uni0271
ENCODING 625
SWIDTH 835 0
DWIDTH 23 0
BBX 22 20 0 -6
BITMAP
048CF104BEE80006CFD700
1DFFF29FDFFF71BFDFFF80
004FFCA201BFECA101CFE0
002FF700003FF800005FF2
002FF300001FF400002FF3
002FF300001FF400002FF3
002FF300001FF400002FF3
002FF300001FF400002FF3
002FF300001FF400002FF3
002FF300001FF400002FF3
002FF300001FF400002FF3
003FF400002FF500002FF3
028FFA20029FFB31002FF3
2FFFFFF44FFFFFF6002FF3
0000000000000000002FF2
0000000000000000002FF1
0000000000000000003FD0
00000000000005FA005F80
00000000000007FFA5CD10
000000000000019EFD9100
ENDCHAR
STARTCHAR uni0272
ENCODING 626
SWIDTH 574 0
DWIDTH 16 0
BBX 19 20 -3 -6
BITMAP
00018ADF117DFD800000
000028FF5B525EF90000
000003FFC10006FF1000
000003FF200001FF4000
000003FF200000EF6000
000003FF200000EF6000
000003FF200000EF6000
000003FF200000EF6000
000003FF200000EF6000
000003FF200000EF6000
000003FF200000EF6000
000003FF200000EF7000
000003FF200026FFC310
000003FF2000FFFFFF70
000003FF100000000000
000003FE000000000000
000004FC000000000000
6F9006F6000000000000
8FF95DC0000000000000
19EFD810000000000000
ENDCHAR
STARTCHAR uni0273
ENCODING 627
SWIDTH 563 0
DWIDTH 16 0
BBX 19 20 0 -6
BITMAP
048BF105CEE800000000
1DFFF2AFDFFF90000000
004FFC9101BFF1000000
003FF600003FF5000000
003FF200000FF6000000
003FF200000EF7000000
003FF200000DF7000000
003FF200000DF7000000
003FF200000DF7000000
003FF200000DF7000000
003FF200000DF7000000
003FF300000DF7000000
029FF920000DF7000000
2FFFFFF4000DF7000000
00000000000DF7000000
00000000000BF7000000
000000000009F8000000
000000000004FA007F80
000000000000AF67FFA0
00000000000007DFEA20
ENDCHAR
STARTCHAR uni0274
ENCODING 628
SWIDTH 568 0
DWIDTH 16 0
BBX 16 14 0 0
BITMAP
7FFFD10000CFFFF7
15EFFA000016FE51
007FFF700000C900
006DEFF40000B700
006B4FFE2000A700
006B06FFC000A700
006B009FF900A700
006B000CFF50A700
006B0001DFE3A700
006B00003FFDB700
006B000005FFF700
007C0000008FF700
13DF5100000BF700
7FFFFB000001D700
ENDCHAR
STARTCHAR uni0275
ENCODING 629
SWIDTH 514 0
DWIDTH 14 0
BBX 13 14 1 0
BITMAP
0006BEFD930000
01CF8326EF6000
0BF800004FF400
5FE100000BFC00
AFB0000006FF20
EF90000004FF50
FFFEEEEEEEFF60
FFA2222224FF60
EFA0000004FF40
BFD0000005FF10
6FF2000009FB00
0CFA00001EF200
02DFA325CE5000
0017CEED920000
ENDCHAR
STARTCHAR uni0276
ENCODING 630
SWIDTH 732 0
DWIDTH 21 0
BBX 19 14 1 0
BITMAP
0006BEFFFFFFFFFFFB00
01CFA423BFF21124CC00
0BFA00005FF000002D00
5FF200005FF000000500
BFD000005FF0000A2000
EFB000005FF0003E2000
FFA000005FFEEFFF2000
FFA000005FF2225E2000
EFB000005FF0000A2000
BFD000005FF000000240
6FF200005FF000000870
0CF900005FF000001E50
02DFA423BFF21225CF20
0006BEFFFFFFFFFFFF00
ENDCHAR
STARTCHAR uni0277
ENCODING 631
SWIDTH 672 0
DWIDTH 19 0
BBX 18 14 0 0
BITMAP
0000039CEFEB820000
0001AFB63237DF8100
002DF600000019FB10
00CF8000000000CF90
05FF10000000004FF2
0AFB0000BF90000EF7
0EF90002FFE0000CFB
0FF80001FFC0000BFC
1FF90000DFA0000CFD
0EFB00009F70000DFB
0AFD00006F40002FF7
03FF40009C80007FE1
006FD427C1C626FE40
0004BEE9101AEEA300
ENDCHAR
STARTCHAR uni0278
ENCODING 632
SWIDTH 658 0
DWIDTH 18 0
BBX 17 26 1 -6
BITMAP
0000037BE400000000
000009BFF400000000
0000000FF400000000
0000000FF400000000
0000000FF400000000
0000000FF400000000
0003ADFFFFEC810000
008FE72FF66DFE5000
08FD100FF400BFF300
3FF4000FF4001EFC00
9FD0000FF40008FF20
DFA0000FF40004FF60
FF80000FF40002FF70
FF90000FF40002FF60
EFA0000FF40003FF40
BFD0000FF40006FE00
6FF4000FF4000AF800
0CFD100FF4004FD100
02CFD51FF417EC2000
0006ADEFFEEB600000
0000000FF400000000
0000000FF400000000
0000000FF400000000
0000000FF500000000
0000026FFA21000000
00000EFFFFF7000000
ENDCHAR
STARTCHAR uni0279
ENCODING 633
SWIDTH 380 0
DWIDTH 11 0
BBX 10 14 0 0
BITMAP
003FFFFFFC
00024EFF41
000009FC00
000008FC00
000008FC00
000008FC00
000008FC00
000008FC00
000008FC00
000009FC00
00003FFC00
7E83CAFD00
BFFF57FFB7
6ED507EA51
ENDCHAR
STARTCHAR uni027A
ENCODING 634
SWIDTH 374 0
DWIDTH 10 0
BBX 10 20 0 0
BITMAP
000159DC00
0006BFFC00
000009FC00
000008FC00
000008FC00
000008FC00
000008FC00
000008FC00
000008FC00
000008FC00
000008FC00
000008FC00
000008FC00
000008FC00
000008FC00
000009FC00
00003FFC00
7E83CAFD00
BFFF57FFB7
6ED507EA51
ENDCHAR
STARTCHAR uni027B
ENCODING 635
SWIDTH 375 0
DWIDTH 11 0
BBX 14 20 0 -6
BITMAP
003FFFFFFC0000
00024EFF410000
000009FC000000
000008FC000000
000008FC000000
000008FC000000
000008FC000000
000008FC000000
000008FC000000
000009FC000000
00003FFC000000
7E83CAFC000000
BFFF57FC000000
6ED507FC000000
000007FC000000
000006FC000000
000003FD000110
000000DF103EE1
0000005FA5DFF1
00000004BEEC50
ENDCHAR
STARTCHAR uni027C
ENCODING 636
SWIDTH 378 0
DWIDTH 11 0
BBX 11 20 0 -6
BITMAP
037BF119EC10
1BDFF1BFFF50
004FF893CD20
003FFB000000
003FF3000000
003FF2000000
003FF2000000
003FF2000000
003FF2000000
003FF2000000
003FF2000000
003FF2000000
003FF2000000
003FF2000000
003FF2000000
003FF2000000
003FF2000000
003FF3000000
029FFA310000
4FFFFFFB0000
ENDCHAR
STARTCHAR uni027D
ENCODING 637
SWIDTH 373 0
DWIDTH 10 0
BBX 11 20 0 -6
BITMAP
158CE01AEB00
2ADFE1CFFF30
006FEA64DC10
005FF9000000
005FF1000000
005FF0000000
005FF0000000
005FF0000000
005FF0000000
005FF0000000
005FF0000000
005FF0000000
005FF0000000
005FF0000000
005FF0000000
003FF0000000
001FF1001200
000BF302EF30
0003EB5CFF30
00003AEFD600
ENDCHAR
STARTCHAR uni027E
ENCODING 638
SWIDTH 371 0
DWIDTH 10 0
BBX 11 14 0 0
BITMAP
000019DFD700
0001D92BFF20
0009F301AB00
000EF1000000
003FF0000000
004FF0000000
005FF0000000
005FF0000000
005FF0000000
005FF0000000
005FF0000000
006FF1000000
12BFF9210000
6FFFFFF90000
ENDCHAR
STARTCHAR uni027F
ENCODING 639
SWIDTH 371 0
DWIDTH 10 0
BBX 10 14 0 0
BITMAP
3BEEB40000
BFE45F5000
6C300CE100
00000AF500
000009F800
000009FA00
000009FB00
000009FB00
000009FB00
000009FB00
000009FB00
00000AFB00
00025EFE41
004FFFFFFC
ENDCHAR
STARTCHAR uni0280
ENCODING 640
SWIDTH 494 0
DWIDTH 14 0
BBX 15 14 0 0
BITMAP
0BFFFFFEC8200000
005FF4139FE20000
002FF3000BF90000
002FF30008FC0000
002FF30009FB0000
002FF3000DF70000
002FF314BFA00000
002FFFFFA3000000
002FF58FE3000000
002FF30BFE200000
002FF301EFC10000
003FF3004FFA0000
028FF72009FF9300
2FFFFFF101DFFF40
ENDCHAR
STARTCHAR uni0281
ENCODING 641
SWIDTH 494 0
DWIDTH 14 0
BBX 15 14 0 0
BITMAP
2FFFFFF100DFFF40
028FF82008FFA300
003FF3004FFB0000
002FF301DFD10000
002FF30AFE300000
002FF35FF5000000
002FFFFF91000000
002FF536DF800000
002FF3002EF60000
002FF3000AFB0000
002FF30008FC0000
002FF3000BFA0000
005FF4239FE20000
0CFFFFFEC9200000
ENDCHAR
STARTCHAR uni0282
ENCODING 642
SWIDTH 395 0
DWIDTH 11 0
BBX 10 20 1 -6
BITMAP
02ADFD8860
4FC425DF60
BF30002F70
DF40000A70
BFD3000670
5FFF810000
07FFFE6000
003BFFFB10
00004CFFB0
900000AFF3
D300003FF4
DA00002FF2
DFA423BF90
D99EFEB600
D600000000
C600000000
A700000000
89008B0000
2E55FF1000
04CFD50000
ENDCHAR
STARTCHAR uni0283
ENCODING 643
SWIDTH 253 0
DWIDTH 7 0
BBX 14 27 -3 -6
BITMAP
00000004BEEB30
0000004F64EFE0
000000DD004FF1
000004FB000220
000007FB000000
000009FB000000
000009FB000000
000009FB000000
000009FB000000
000009FB000000
000009FB000000
000009FB000000
000009FB000000
000009FB000000
000009FB000000
000009FB000000
000009FB000000
000009FB000000
000009FB000000
000009FB000000
000009FB000000
000009FA000000
000009F9000000
12000AF6000000
CF400BF2000000
BFE34E90000000
2AEFD700000000
ENDCHAR
STARTCHAR uni0284
ENCODING 644
SWIDTH 286 0
DWIDTH 8 0
BBX 14 26 -3 -6
BITMAP
000000018DFD80
0000000CD38FF5
0000006F6007B1
000000CF400000
000000FF300000
000001FF300000
000002FF300000
000003FF300000
000003FF300000
000003FF300000
000003FF300000
000003FF300000
000003FF300000
000003FF300000
000003FF300000
000003FF300000
000003FF300000
000003FF300000
000114FF411000
0006FFFFFF6000
000003FF200000
000003FF100000
000004FD000000
075005F7000000
4FF83BC1000000
08EFD810000000
ENDCHAR
STARTCHAR uni0285
ENCODING 645
SWIDTH 361 0
DWIDTH 10 0
BBX 13 20 0 -6
BITMAP
1AEEC600000000
AFE43E70000000
AE300AF1000000
000009F7000000
000008FA000000
000008FB000000
000008FB000000
000008FC000000
000008FC000000
000008FC000000
000008FC000000
000008FC000000
000008FC000000
000008FC000000
000008FC000000
000007FC000000
000004FC000110
000001ED002EE0
0000007F52CFE0
00000006CEEB30
ENDCHAR
STARTCHAR uni0286
ENCODING 646
SWIDTH 253 0
DWIDTH 7 0
BBX 14 27 -3 -6
BITMAP
00000004BEEB30
0000004F64EFE0
000000DD004FE1
000004FB000220
000007FB000000
000009FB000000
000009FB000000
000009FB000000
000009FB000000
000009FB000000
000009FB000000
000009FB000000
000009FB000000
000009FB000000
000009FB000000
000009FB000000
000009FB000000
000009FB000000
000009FB000000
000009FB000000
000009FB000000
018DEFFB000000
1DB43BFF910000
5D000AF99D1000
6C000DF3030000
3E527FA0000000
05CED700000000
ENDCHAR
STARTCHAR uni0287
ENCODING 647
SWIDTH 315 0
DWIDTH 9 0
BBX 8 18 0 -4
BITMAP
06DFC300
7829FD00
2003FF20
0001FF40
0001FF40
0001FF40
0001FF40
0001FF40
0001FF40
0001FF40
0001FF40
0001FF40
0112FF51
4FFFFFF9
0001FF90
0001FD00
0002F500
0002D000
ENDCHAR
STARTCHAR uni0288
ENCODING 648
SWIDTH 309 0
DWIDTH 9 0
BBX 10 25 1 -6
BITMAP
0006000000
002F100000
008F000000
02EF000000
0BFF000000
AFFFFFF300
48FF444100
05FF000000
05FF000000
05FF000000
05FF000000
05FF000000
05FF000000
05FF000000
05FF000000
05FF000000
05FF000000
05FF000000
05FF000000
04FF000000
02FF100000
00EF100130
00AF302EF3
002EB5CFF3
0002AEFD60
ENDCHAR
STARTCHAR uni0289
ENCODING 649
SWIDTH 580 0
DWIDTH 16 0
BBX 16 14 0 0
BITMAP
29BDF00029BDF400
17CFF00026BFF400
005FF000002FF400
005FF000000FF400
005FF000000FF400
005FF000000FF400
3EFFFEEEEEEFFFE4
026FF222222FF621
005FF000000FF400
004FF000000FF400
003FF200000FF400
001FF600006FF500
0009FE624AAEF800
00008EFDA30EECA2
ENDCHAR
STARTCHAR uni028A
ENCODING 650
SWIDTH 548 0
DWIDTH 15 0
BBX 14 14 1 0
BITMAP
7FFFF100AFFFD0
126F90002FA320
005E100009B000
02E8000003F700
0BF3000000DF20
3FF0000000AF90
9FD00000008FE0
BFC00000007FF2
CFC00000007FF2
AFE00000008FF0
6FF2000000CFA0
0CFA000005FE30
02CFA4237FE400
0006BDFEC71000
ENDCHAR
STARTCHAR uni028B
ENCODING 651
SWIDTH 530 0
DWIDTH 15 0
BBX 14 14 0 0
BITMAP
3ACED00001EC20
26DFD00002FFA0
008FD000009FF1
007FD000001DF4
007FD0000005F7
007FD0000000E8
007FD0000000B7
007FD0000000B6
007FD0000000B4
006FE0000000D0
004FF100000490
001FF600001B10
0007FE6226B300
00005BEFD92000
ENDCHAR
STARTCHAR uni028C
ENCODING 652
SWIDTH 495 0
DWIDTH 14 0
BBX 15 14 -1 0
BITMAP
0000000EC0000000
0000005FF3000000
000000BFF8000000
000002F8FE000000
000008B2FF500000
00000E50CFB00000
00006E106FF20000
0000C9001FF70000
0003F3000AFD0000
0009D00005FF4000
001E700000EFA000
006F2000009FF100
04EF510002AFFB30
4FFFF9000DFFFFF0
ENDCHAR
STARTCHAR uni028D
ENCODING 653
SWIDTH 764 0
DWIDTH 21 0
BBX 23 14 -1 0
BITMAP
0000001F9000006F40000000
0000007FE10000CFA0000000
000000DFF50003FFF1000000
000003EAFA00099FF7000000
00000995FF100E3BFD000000
00001E41EF605C05FF300000
00005E00AFB0B700EF900000
0000B9004FF4F1009FE10000
0002F3000DFEA0003FF60000
0007D00008FF40000CFC0000
000D800003FF400006FF3000
004F300000DFA00001FF9000
03DF610002DFF61013EFF610
2FFFFB002FFFFFB05FFFFFA0
ENDCHAR
STARTCHAR uni028E
ENCODING 654
SWIDTH 492 0
DWIDTH 14 0
BBX 16 21 -1 0
BITMAP
00000000003ACA20
0000000005FFFF70
000000001EA7DE40
000000008D000000
00000001E5000000
00000006E0000000
0000000C90000000
0000003F70000000
0000008FC0000000
000000EFF3000000
000004CBFA000000
00000A77FF200000
00001F21FF800000
00006C009FE10000
0000C8003FF70000
0002F3000BFD0000
0008D00005FF5000
000D800000DFC000
004F4000008FF300
03CF6100029FFC30
1FFFFA000EFFFFF1
ENDCHAR
STARTCHAR uni028F
ENCODING 655
SWIDTH 454 0
DWIDTH 13 0
BBX 15 14 -1 0
BITMAP
6FFFFF4002FFFF20
15FFE300002EC300
007FF200002E2000
000BFB0000B60000
0002EF7005C00000
00007FF21D400000
00000CFA8A000000
000003FFE2000000
000000AFB0000000
0000009FB0000000
0000009FB0000000
000000AFB0000000
000013DFE4100000
0000AFFFFFB00000
ENDCHAR
STARTCHAR uni0290
ENCODING 656
SWIDTH 458 0
DWIDTH 13 0
BBX 17 20 0 -6
BITMAP
08FFFFFFFFFB000000
09F731119FF4000000
09A00003FF90000000
0A50000CFE10000000
0310007FF500000000
000002FFA000000000
00000BFE2000000000
00006FF60000000000
0002EFB00000000000
000AFF200019000000
005FF700005C000000
01EFC00000BB000000
0AFF411239FA000000
2FFFFFFFFFFA000000
000000000099000000
000000000099000000
00000000008A000000
00000000005C004A20
00000000001E73EF40
000000000003BEE800
ENDCHAR
STARTCHAR uni0291
ENCODING 657
SWIDTH 458 0
DWIDTH 13 0
BBX 13 19 0 -5
BITMAP
08FFFFFFFFFB00
09F721119FF400
0A900003FF9000
0A50000CFE1000
0210007FF50000
000002FFA00000
00000BFE200000
00006FF6000000
0002EFB0000000
000AFF204CEA10
005FF705D53D60
01EFC03D200A70
0AFF41C7125E30
2FFFFFFFEDA300
00000D40000000
00006B00000000
0000D400000000
0005C000000000
00023000000000
ENDCHAR
STARTCHAR uni0292
ENCODING 658
SWIDTH 443 0
DWIDTH 12 0
BBX 12 20 0 -6
BITMAP
0CFFFFFFFFF8
0DD42112DFE1
0D500008FF40
0E10003FF800
000001DFC000
000009FF3000
00004FF70000
0001EFB00000
0008FFB62000
0000149FFA10
00000003DFC0
000000004FF7
000000000CFC
000000000AFE
000000000AFE
000000000BFC
2DB000001FF6
5FF60000AFB0
1EFD335BF900
02ADFEC82000
ENDCHAR
STARTCHAR uni0293
ENCODING 659
SWIDTH 443 0
DWIDTH 12 0
BBX 12 25 0 -11
BITMAP
0CFFFFFFFFF8
0DD42112DFD1
0D500008FF40
0D10003FF800
000001DFC000
00000AFE2000
00005FF60000
0002EFA00000
0007FFC73000
0000038FFA10
00000003EFC0
000000005FF6
000000000EFB
000000000BFC
03CD70000BFC
0E74D7000DFA
1F102E202FF5
0E5006B0AFC0
05E832ECFC10
003ADFFF6000
0000000C6000
00000004E100
00000000A900
000000002E10
000000000100
ENDCHAR
STARTCHAR uni0294
ENCODING 660
SWIDTH 383 0
DWIDTH 11 0
BBX 11 21 0 0
BITMAP
0039DEDA4000
06FC436EF600
1FF40004FE10
3FF20000FF60
0A900000DF90
00000000DF90
00000000EF80
00000002FF50
00000007FE10
0000003EF400
000005EE4000
0018DC710000
003FF2000000
003FF2000000
003FF2000000
003FF2000000
003FF2000000
003FF2000000
004FF3000000
02AFFA310000
4FFFFFF80000
ENDCHAR
STARTCHAR uni0295
ENCODING 661
SWIDTH 383 0
DWIDTH 11 0
BBX 10 21 0 0
BITMAP
0039DEDA30
06FD535EF4
2FF20008FD
9FB00006FE
DF900002B7
EF80000000
DF90000000
AFC0000000
4FF2000000
0AFB000000
009FB20000
00039DB600
000006FE00
000006FE00
000006FE00
000006FE00
000006FE00
000006FE00
000007FF00
00013DFF62
000DFFFFFF
ENDCHAR
STARTCHAR uni0296
ENCODING 662
SWIDTH 408 0
DWIDTH 11 0
BBX 11 20 0 0
BITMAP
026AE6000000
0ACFF6000000
000EF6000000
000EF6000000
000EF6000000
000EF6000000
000EF6000000
000EF6000000
000EF7000000
00038DB50000
000001AFB100
0000000CFA00
00000004FF30
00000000FF70
00000000DF90
04300000DF90
2FF10000EF70
3FF30002FF20
0AF9001BF600
007CDDDA3000
ENDCHAR
STARTCHAR uni0297
ENCODING 663
SWIDTH 437 0
DWIDTH 12 0
BBX 12 20 0 -6
BITMAP
00004AEED810
0007F824EFD1
005F80006FF6
00DE10001DF7
04FA00000251
09F700000000
0CF500000000
0EF300000000
0FF300000000
1FF300000000
0FF300000000
0FF500000000
0DF700000000
0AFB00000000
06FF20000003
01EFA000006A
007FFA3129E2
000BFFFFFF50
00008EFFB300
000000100000
ENDCHAR
STARTCHAR uni0298
ENCODING 664
SWIDTH 736 0
DWIDTH 21 0
BBX 20 20 0 0
BITMAP
00000039CEFEC8200000
00001BFB52238EF70000
0003DF70000002CFA000
001EF7000000001DF900
00BFC00000000004FF40
04FF400000000000BFC0
09FE0000000000007FF3
0DFB0000000000002FF7
0FF900001BE600000FF9
1FF800007FFE00000EFA
1FF800007FFE00000EFA
0FF900001BE600000FF9
0CFB0000000000002FF6
08FF0000000000007FF2
03FF500000000000BFC0
00AFC00000000004FF40
001DF7000000001DF900
0003DF60000001CFA000
00001AFB52238EE70000
00000038CEFDB7100000
ENDCHAR
STARTCHAR uni0299
ENCODING 665
SWIDTH 485 0
DWIDTH 14 0
BBX 13 14 0 0
BITMAP
1DFFFFFED93000
004FF4138FF400
002FF3000BFC00
002FF30009FD00
002FF3000BFA00
002FF3017FC200
002FFEFFF70000
002FF5249FD400
002FF30007FE20
002FF30001FF80
002FF30000FF90
003FF30003FF60
006FF4225DFC00
1EFFFFFFEB6000
ENDCHAR
STARTCHAR uni029A
ENCODING 666
SWIDTH 500 0
DWIDTH 14 0
BBX 12 14 1 0
BITMAP
017CEFDA4000
2DF8324BF900
9FB00000AF90
BF8000001EF4
7FB0000009FA
08F8200006FD
005EFFC004FF
09FA532004FF
8FC0000006FD
EF80000009FA
FF8000000EF4
CFD000008F90
4EFC424AF910
029CEFDA4000
ENDCHAR
STARTCHAR uni029B
ENCODING 667
SWIDTH 536 0
DWIDTH 15 0
BBX 17 19 1 0
BITMAP
0000000000008DEC20
000000000008C3BF90
00000000000E401C60
00000000002F100000
00000000004F000000
00039DEFFFFF000000
009FC5225CFF000000
09FB000000AF000000
4FF20000002F000000
AFC000000009000000
DFA000000000000000
EF9000000000000000
FF900000EEEEE60000
EFA0000039FF610000
BFD0000003FF100000
6FF3000003FF000000
0CFC100003FF000000
02CFD5225CFC000000
0006BDFFDA40000000
ENDCHAR
STARTCHAR uni029C
ENCODING 668
SWIDTH 599 0
DWIDTH 17 0
BBX 16 14 0 0
BITMAP
1FFFFFF306FFFFFE
029FF920013BFF62
003FF3000006FE00
002FF3000005FE00
002FF3000005FE00
002FF3000005FE00
002FFEEEEEEFFE00
002FF5222227FE00
002FF3000005FE00
002FF3000005FE00
002FF3000005FE00
003FF3000006FE00
028FF920012BFF52
1FFFFFF306FFFFFE
ENDCHAR
STARTCHAR uni029D
ENCODING 669
SWIDTH 263 0
DWIDTH 7 0
BBX 10 25 -2 -6
BITMAP
00005ED200
0000AFF700
00004ED200
0000000000
0000000000
00169CF200
0028CFF200
00004FF200
00003FF200
00003FF200
00003FF200
00003FF200
00003FF200
00003FF200
00003FF200
00003FF200
00003FF200
00003FF200
00003FF200
06BEEFF200
7E636FFC40
E5004FE5E6
F2006FA011
BA23DE2000
2AEEA20000
ENDCHAR
STARTCHAR uni029E
ENCODING 670
SWIDTH 542 0
DWIDTH 15 0
BBX 15 20 0 -6
BITMAP
EFFFFF40FFFFFF50
25EFF60027FFB310
003EFC0000FF6000
0005FFA000EF6000
00006FF800EF6000
000008FF60EF6000
000000AFF4EF6000
0000001CFEFF6000
00000004F4EF6000
0000005E40EF6000
000007E400EF6000
00009F4000EF6000
025CFD2000EF6000
0EFFFFF200EF6000
0000000000EF6000
0000000000EF6000
0000000000EF6000
0000000000EF6000
0000000000EFC310
0000000000EFFF80
ENDCHAR
STARTCHAR uni029F
ENCODING 671
SWIDTH 440 0
DWIDTH 12 0
BBX 12 14 0 0
BITMAP
6FFFFFF00000
13DFF7200000
008FE0000000
007FD0000000
007FD0000000
007FD0000000
007FD0000000
007FD0000000
007FD0000000
007FD0000003
007FD000003C
007FD00000AA
00AFF20027F8
5EFFFFFFFFF5
ENDCHAR
STARTCHAR uni02A0
ENCODING 672
SWIDTH 541 0
DWIDTH 15 0
BBX 19 27 0 -6
BITMAP
0000000000003ADEC700
000000000005E53CFF80
00000000001E8001DFA0
00000000007F60001720
0000000000BF50000000
0000000000DF50000000
0000000000EF50000000
00004BDED8FF50000000
0009F8326EFF50000000
008F600005FF50000000
03FC000000FF50000000
08F8000000FF50000000
0DF6000000FF50000000
0FF5000000FF50000000
1FF6000000FF50000000
0FF8000000FF50000000
0DFC000000FF50000000
0AFF400000FF50000000
03FFE6214CFF50000000
008FFFFFE5FF50000000
0006CFE920FF50000000
0000000000FF50000000
0000000000FF50000000
0000000000FF50000000
0000000001FF60000000
0000000139FFB3000000
00000009FFFFFF300000
ENDCHAR
STARTCHAR uni02A1
ENCODING 673
SWIDTH 393 0
DWIDTH 11 0
BBX 11 21 0 0
BITMAP
0028CEDB5000
03ED535EF700
0DF60003FF20
1FF40000DF80
0BD10000BFB0
00000000BFB0
00000000BFB0
00000000DF80
00000003FF40
0000000AFB00
0000008FC100
00015BE81000
001EF8100000
001FF4000000
001FF4000000
2EEFFFEE7000
023FF6221000
001FF4000000
002FF5000000
027FFB310000
2FFFFFFB0000
ENDCHAR
STARTCHAR uni02A2
ENCODING 674
SWIDTH 393 0
DWIDTH 11 0
BBX 11 21 0 0
BITMAP
0028CEDB4000
03EE634DF500
1DF40006FE00
6FE00004FF20
AFB00001DB00
BFB000000000
BFB000000000
9FD000000000
4FF200000000
0CF900000000
02DF70000000
0019FB400000
000018FE1000
000004FF1000
000004FF1000
007EEFFFEE20
001226FF3200
000004FF1000
000005FF2000
00013BFF8200
000BFFFFFF20
ENDCHAR
STARTCHAR uni02A3
ENCODING 675
SWIDTH 830 0
DWIDTH 23 0
BBX 23 20 0 0
BITMAP
0000000026AE600000000000
000000009CFF600000000000
0000000000FF600000000000
0000000000EF600000000000
0000000000EF600000000000
0000000000EF600000000000
00004ADFEAEFFFFFFFFFFF30
0009F8325DFF7111114FFD10
008F600002FF600000BFF400
03FD000000EF600006FF9000
08F8000000EF60002EFD1000
0DF6000000EF6000BFF40000
0FF6000000EF6005FF800000
1FF6000000EF601EFD100000
0FF8000000EF60AFF3000000
0DFB000000EF65FF80000A40
0AFF400000EF7EFD00000E30
03FFE6114CFFEFF300006F30
008FFFFFE6DFFFA44448EF20
0006CEE920DFFFFFFFFFFF10
ENDCHAR
STARTCHAR uni02A4
ENCODING 676
SWIDTH 838 0
DWIDTH 23 0
BBX 23 26 0 -6
BITMAP
0000000026AE600000000000
000000009CFF600000000000
0000000000FF600000000000
0000000000EF600000000000
0000000000EF600000000000
0000000000EF600000000000
00004ADFEAEFFFFFFFFFFF80
0009F9325DFF7111112DFF40
008F700003FF6000007FF800
03FD000000EF600002EFD000
08F8000000EF60000BFF3000
0DF6000000EF60006FF80000
0FF6000000EF6001EFC00000
1FF6000000EF600AFF200000
0FF8000000EF604FF9000000
0DFB000000EF604ACFEA4000
0AFF300000EF6000019FF800
03FFD5003BFF70000008FF40
008FFFFFF7DFD7200000EFB0
0006CEEA30DDB8200000AFD0
00000000000000000000AFE0
00000000000000000000BFC0
00000000000074000000EF60
000000000005FF300008FB00
000000000002EFB0029F9100
0000000000003AEEEC820000
ENDCHAR
STARTCHAR uni02A5
ENCODING 677
SWIDTH 829 0
DWIDTH 23 0
BBX 23 25 0 -5
BITMAP
0000000026AE600000000000
000000009CFF600000000000
0000000000FF600000000000
0000000000EF600000000000
0000000000EF600000000000
0000000000EF600000000000
00004ADFEAEFFFFFFFFFFF30
0009F8325DFF7111114FFD10
008F600003FF600000BFF400
03FD000000EF600006FF9000
08F8000000EF60002EFD1000
0DF6000000EF6000AFF40000
0FF6000000EF6005FF900000
1FF6000000EF601EFD100000
0FF8000000EF60AFF4000000
0DFB000000EF64FF902AEC30
0AFF400000EF7DFD12D73AB0
03FFE6114BFFEFF40C6005C0
008FFFFFE6DFFFA17C113C80
0006CEE920DFFFFFFFFDB600
000000000000000990000000
000000000000002E20000000
000000000000009800000000
00000000000001E100000000
000000000000002000000000
ENDCHAR
STARTCHAR uni02A6
ENCODING 678
SWIDTH 614 0
DWIDTH 17 0
BBX 16 18 1 0
BITMAP
001D000000000000
006E000000000000
01DE000000000000
08FE000000000000
7FFFFFFFFFFEA890
17FE116FD424DF90
06FE00AF50001E90
06FE00AF60000890
06FE008FE4000490
06FE001EFF920000
06FE0002CFFE8000
06FE000007EFFC20
06FE00000019FFC0
06FE000000006FF3
05FF100000001FF5
01EF900000005FE1
005FFB522359FE40
00028CDEFEDA6100
ENDCHAR
STARTCHAR uni02A7
ENCODING 679
SWIDTH 513 0
DWIDTH 14 0
BBX 17 27 1 -6
BITMAP
000000000029DEC600
0000000001D93CFF40
0000000009F202EF50
001C00000EF0002400
007E00003FF0000000
02EE00004FF0000000
1CFE00005FF0000000
CFFFFFFFFFF0000000
17FE11116FF0000000
06FE00005FF0000000
06FE00005FF0000000
06FE00005FF0000000
06FE00005FF0000000
06FE00005FF0000000
06FE00005FF0000000
06FE00005FF0000000
06FE00005FF0000000
06FE00005FF0000000
05FF00025FF0000000
02FF72955FF0000000
005DFC405FF0000000
000000005FE0000000
000000005FD0000000
000000006FB0000000
0006F6007F60000000
0008FF52CD10000000
00018DFD9200000000
ENDCHAR
STARTCHAR uni02A8
ENCODING 680
SWIDTH 687 0
DWIDTH 19 0
BBX 18 18 1 0
BITMAP
001D00000000000000
007E00000000000000
01EE00000000000000
09FE00000000000000
9FFFFFF1018CEEC700
17FE11103EB426FFB0
06FE0001DC0000AFF3
06FE0008F500002EE2
06FE000DF100000010
06FE002FE000000000
06FE004FE000000000
06FE005FE000000000
06FE004FF200000000
06FE002FF6006CED60
06FE000CFC4DA535F3
05FF1006FFE30000D4
02FF9248EFFB4238C0
006DFDA505ADEFD810
ENDCHAR
STARTCHAR uni02A9
ENCODING 681
SWIDTH 866 0
DWIDTH 24 0
BBX 23 27 0 -6
BITMAP
000018DEC700000000000000
0000BB3AFF60000000000000
0006F500CF80000000000000
000CF3001610000000000000
000FF3000000000000000000
001FF3000000000000000000
002FF3000000000000000000
4FFFFFFFFFFFFB018DFC5000
146FF644445DFA3DEDFFF400
002FF3000008FDD5003EFB00
002FF3000008FE200009FE00
002FF3000008FC000005FF10
002FF3000008FC000004FF10
002FF3000008FC000004FF10
002FF3000008FC000004FF10
002FF3000008FC000004FF10
002FF3000008FC000004FF10
002FF3000008FC000004FF10
003FF4000009FC000004FF10
13AFFC42013DFF520004FF10
8FFFFFFF08FFFFFE0004FF10
00000000000000000004FF00
00000000000000000004FE00
00000000000000000005FB00
000000000000007F8007F600
000000000000009FF95DB000
000000000000001AEFD81000
ENDCHAR
STARTCHAR uni02AA
ENCODING 682
SWIDTH 595 0
DWIDTH 17 0
BBX 16 20 0 0
BITMAP
26AE800000000000
8BFF800000000000
00CF800000000000
00CF800000000000
00CF800000000000
00CF800000000000
00CF80005BEFC6C3
00CF8007F9338FF3
00CF801ED00007F3
00CF802FE00001E3
00CF801FFA1000B3
00CF8009FFD60000
00CF8001AFFFC400
00CF800005DFFF70
00CF80000006EFF6
00CF800000001DFB
00BF9000000008FD
008FC00000000BF9
001CFA422246CFB1
00005ADEFEDC8400
ENDCHAR
STARTCHAR uni02AB
ENCODING 683
SWIDTH 580 0
DWIDTH 16 0
BBX 16 20 0 0
BITMAP
048CF20000000000
29CFF20000000000
004FF20000000000
003FF20000000000
003FF20000000000
003FF20000000000
003FFFFFFFFFFFF0
003FF3111115FF80
003FF200000CFD10
003FF200006FF400
003FF20001EFA000
003FF20009FE2000
003FF2004FF70000
003FF200CFC00000
003FF207FF300000
003FF22EF90000A1
003FF2AFE10002F1
003FF6FF500008F0
006FFEFD33349FE0
2DFFFFFFFFFFFFD0
ENDCHAR
STARTCHAR uni02AC
ENCODING 684
SWIDTH 599 0
DWIDTH 17 0
BBX 17 20 0 0
BITMAP
BFFFB0DFFF802FFF70
19FC102BFA1002F810
01EF1003FD0003D000
009F8005FF40096000
002FE10B6FB01D1000
000AF62B0DF2680000
0004FC8507F8C20000
0000CFD001FEA00000
00005F7000AF400000
000001000001000000
AEEEB0DEEE702EEE70
2AFC203CFA1003F910
02FE0004FC0002E000
00BF6003FF20078000
005FC008CF800D2000
000DF30C2FE03B0000
0008F9490BF5960000
0002FE9305FAD10000
0000BFC001EF900000
00004F70009F300000
ENDCHAR
STARTCHAR uni02AD
ENCODING 685
SWIDTH 479 0
DWIDTH 13 0
BBX 11 19 1 0
BITMAP
1FFFFFFFFF70
1FFFFFFFFF70
1F9111113F70
1F8000002F70
1F8000002F70
1F8000002F70
1F8000002F70
1F8000002F70
042000000420
000000000000
1FFFFFFFFF70
1FFFFFFFFF70
1F9111113F70
1F8000002F70
1F8000002F70
1F8000002F70
1F8000002F70
1F8000002F70
1F8000002F70
ENDCHAR
STARTCHAR uni02AE
ENCODING 686
SWIDTH 595 0
DWIDTH 17 0
BBX 18 20 -1 -6
BITMAP
5DFD920000026AE600
DFB3AD10000ADFF600
6A104F9000000FF600
00002FE000000EF600
00001FF200000EF600
00001FF300000EF600
00001FF400000EF600
00001FF400000EF600
00001FF400000EF600
00000FF500000EF600
00000EF800002EF600
00000AFE3005DFF600
000004FFFDED3EF600
0000005DFD810EF600
0000000000000EF600
0000000000000EF600
0000000000000EF600
0000000000000EF700
0000000000000EFC31
0000000000000EFFF9
ENDCHAR
STARTCHAR uni02AF
ENCODING 687
SWIDTH 600 0
DWIDTH 17 0
BBX 21 20 -1 -6
BITMAP
5DFD920000026AE6000000
DFB3AD10000ADFF6000000
6A104F9000000FF6000000
00002FE000000EF6000000
00001FF200000EF6000000
00001FF300000EF6000000
00001FF400000EF6000000
00001FF400000EF6000000
00001FF400000EF6000000
00000FF500000EF6000000
00000EF800002EF6000000
00000AFE3005DFF6000000
000004FFFDED3EF6000000
0000005DFD810EF6000000
0000000000000DF6000000
0000000000000CF7000000
00000000000009F7000100
00000000000004FA009F90
00000000000000BF68FFA0
0000000000000018DFEA10
ENDCHAR
STARTCHAR uni02B0
ENCODING 688
SWIDTH 488 0
DWIDTH 14 0
BBX 13 15 0 7
BITMAP
3ADF6000000000
12CF6000000000
00AF6000000000
00AF6000000000
00AF619EEA1000
00AF7DEDFFB000
00AFE5005FF200
00AF60000DF500
00AF60000BF500
00AF60000BF500
00AF60000BF500
00AF60000BF500
00AF60000BF500
00CF80000DF800
3EFFFD14EFFFD0
ENDCHAR
STARTCHAR uni02B1
ENCODING 689
SWIDTH 488 0
DWIDTH 14 0
BBX 13 16 0 7
BITMAP
00004ADDB40000
0007C119FE0000
002F7000660000
007F6000000000
009F6000000000
00AF619EEA1000
00AF7DEDFFB000
00AFE5005FF200
00AF60000DF500
00AF60000BF500
00AF60000BF500
00AF60000BF500
00AF60000BF500
00AF60000BF500
00CF80000DF800
3EFFFD14EFFFD0
ENDCHAR
STARTCHAR uni02B2
ENCODING 690
SWIDTH 222 0
DWIDTH 6 0
BBX 7 21 -2 1
BITMAP
00009E60
0000FFB0
00007C40
00000000
002BDF70
0013CF70
00009F70
00008F70
00008F70
00008F70
00008F70
00008F70
00008F70
00008F70
00008F70
00008F70
00009F60
6700AF30
EF71DB00
6EFFB100
00210000
ENDCHAR
STARTCHAR uni02B3
ENCODING 691
SWIDTH 325 0
DWIDTH 9 0
BBX 9 11 0 7
BITMAP
1ACF61AE70
16DF6BFFB0
00AFD73B50
009FA00000
009F600000
009F600000
009F600000
009F600000
009F600000
00CF900000
3EFFFE6000
ENDCHAR
STARTCHAR uni02B4
ENCODING 692
SWIDTH 325 0
DWIDTH 9 0
BBX 9 11 0 7
BITMAP
000CFFFFA0
00001EF500
00000DF300
00000DF300
00000DF300
00000DF300
00000DF300
00002EF300
0B81BEF300
3FFF4CF840
1DE50CEB70
ENDCHAR
STARTCHAR uni02B5
ENCODING 693
SWIDTH 325 0
DWIDTH 9 0
BBX 12 14 0 4
BITMAP
000CFFFFC000
00001EF50000
00000DF30000
00000DF30000
00000DF30000
00000DF30000
00000DF30000
00002EF30000
0B82BDF30000
3FFF4CF30000
1DE50AF30000
000007F30000
000002F607D2
0000004BDD90
ENDCHAR
STARTCHAR uni02B6
ENCODING 694
SWIDTH 443 0
DWIDTH 12 0
BBX 13 11 0 7
BITMAP
2EFFFE203FFE20
00BF9001DF8000
009F7009FB0000
009F705FD10000
009F72EE300000
009FEEF9200000
009F7029F80000
009F7000EF4000
009F7000DF6000
00AF7005FF2000
0AFFEDEDB30000
ENDCHAR
STARTCHAR uni02B7
ENCODING 695
SWIDTH 653 0
DWIDTH 18 0
BBX 20 11 -1 7
BITMAP
1EFFFB05FFFE500BFFE3
00AFB0001EF600009D10
003FE10008F90000C600
000CF60008FE1002E100
0006FC000DCF6008A000
0001EF304B5FB00D4000
00009F90A50EF23D0000
00003FE2E009F8970000
00000CFB9003FDD20000
000006FF3000DFB00000
000001EC00007F500000
ENDCHAR
STARTCHAR uni02B8
ENCODING 696
SWIDTH 427 0
DWIDTH 12 0
BBX 12 16 0 2
BITMAP
DFFFE203EFFC
0AFD00000E90
03FF20002F20
00BF90007B00
004FE100C500
000CF702E000
0006FD078000
0000EF4C3000
00007FAC0000
00001FF60000
00000AE10000
00000A900000
00002F300000
0420AB000000
6FFCE2000000
3DFC30000000
ENDCHAR
STARTCHAR uni02B9
ENCODING 697
SWIDTH 296 0
DWIDTH 8 0
BBX 6 9 1 11
BITMAP
0009E3
002FF5
007FE1
00BF70
01FE10
05F700
09E100
0E7000
191000
ENDCHAR
STARTCHAR uni02BA
ENCODING 698
SWIDTH 456 0
DWIDTH 13 0
BBX 10 9 1 11
BITMAP
0009E303E9
002FF50AFC
007FE10EF7
00BF704FE1
01FE108F70
05F700DE10
09E102F700
0E7006D000
1910055000
ENDCHAR
STARTCHAR uni02BB
ENCODING 699
SWIDTH 245 0
DWIDTH 7 0
BBX 5 7 1 13
BITMAP
002A40
03D500
0D7000
4F3000
5FED30
3FFF70
08ED20
ENDCHAR
STARTCHAR uni02BC
ENCODING 700
SWIDTH 244 0
DWIDTH 7 0
BBX 5 7 1 13
BITMAP
3DE600
9FFF10
4EEF30
005F10
009B00
06D200
591000
ENDCHAR
STARTCHAR uni02BD
ENCODING 701
SWIDTH 244 0
DWIDTH 7 0
BBX 5 7 1 13
BITMAP
08EC20
3FFF70
5FED30
4F2000
0D7000
04E500
002A30
ENDCHAR
STARTCHAR uni02BE
ENCODING 702
SWIDTH 203 0
DWIDTH 6 0
BBX 5 7 0 13
BITMAP
2ED800
025E80
000AD0
0009E0
002EA0
2EFB10
021000
ENDCHAR
STARTCHAR uni02BF
ENCODING 703
SWIDTH 203 0
DWIDTH 6 0
BBX 5 7 0 13
BITMAP
02ADC0
0DC320
3F5000
3F4000
1EA100
04DFC0
000120
ENDCHAR
STARTCHAR uni02C0
ENCODING 704
SWIDTH 364 0
DWIDTH 10 0
BBX 9 10 1 10
BITMAP
07CEEB4000
8FD34CF600
AF5003FE00
130001FF30
000001FF20
000006FD00
00016FD200
00DFC71000
00EF200000
00EF200000
ENDCHAR
STARTCHAR uni02C1
ENCODING 705
SWIDTH 364 0
DWIDTH 10 0
BBX 8 10 1 10
BITMAP
03ADEC81
3FE53BFB
CF6002FD
FF300032
FF400000
AF900000
1CF81000
006BFE10
0000EF20
0000EF20
ENDCHAR
STARTCHAR uni02C2
ENCODING 706
SWIDTH 324 0
DWIDTH 9 0
BBX 8 10 1 12
BITMAP
00000020
000007F1
0004DF90
02AFC300
7EE60000
CFA10000
07EE6000
001AFC30
00004DF1
00000071
ENDCHAR
STARTCHAR uni02C3
ENCODING 707
SWIDTH 324 0
DWIDTH 9 0
BBX 8 10 1 12
BITMAP
30000000
E9100000
8FE50000
02BFB200
0005DF80
00019FD1
005EF800
3BFB2000
ED500000
71000000
ENDCHAR
STARTCHAR uni02C4
ENCODING 708
SWIDTH 324 0
DWIDTH 9 0
BBX 9 7 0 14
BITMAP
0002F30000
000BFC0000
005F8F7000
01EB09E100
08F201EA00
3F80007F40
BD10000CD0
ENDCHAR
STARTCHAR uni02C5
ENCODING 709
SWIDTH 324 0
DWIDTH 9 0
BBX 9 7 0 14
BITMAP
BD10000CD0
3F80006F40
08F201EA00
01DB09E200
005F8F7000
000BFC0000
0002F30000
ENDCHAR
STARTCHAR circumflex
ENCODING 710
SWIDTH 342 0
DWIDTH 10 0
BBX 8 5 1 15
BITMAP
00287000
00CFF600
07F7CE20
3F601CB0
C70001C6
ENDCHAR
STARTCHAR caron
ENCODING 711
SWIDTH 342 0
DWIDTH 10 0
BBX 8 5 1 15
BITMAP
71000044
7C1005E2
0CC15F60
03FDFB00
007FE200
ENDCHAR
STARTCHAR uni02C8
ENCODING 712
SWIDTH 284 0
DWIDTH 8 0
BBX 2 8 3 13
BITMAP
98
98
98
98
98
98
98
98
ENDCHAR
STARTCHAR uni02C9
ENCODING 713
SWIDTH 350 0
DWIDTH 10 0
BBX 9 2 0 15
BITMAP
2EEEEEEEE0
0222222220
ENDCHAR
STARTCHAR uni02CA
ENCODING 714
SWIDTH 222 0
DWIDTH 6 0
BBX 5 5 1 15
BITMAP
028830
0AFD20
1FE300
8F4000
E60000
ENDCHAR
STARTCHAR uni02CB
ENCODING 715
SWIDTH 222 0
DWIDTH 6 0
BBX 6 5 0 15
BITMAP
188400
0BFD00
01DF40
002EB0
0003E2
ENDCHAR
STARTCHAR uni02CC
ENCODING 716
SWIDTH 284 0
DWIDTH 8 0
BBX 2 8 3 -6
BITMAP
98
98
98
98
98
98
98
98
ENDCHAR
STARTCHAR uni02CD
ENCODING 717
SWIDTH 342 0
DWIDTH 10 0
BBX 10 2 0 -5
BITMAP
AEEEEEEEE4
1222222221
ENDCHAR
STARTCHAR uni02CE
ENCODING 718
SWIDTH 222 0
DWIDTH 6 0
BBX 6 5 0 -5
BITMAP
188400
0BFD00
01DF40
002EB0
0003E2
ENDCHAR
STARTCHAR uni02CF
ENCODING 719
SWIDTH 223 0
DWIDTH 6 0
BBX 5 5 1 -5
BITMAP
028830
0AFD20
1FE300
8F4000
E60000
ENDCHAR
STARTCHAR uni02D0
ENCODING 720
SWIDTH 341 0
DWIDTH 10 0
BBX 5 13 2 1
BITMAP
4FFFD0
0EFF80
0AFF30
05FD00
01F800
000000
000000
000000
01F800
05FD00
0AFF30
0EFF80
4FFFD0
ENDCHAR
STARTCHAR uni02D1
ENCODING 721
SWIDTH 341 0
DWIDTH 10 0
BBX 5 5 2 9
BITMAP
4FFFD0
0EFF80
0AFF30
05FD00
01F800
ENDCHAR
STARTCHAR uni02D2
ENCODING 722
SWIDTH 341 0
DWIDTH 10 0
BBX 6 9 2 2
BITMAP
EEC600
237EA0
0006F4
0002F8
0002F8
0005F5
004DC0
EFF910
220000
ENDCHAR
STARTCHAR uni02D3
ENCODING 723
SWIDTH 341 0
DWIDTH 10 0
BBX 6 9 2 2
BITMAP
029DE7
3EB421
BE1000
FA0000
FA0000
CD0000
5F9100
05CFE7
000121
ENDCHAR
STARTCHAR uni02D4
ENCODING 724
SWIDTH 341 0
DWIDTH 10 0
BBX 7 7 1 4
BITMAP
00041000
000C5000
000C5000
000C5000
000C5000
8FFFFFF0
23333330
ENDCHAR
STARTCHAR uni02D5
ENCODING 725
SWIDTH 341 0
DWIDTH 10 0
BBX 7 6 1 4
BITMAP
8EEEEEE0
122D6220
000C5000
000C5000
000C5000
00083000
ENDCHAR
STARTCHAR uni02D6
ENCODING 726
SWIDTH 341 0
DWIDTH 10 0
BBX 6 6 2 5
BITMAP
00C500
00C500
00C500
EEFFE8
22C621
00C500
ENDCHAR
STARTCHAR uni02D7
ENCODING 727
SWIDTH 341 0
DWIDTH 10 0
BBX 6 2 2 6
BITMAP
EEEEE8
222221
ENDCHAR
STARTCHAR breve
ENCODING 728
SWIDTH 353 0
DWIDTH 10 0
BBX 9 5 0 15
BITMAP
1600000070
1E100003D0
0CA1001C90
05FFDDFE20
005CFEB300
ENDCHAR
STARTCHAR dotaccent
ENCODING 729
SWIDTH 194 0
DWIDTH 5 0
BBX 4 3 1 16
BITMAP
6EB1
CFF4
6EB1
ENDCHAR
STARTCHAR ring
ENCODING 730
SWIDTH 265 0
DWIDTH 7 0
BBX 7 7 0 14
BITMAP
01AEC400
0BB36F20
1F200B70
2F200B80
0D803E40
03DFF700
00010000
ENDCHAR
STARTCHAR ogonek
ENCODING 731
SWIDTH 277 0
DWIDTH 8 0
BBX 7 8 0 -7
BITMAP
00013000
003D4000
02E50000
0CD00000
1FC00000
1FF53690
08FFFA10
00242000
ENDCHAR
STARTCHAR tilde
ENCODING 732
SWIDTH 381 0
DWIDTH 11 0
BBX 9 4 1 15
BITMAP
19EC3001A0
9EEFF73A50
C104CFF900
1000011000
ENDCHAR
STARTCHAR hungarumlaut
ENCODING 733
SWIDTH 350 0
DWIDTH 10 0
BBX 8 4 1 15
BITMAP
09FE2DFC
1EF44FD2
7F50BE20
D603E300
ENDCHAR
STARTCHAR uni02DE
ENCODING 734
SWIDTH 205 0
DWIDTH 6 0
BBX 8 5 -2 6
BITMAP
00170000
07EF0064
176F51B2
000BFF80
00001100
ENDCHAR
STARTCHAR uni02DF
ENCODING 735
SWIDTH 302 0
DWIDTH 8 0
BBX 7 7 1 14
BITMAP
52000610
DD208F50
2DD8F700
02EF8000
07FED200
6F72ED20
A8002D30
ENDCHAR
STARTCHAR uni02E0
ENCODING 736
SWIDTH 413 0
DWIDTH 12 0
BBX 13 16 -1 2
BITMAP
1EFFFC004EFF90
00BFD00002F600
003FF10004D000
000CF7000A7000
0006FD001E1000
0001EF40790000
00009FA0D30000
00003FE4C00000
00000CFD600000
000006FF100000
000003FF300000
000009CFA00000
00000D2FE00000
00003B0AF20000
00004C0AE10000
00000ADD500000
ENDCHAR
STARTCHAR uni02E1
ENCODING 737
SWIDTH 244 0
DWIDTH 7 0
BBX 7 15 0 7
BITMAP
2ADF6000
13CF6000
009F6000
009F6000
009F6000
009F6000
009F6000
009F6000
009F6000
009F6000
009F6000
009F6000
009F6000
00BF9000
2EFFFE20
ENDCHAR
STARTCHAR uni02E2
ENCODING 738
SWIDTH 337 0
DWIDTH 9 0
BBX 9 11 0 7
BITMAP
018DDD9D00
0AD102CF00
0EB0003F00
0EF8100D00
08FFE70000
007EFFD400
00028EFF30
1B0002CF90
1F10006F90
1FA100AF40
1D9DDDB400
ENDCHAR
STARTCHAR uni02E3
ENCODING 739
SWIDTH 445 0
DWIDTH 12 0
BBX 12 11 0 7
BITMAP
1EFFFC05FFF6
00AFE0008D20
001DF601D300
0004FE1A6000
00008FC90000
00000EF70000
00007CDF4000
0004E25FE100
002E500AFB00
02CA0002FF80
6FFF701DFFFC
ENDCHAR
STARTCHAR uni02E4
ENCODING 740
SWIDTH 364 0
DWIDTH 10 0
BBX 10 15 1 7
BITMAP
006BCCD920
0BF5009FD0
6FA0002FF1
BF60000550
DF50000000
BF70000000
6FD0000000
0AFB100000
005CEB8000
00003FE000
00002FE000
00002FE000
00002FE000
00005FF100
002CFFFEA0
ENDCHAR
STARTCHAR uni02E5
ENCODING 741
SWIDTH 423 0
DWIDTH 12 0
BBX 10 20 1 -1
BITMAP
9EEEEEEEEA
12222222CB
00000000BB
00000000BB
00000000BB
00000000BB
00000000BB
00000000BB
00000000BB
00000000BB
00000000BB
00000000BB
00000000BB
00000000BB
00000000BB
00000000BB
00000000BB
00000000BB
00000000BB
0000000011
ENDCHAR
STARTCHAR uni02E6
ENCODING 742
SWIDTH 414 0
DWIDTH 12 0
BBX 10 20 1 0
BITMAP
00000000D6
00000000F7
00000000F7
00000000F7
00000000F7
00000000F7
CEEEEEEEF7
22222222F7
00000000F7
00000000F7
00000000F7
00000000F7
00000000F7
00000000F7
00000000F7
00000000F7
00000000F7
00000000F7
00000000F7
0000000094
ENDCHAR
STARTCHAR uni02E7
ENCODING 743
SWIDTH 414 0
DWIDTH 12 0
BBX 10 21 1 -1
BITMAP
0000000053
00000000F7
00000000F7
00000000F7
00000000F7
00000000F7
00000000F7
00000000F7
00000000F7
00000000F7
CEEEEEEEF7
22222222F7
00000000F7
00000000F7
00000000F7
00000000F7
00000000F7
00000000F7
00000000F7
00000000F7
0000000021
ENDCHAR
STARTCHAR uni02E8
ENCODING 744
SWIDTH 414 0
DWIDTH 12 0
BBX 10 20 1 0
BITMAP
00000000D6
00000000F7
00000000F7
00000000F7
00000000F7
00000000F7
00000000F7
00000000F7
00000000F7
00000000F7
00000000F7
00000000F7
00000000F7
CEEEEEEEF7
22222222F7
00000000F7
00000000F7
00000000F7
00000000F7
0000000094
ENDCHAR
STARTCHAR uni02E9
ENCODING 745
SWIDTH 414 0
DWIDTH 12 0
BBX 10 21 1 -1
BITMAP
0000000053
00000000F7
00000000F7
00000000F7
00000000F7
00000000F7
00000000F7
00000000F7
00000000F7
00000000F7
00000000F7
00000000F7
00000000F7
00000000F7
00000000F7
00000000F7
00000000F7
00000000F7
00000000F7
CEEEEEEEF7
2222222221
ENDCHAR
STARTCHAR uni02EC
ENCODING 748
SWIDTH 341 0
DWIDTH 10 0
BBX 9 7 0 -4
BITMAP
2860001860
0CF3009F50
04FB02FB00
00AF5AF300
002EEF9000
0007FE1000
0001D60000
ENDCHAR
STARTCHAR uni02ED
ENCODING 749
SWIDTH 380 0
DWIDTH 11 0
BBX 9 6 1 15
BITMAP
DEEEEEEE80
2222222210
0000000000
0000000000
DEEEEEEE80
2222222210
ENDCHAR
STARTCHAR uni02F7
ENCODING 759
SWIDTH 381 0
DWIDTH 11 0
BBX 9 4 1 -5
BITMAP
19EC3001A0
9EEFF73A50
C104CFF900
1000011000
ENDCHAR
STARTCHAR uni0300
ENCODING 768
SWIDTH 0 0
DWIDTH 0 0
BBX 5 5 -10 15
BITMAP
488200
2EF800
03FE10
005F60
0007D0
ENDCHAR
STARTCHAR uni0301
ENCODING 769
SWIDTH 0 0
DWIDTH 0 0
BBX 5 5 -8 15
BITMAP
017850
06FF40
0DF500
4F7000
B90000
ENDCHAR
STARTCHAR uni0302
ENCODING 770
SWIDTH 0 0
DWIDTH 0 0
BBX 9 5 -11 15
BITMAP
0004850000
002EFF3000
00BE6EC000
06E402E800
2D40002D30
ENDCHAR
STARTCHAR uni0303
ENCODING 771
SWIDTH 0 0
DWIDTH 0 0
BBX 10 4 -11 15
BITMAP
06DE7000A1
4FDFFB36A0
A4029FFC20
2000011000
ENDCHAR
STARTCHAR uni0304
ENCODING 772
SWIDTH 0 0
DWIDTH 0 0
BBX 9 2 -11 15
BITMAP
7EEEEEEE90
1222222210
ENDCHAR
STARTCHAR uni0305
ENCODING 773
SWIDTH 0 0
DWIDTH 0 0
BBX 12 2 -12 15
BITMAP
3EEEEEEEEEEE
022222222222
ENDCHAR
STARTCHAR uni0306
ENCODING 774
SWIDTH 0 0
DWIDTH 0 0
BBX 9 5 -11 15
BITMAP
4300000250
7900000970
3F50004F30
0BFEDEFB00
018DFE9100
ENDCHAR
ENDFONT
